<svg width="185" height="155" viewBox="0 0 185 155" fill="none" xmlns="http://www.w3.org/2000/svg">
<g clip-path="url(#clip0_4926_5870)">
<path d="M92.2433 154.998C134.994 154.998 169.65 120.3 169.65 77.499C169.65 34.6975 134.994 0 92.2433 0C49.4924 0 14.8359 34.6975 14.8359 77.499C14.8359 120.3 49.4924 154.998 92.2433 154.998Z" fill="#D9EDFF"/>
<g filter="url(#filter0_d_4926_5870)">
<path d="M118.051 22.3184H68.0721C59.6898 22.3184 52.8945 29.1216 52.8945 37.5139V107.244C52.8945 115.637 59.6898 122.44 68.0721 122.44H118.051C126.433 122.44 133.229 115.637 133.229 107.244V37.5139C133.229 29.1216 126.433 22.3184 118.051 22.3184Z" fill="url(#paint0_linear_4926_5870)"/>
</g>
<path d="M106.447 35.2344H60.9675C60.4289 35.2344 59.9922 35.6716 59.9922 36.2109C59.9922 36.7502 60.4289 37.1874 60.9675 37.1874H106.447C106.985 37.1874 107.422 36.7502 107.422 36.2109C107.422 35.6716 106.985 35.2344 106.447 35.2344Z" fill="black"/>
<path d="M123.523 54.2832H60.9675C60.4289 54.2832 59.9922 54.7204 59.9922 55.2597C59.9922 55.799 60.4289 56.2362 60.9675 56.2362H123.523C124.062 56.2362 124.498 55.799 124.498 55.2597C124.498 54.7204 124.062 54.2832 123.523 54.2832Z" fill="#D5D5D5"/>
<path d="M123.523 73.3301H60.9675C60.4289 73.3301 59.9922 73.7673 59.9922 74.3066C59.9922 74.8459 60.4289 75.2831 60.9675 75.2831H123.523C124.062 75.2831 124.498 74.8459 124.498 74.3066C124.498 73.7673 124.062 73.3301 123.523 73.3301Z" fill="#D5D5D5"/>
<path d="M123.523 92.3789H60.9675C60.4289 92.3789 59.9922 92.8161 59.9922 93.3554C59.9922 93.8947 60.4289 94.3319 60.9675 94.3319H123.523C124.062 94.3319 124.498 93.8947 124.498 93.3554C124.498 92.8161 124.062 92.3789 123.523 92.3789Z" fill="#D5D5D5"/>
<path d="M123.523 111.426H60.9675C60.4289 111.426 59.9922 111.863 59.9922 112.402C59.9922 112.942 60.4289 113.379 60.9675 113.379H123.523C124.062 113.379 124.498 112.942 124.498 112.402C124.498 111.863 124.062 111.426 123.523 111.426Z" fill="#D5D5D5"/>
<g filter="url(#filter1_d_4926_5870)">
<path d="M181.36 11.252H142.604C140.798 11.252 139.334 12.7945 139.334 14.6973V33.8906C139.334 35.7935 140.798 37.336 142.604 37.336H181.36C183.165 37.336 184.63 35.7935 184.63 33.8906V14.6973C184.63 12.7945 183.165 11.252 181.36 11.252Z" fill="white"/>
</g>
<path d="M149.009 28.4159C151.146 28.4159 152.879 26.681 152.879 24.541C152.879 22.4009 151.146 20.666 149.009 20.666C146.872 20.666 145.139 22.4009 145.139 24.541C145.139 26.681 146.872 28.4159 149.009 28.4159Z" fill="#CCC6D9"/>
<path d="M174.813 20.666H161.911C159.774 20.666 158.041 22.4009 158.041 24.541V24.541C158.041 26.681 159.774 28.4159 161.911 28.4159H174.813C176.95 28.4159 178.683 26.681 178.683 24.541C178.683 22.4009 176.95 20.666 174.813 20.666Z" fill="#D5D5D5"/>
<path fill-rule="evenodd" clip-rule="evenodd" d="M114.894 126.945C123.203 126.945 130.925 124.429 137.34 120.115L163.594 145.207L173.115 134.147L147.781 109.935C152.46 103.343 155.211 95.2831 155.211 86.5808C155.211 64.2884 137.161 46.2168 114.894 46.2168C92.6284 46.2168 74.5781 64.2884 74.5781 86.5808C74.5781 108.874 92.6284 126.945 114.894 126.945ZM149.281 86.5807C149.281 105.454 133.999 120.754 115.149 120.754C96.2981 120.754 81.0165 105.454 81.0165 86.5807C81.0165 67.7076 96.2981 52.408 115.149 52.408C133.999 52.408 149.281 67.7076 149.281 86.5807Z" fill="#61AEF2"/>
<path d="M115.144 121.415C134.56 121.415 150.3 105.802 150.3 86.5405C150.3 67.2799 134.56 51.666 115.144 51.666C95.7281 51.666 79.9883 67.2799 79.9883 86.5405C79.9883 105.802 95.7281 121.415 115.144 121.415Z" fill="white" fill-opacity="0.3"/>
<path d="M163.588 145.208L173.109 134.148L174.543 135.519C175.935 136.848 176.768 138.707 176.86 140.683C176.951 142.661 176.293 144.595 175.031 146.061C173.769 147.527 172.006 148.405 170.129 148.502C168.253 148.597 166.418 147.904 165.026 146.575L163.592 145.204L163.588 145.208Z" fill="#E1DCEB"/>
<path fill-rule="evenodd" clip-rule="evenodd" d="M31.8109 40.1507C31.7987 39.2297 31.6833 38.3008 31.4525 37.3655C30.6431 34.0834 27.0322 31.9763 23.189 31.4809C19.3471 30.9855 15.352 32.1128 13.8123 34.9679C12.9316 36.6001 12.8101 38.0071 13.17 39.1932C13.5283 40.373 14.3786 41.3511 15.5326 42.1133C18.7503 44.2363 24.3855 44.6697 26.9563 43.7821C28.1453 43.3709 29.3068 42.8755 30.4381 42.3086C29.7913 46.0195 27.3814 49.535 24.1653 52.7028C17.1757 59.5878 6.32914 64.8135 0.422233 66.7348C0.104869 66.838 -0.0712898 67.1905 0.0274118 67.5224C0.126113 67.8542 0.463211 68.0401 0.780575 67.9368C6.80441 65.9774 17.862 60.6406 24.9899 53.619C28.6721 49.9923 31.2961 45.9099 31.7441 41.6179C40.0684 36.967 46.9046 28.529 52.7493 21.4281C52.9664 21.166 52.9376 20.7675 52.6855 20.5405C52.4335 20.315 52.0538 20.3436 51.8366 20.6071C46.2304 27.4175 39.7237 35.5189 31.8109 40.1507ZM30.6006 40.8255C30.6462 39.7902 30.5489 38.739 30.2863 37.6784C29.5863 34.8376 26.3686 33.1577 23.0416 32.729C21.0022 32.4669 18.9053 32.6829 17.2608 33.4514C16.2266 33.9342 15.3748 34.6344 14.8615 35.5872C14.1873 36.8368 14.0415 37.9054 14.3179 38.8121C14.5942 39.7251 15.2807 40.4587 16.175 41.0478C19.1072 42.9834 24.2382 43.3947 26.5781 42.5865C27.9584 42.1101 29.2978 41.5163 30.6006 40.8255Z" fill="black"/>
<path d="M179.327 103.976C181.465 103.976 183.198 102.242 183.198 100.102C183.198 97.9614 181.465 96.2266 179.327 96.2266C177.19 96.2266 175.457 97.9614 175.457 100.102C175.457 102.242 177.19 103.976 179.327 103.976Z" fill="#E3E3E3"/>
<path fill-rule="evenodd" clip-rule="evenodd" d="M33.1454 126.834C33.8362 126.575 34.563 126.23 35.1235 125.732C35.7893 125.138 36.06 124.376 36.2417 123.572C36.4752 122.54 36.5684 121.44 36.8515 120.406C36.9563 120.022 37.158 119.877 37.2445 119.812C37.4632 119.65 37.6843 119.606 37.8923 119.622C38.1388 119.641 38.4775 119.74 38.7001 120.175C38.7319 120.238 38.7732 120.333 38.801 120.463C38.8212 120.558 38.8343 120.856 38.8558 120.979C38.9093 121.282 38.9542 121.584 38.9963 121.889C39.1364 122.903 39.217 123.763 39.6596 124.695C40.2602 125.959 40.862 126.732 41.6781 127.075C42.4673 127.405 43.4109 127.344 44.6164 127.083C44.7312 127.055 44.8447 127.029 44.9571 127.009C45.4886 126.91 45.9966 127.279 46.1011 127.836C46.2055 128.394 45.8676 128.937 45.3409 129.06C45.2309 129.085 45.1226 129.11 45.0154 129.132C43.3863 129.556 41.5003 131.073 40.4043 132.402C40.0665 132.811 39.5719 133.955 39.0673 134.686C38.695 135.224 38.2766 135.579 37.9253 135.705C37.6899 135.789 37.4914 135.777 37.3274 135.734C37.0893 135.673 36.8916 135.536 36.7399 135.32C36.6574 135.201 36.5808 135.043 36.5442 134.841C36.5268 134.743 36.5248 134.496 36.5252 134.384C36.4223 134.011 36.2966 133.647 36.2048 133.271C35.9861 132.374 35.557 131.805 35.0473 131.055C34.5706 130.353 34.0584 129.912 33.3078 129.56C33.2102 129.535 32.4222 129.331 32.144 129.214C31.7374 129.044 31.5437 128.757 31.4734 128.603C31.354 128.341 31.3417 128.112 31.3655 127.921C31.4008 127.64 31.5208 127.399 31.7335 127.205C31.8653 127.083 32.0622 126.966 32.3257 126.909C32.5294 126.864 33.0696 126.838 33.1454 126.834ZM37.768 125.372C37.8045 125.457 37.8435 125.544 37.8848 125.631C38.7644 127.482 39.7481 128.515 40.9437 129.017L40.9839 129.033C40.184 129.659 39.4599 130.359 38.9065 131.029C38.6787 131.305 38.377 131.878 38.0511 132.466C37.7549 131.452 37.2707 130.735 36.6618 129.838C36.1965 129.154 35.709 128.638 35.1101 128.218C35.5749 127.967 36.0182 127.672 36.4045 127.328C37.0476 126.757 37.4727 126.093 37.768 125.372Z" fill="#CCC6D9"/>
</g>
<defs>
<filter id="filter0_d_4926_5870" x="22.8945" y="12.3184" width="140.334" height="160.121" filterUnits="userSpaceOnUse" color-interpolation-filters="sRGB">
<feFlood flood-opacity="0" result="BackgroundImageFix"/>
<feColorMatrix in="SourceAlpha" type="matrix" values="0 0 0 0 0 0 0 0 0 0 0 0 0 0 0 0 0 0 127 0" result="hardAlpha"/>
<feOffset dy="20"/>
<feGaussianBlur stdDeviation="15"/>
<feComposite in2="hardAlpha" operator="out"/>
<feColorMatrix type="matrix" values="0 0 0 0 0.570833 0 0 0 0 0.570833 0 0 0 0 0.570833 0 0 0 0.19 0"/>
<feBlend mode="normal" in2="BackgroundImageFix" result="effect1_dropShadow_4926_5870"/>
<feBlend mode="normal" in="SourceGraphic" in2="effect1_dropShadow_4926_5870" result="shape"/>
</filter>
<filter id="filter1_d_4926_5870" x="132.334" y="2.25195" width="71.2949" height="52.084" filterUnits="userSpaceOnUse" color-interpolation-filters="sRGB">
<feFlood flood-opacity="0" result="BackgroundImageFix"/>
<feColorMatrix in="SourceAlpha" type="matrix" values="0 0 0 0 0 0 0 0 0 0 0 0 0 0 0 0 0 0 127 0" result="hardAlpha"/>
<feOffset dx="6" dy="4"/>
<feGaussianBlur stdDeviation="6.5"/>
<feComposite in2="hardAlpha" operator="out"/>
<feColorMatrix type="matrix" values="0 0 0 0 0.104618 0 0 0 0 0.465612 0 0 0 0 0.545833 0 0 0 0.09 0"/>
<feBlend mode="normal" in2="BackgroundImageFix" result="effect1_dropShadow_4926_5870"/>
<feBlend mode="normal" in="SourceGraphic" in2="effect1_dropShadow_4926_5870" result="shape"/>
</filter>
<linearGradient id="paint0_linear_4926_5870" x1="93.0616" y1="22.3184" x2="93.0616" y2="122.44" gradientUnits="userSpaceOnUse">
<stop stop-color="white"/>
<stop offset="0.71875" stop-color="#FAFAFA"/>
</linearGradient>
<clipPath id="clip0_4926_5870">
<rect width="185" height="155" fill="white"/>
</clipPath>
</defs>
</svg>
