<svg width="146" height="155" viewBox="0 0 146 155" fill="none" xmlns="http://www.w3.org/2000/svg">
<g clip-path="url(#clip0_4926_6147)">
<path d="M73 155C113.317 155 146 120.302 146 77.5C146 34.698 113.317 0 73 0C32.6832 0 0 34.698 0 77.5C0 120.302 32.6832 155 73 155Z" fill="#D9EDFF"/>
<path fill-rule="evenodd" clip-rule="evenodd" d="M124.406 27.4914C125.584 24.4927 125.932 21.4994 126.445 18.366C126.545 17.7541 126.13 17.1784 125.52 17.0776C124.91 16.9767 124.333 17.3928 124.233 18.0047C123.748 20.9759 123.438 23.8238 122.32 26.6723C122.093 27.2485 122.378 27.9007 122.954 28.125C123.529 28.3531 124.18 28.0676 124.406 27.4914Z" fill="#303030"/>
<path fill-rule="evenodd" clip-rule="evenodd" d="M130.082 34.3749C135.891 30.3408 141.581 24.912 145.811 19.2267C146.18 18.73 146.077 18.0267 145.58 17.6586C145.083 17.2905 144.382 17.392 144.012 17.8887C139.922 23.3856 134.419 28.6361 128.803 32.5341C128.295 32.8877 128.17 33.5867 128.523 34.0937C128.877 34.6008 129.575 34.7286 130.082 34.3749Z" fill="#303030"/>
<path fill-rule="evenodd" clip-rule="evenodd" d="M130.703 39.716C135.333 41.133 140.39 40.4564 144.946 39.1512C145.542 38.9787 145.885 38.3581 145.714 37.7663C145.544 37.1708 144.922 36.8273 144.328 36.9961C140.178 38.1864 135.574 38.8637 131.357 37.5737C130.766 37.3925 130.139 37.7265 129.959 38.3163C129.779 38.9061 130.112 39.5348 130.703 39.716Z" fill="#303030"/>
<path d="M62.7414 29.4636C62.4515 28.2595 60.7433 28.2595 60.4535 29.4637L60.078 31.0233C59.9743 31.4536 59.6393 31.7896 59.2101 31.8935L57.6546 32.27C56.4537 32.5606 56.4537 34.2733 57.6546 34.564L59.2101 34.9404C59.6393 35.0444 59.9743 35.3803 60.078 35.8106L60.4535 37.3702C60.7433 38.5744 62.4515 38.5744 62.7414 37.3702L63.1168 35.8106C63.2205 35.3803 63.5555 35.0444 63.9847 34.9404L65.5402 34.564C66.7412 34.2733 66.7412 32.5606 65.5402 32.27L63.9847 31.8935C63.5555 31.7896 63.2205 31.4536 63.1168 31.0233L62.7414 29.4636Z" fill="#CCC6D9"/>
<path d="M112.849 115.692C114.705 115.692 116.21 114.184 116.21 112.323C116.21 110.462 114.705 108.953 112.849 108.953C110.993 108.953 109.488 110.462 109.488 112.323C109.488 114.184 110.993 115.692 112.849 115.692Z" fill="#CCC6D9"/>
<path d="M48.5105 68.4281C49.3598 62.0494 51.8016 55.9908 55.608 50.8179C59.4144 45.6449 64.4613 41.526 70.278 38.8454C76.0947 36.1648 82.4912 35.0099 88.8722 35.4882C95.2524 35.9667 101.408 38.0629 106.766 41.5814L121.362 36.5901C121.802 36.4441 122.274 36.428 122.724 36.5438C123.173 36.6595 123.58 36.9022 123.896 37.2431C124.212 37.584 124.425 38.0089 124.509 38.4676C124.592 38.9262 124.544 39.3994 124.369 39.8312L118.515 53.8758C121.629 59.0926 123.454 64.9836 123.839 71.0557C124.225 77.1279 123.158 83.2048 120.729 88.7771C118.301 94.3493 114.579 99.2559 109.879 103.084C105.178 106.914 99.6342 109.555 93.71 110.786C87.7867 112.018 81.6555 111.804 75.831 110.163C70.0065 108.521 64.6574 105.501 60.2315 101.353C55.8057 97.2056 52.432 92.0519 50.3927 86.3237C48.3535 80.5948 47.7081 74.4588 48.5105 68.4281Z" fill="#303030"/>
<path d="M23.5651 85.4547C24.4145 91.8338 26.8563 97.8918 30.6627 103.065C34.4691 108.238 39.5161 112.357 45.3327 115.037C51.1494 117.718 57.5463 118.873 63.9267 118.395C70.307 117.916 76.4631 115.82 81.8204 112.302L96.4161 117.293C96.8567 117.439 97.3291 117.454 97.7782 117.339C98.2274 117.224 98.6345 116.981 98.9505 116.64C99.2666 116.299 99.4795 115.874 99.5637 115.415C99.647 114.956 99.5989 114.484 99.4237 114.051L93.57 100.008C96.6832 94.79 98.5091 88.8992 98.8938 82.8275C99.2794 76.7551 98.2128 70.6785 95.784 65.106C93.3553 59.5336 89.6349 54.6275 84.9337 50.7983C80.2325 46.9691 74.6888 44.3282 68.7649 43.0968C62.8412 41.8655 56.7105 42.0794 50.8858 43.7206C45.0611 45.3617 39.712 48.3825 35.2863 52.5301C30.8604 56.6776 27.4867 61.8312 25.4475 67.5595C23.4082 73.2877 22.7627 79.4244 23.5651 85.4547Z" fill="#61AEF2"/>
<path fill-rule="evenodd" clip-rule="evenodd" d="M54.2422 81.8477C54.2422 86.6819 57.7763 90.2177 61.6847 90.2177C65.5931 90.2177 69.1272 86.6819 69.1272 81.8477H74.1679C74.1679 89.05 68.7811 95.2724 61.6847 95.2724C54.5883 95.2724 49.2012 89.05 49.2012 81.8477H54.2422Z" fill="white"/>
<path d="M48.099 77.9427C50.6 77.9427 52.6276 75.9098 52.6276 73.402C52.6276 70.8942 50.6 68.8613 48.099 68.8613C45.5979 68.8613 43.5703 70.8942 43.5703 73.402C43.5703 75.9098 45.5979 77.9427 48.099 77.9427Z" fill="white"/>
<path d="M75.2707 77.9427C77.7716 77.9427 79.7993 75.9098 79.7993 73.402C79.7993 70.8942 77.7716 68.8613 75.2707 68.8613C72.7697 68.8613 70.7422 70.8942 70.7422 73.402C70.7422 75.9098 72.7697 77.9427 75.2707 77.9427Z" fill="white"/>
<path d="M13.9252 106.225L13.9253 106.225C14.6926 108.596 16.1427 110.391 18.2814 111.68L18.0233 112.109L18.2796 111.679C18.7836 111.98 18.9459 112.633 18.6417 113.135L18.6414 113.136C18.3388 113.633 17.6861 113.795 17.1847 113.492C14.6052 111.937 12.8351 109.745 11.9051 106.873L13.9252 106.225ZM13.9252 106.225C13.7453 105.67 13.1486 105.363 12.5912 105.541M13.9252 106.225L12.5912 105.541M12.5912 105.541C12.0326 105.718 11.7245 106.316 11.9051 106.873L12.5912 105.541Z" fill="#303030" stroke="black"/>
<path d="M0.409384 144.832C0.508401 145.411 1.05839 145.794 1.63172 145.7L1.63173 145.7L1.63496 145.699C2.20949 145.6 2.60101 145.057 2.5021 144.477L2.50198 144.476C1.83029 140.57 4.21726 136.995 8.06291 136.045C8.41393 136.519 8.80246 136.967 9.22851 137.382C9.45808 137.606 9.99166 138.061 10.5457 138.26C11.1617 138.483 11.8545 138.433 12.3582 137.873L12.3584 137.872C12.8921 137.278 13.0434 136.659 12.9252 136.088C12.8138 135.549 12.4561 135.099 11.9872 134.766L11.987 134.765C11.54 134.447 10.9611 134.218 10.4128 134.064C9.97184 133.94 9.52486 133.858 9.14058 133.822C8.86856 133.345 8.63534 132.846 8.44183 132.33C6.81027 127.983 9.16702 122.749 14.3815 119.523C15.2098 119.011 16.3918 118.747 17.8309 118.684C19.2611 118.621 20.893 118.758 22.5807 119.002L22.5808 119.002C27.1507 119.663 31.9845 121.152 34.2817 121.86C34.6274 121.967 34.9156 122.055 35.1369 122.121L35.1379 122.121C35.3611 122.187 35.5478 122.229 35.6919 122.253C35.7637 122.265 35.8281 122.274 35.8835 122.279C35.9228 122.282 35.9982 122.287 36.0738 122.277C36.5701 122.208 36.794 121.883 36.8915 121.68L36.8915 121.68L36.8938 121.675C37.0255 121.394 37.0356 121.126 36.9837 120.895L36.983 120.892C36.9097 120.574 36.7094 120.29 36.3805 120.101L36.3773 120.099C36.1979 119.998 35.9702 119.931 35.7739 119.883L35.7689 119.882C35.7243 119.872 35.681 119.864 35.6466 119.857C35.6085 119.85 35.5832 119.846 35.5578 119.841C35.5436 119.838 35.5335 119.836 35.5266 119.834C35.0705 119.561 34.6305 119.266 34.177 118.962C34.1096 118.917 34.0419 118.872 33.9739 118.826L33.9729 118.825C32.225 117.662 30.6431 116.337 29.0771 114.907L29.0771 114.907C28.6562 114.522 28.2336 114.139 27.8107 113.755C23.177 109.549 18.5116 105.315 15.7103 99.7832L15.7102 99.7831C15.4474 99.2644 14.8116 99.0499 14.2871 99.3123C13.7605 99.5738 13.5529 100.212 13.8147 100.734L13.8156 100.736C16.7849 106.601 21.7194 111.083 26.4538 115.384C26.8526 115.746 27.2501 116.107 27.6448 116.467L27.6448 116.467C28.3599 117.12 29.0829 117.756 29.8261 118.369C27.3315 117.714 24.4152 117.06 21.6714 116.75C20.0176 116.563 18.4123 116.505 16.9795 116.64C15.5521 116.776 14.2599 117.106 13.2607 117.724L13.2606 117.724C7.28063 121.423 4.43208 127.687 6.45395 133.07L6.45402 133.07C6.59359 133.441 6.75044 133.807 6.9247 134.165C2.36943 135.598 -0.416883 140.026 0.409384 144.832ZM0.409384 144.832C0.409362 144.832 0.409339 144.831 0.409317 144.831L0.902203 144.747M0.409384 144.832C0.409402 144.832 0.409419 144.832 0.409437 144.832L0.902203 144.747M0.902203 144.747C0.114177 140.165 2.78615 135.949 7.15638 134.616L9.57754 137.024C9.09391 136.553 8.65975 136.036 8.27551 135.485C3.98846 136.366 1.27277 140.278 2.00921 144.561C2.06123 144.866 1.85591 145.154 1.55009 145.206C1.24485 145.257 0.954226 145.052 0.902203 144.747Z" fill="#303030" stroke="black"/>
</g>
<defs>
<clipPath id="clip0_4926_6147">
<rect width="146" height="155" fill="white"/>
</clipPath>
</defs>
</svg>
