<svg width="187" height="151" viewBox="0 0 187 151" fill="none" xmlns="http://www.w3.org/2000/svg">
<g clip-path="url(#clip0_4404_4993)">
<path d="M149.287 27.5041C148.316 38.1602 145.548 49.3963 141.208 60.2377C135.841 73.6446 128.508 85.4533 120.001 94.3872L119.529 93.9774C127.994 85.0864 135.294 73.3299 140.639 59.9785C145.469 47.9131 148.343 35.3572 148.952 23.6738L149.555 23.7744C149.491 25.0083 149.402 26.2515 149.287 27.5041Z" fill="#F2F2F2"/>
<path d="M153.156 89.3927C141.208 108.317 126.713 121.838 112.341 127.466L112.05 126.935C126.323 121.346 140.733 107.894 152.626 89.0566L153.156 89.3927Z" fill="#F2F2F2"/>
<path d="M148.997 40.7717C148.026 51.4277 145.258 62.6639 140.918 73.5053C135.551 86.9122 128.218 98.7209 119.711 107.655L119.239 107.245C127.704 98.354 135.004 86.5975 140.349 73.2461C145.179 61.1807 148.053 48.6248 148.661 36.9414L149.265 37.042C149.201 38.2759 149.112 39.5191 148.997 40.7717Z" fill="#F2F2F2"/>
<path d="M14.8693 68.1293H7.03016C6.86268 68.1296 6.69729 68.0922 6.5464 68.0199C6.39551 67.9475 6.26304 67.8421 6.15892 67.7115C6.05606 67.5842 5.98349 67.4354 5.94666 67.2762C5.90983 67.117 5.90969 66.9515 5.94625 66.7923C6.69285 63.5125 6.64594 60.103 5.80941 56.8448C5.7565 56.6303 5.76929 56.4049 5.84614 56.1976C5.923 55.9904 6.06039 55.8108 6.24064 55.682C10.2715 52.7957 13.446 52.8795 15.6759 55.9314C15.7764 56.0705 15.8432 56.2309 15.871 56.4C16.4668 59.9661 16.4997 63.603 15.9687 67.1792C15.9318 67.4431 15.8001 67.6848 15.5979 67.8595C15.3958 68.0342 15.1369 68.13 14.8693 68.1293Z" fill="#E6E6E6"/>
<path d="M12.4386 60.3129H9.74194C9.59282 60.3129 9.4498 60.2539 9.34436 60.149C9.23892 60.044 9.17969 59.9016 9.17969 59.7531C9.17969 59.6047 9.23892 59.4623 9.34436 59.3573C9.4498 59.2523 9.59282 59.1934 9.74194 59.1934H12.4386C12.5875 59.1937 12.7302 59.2528 12.8354 59.3577C12.9406 59.4627 12.9997 59.6049 12.9997 59.7531C12.9997 59.9014 12.9406 60.0436 12.8354 60.1485C12.7302 60.2535 12.5875 60.3126 12.4386 60.3129Z" fill="white"/>
<path d="M12.4386 62.2778H9.74194C9.59282 62.2778 9.4498 62.2188 9.34436 62.1138C9.23892 62.0088 9.17969 61.8664 9.17969 61.718C9.17969 61.5695 9.23892 61.4271 9.34436 61.3222C9.4498 61.2172 9.59282 61.1582 9.74194 61.1582H12.4386C12.5875 61.1585 12.7302 61.2176 12.8354 61.3226C12.9406 61.4275 12.9997 61.5697 12.9997 61.718C12.9997 61.8662 12.9406 62.0084 12.8354 62.1134C12.7302 62.2183 12.5875 62.2774 12.4386 62.2778Z" fill="white"/>
<path d="M12.4386 64.2406H9.74194C9.59282 64.2406 9.4498 64.1817 9.34436 64.0767C9.23892 63.9717 9.17969 63.8293 9.17969 63.6809C9.17969 63.5324 9.23892 63.39 9.34436 63.285C9.4498 63.1801 9.59282 63.1211 9.74194 63.1211H12.4386C12.5875 63.1214 12.7302 63.1805 12.8354 63.2855C12.9406 63.3904 12.9997 63.5326 12.9997 63.6809C12.9997 63.8291 12.9406 63.9713 12.8354 64.0763C12.7302 64.1812 12.5875 64.2403 12.4386 64.2406Z" fill="white"/>
<path d="M157.337 102.975H149.498C149.33 102.975 149.165 102.938 149.014 102.866C148.863 102.793 148.731 102.688 148.627 102.557C148.524 102.43 148.451 102.281 148.414 102.122C148.378 101.963 148.377 101.797 148.414 101.638C149.161 98.3582 149.114 94.9487 148.277 91.6905C148.224 91.476 148.237 91.2506 148.314 91.0434C148.391 90.8361 148.528 90.6566 148.708 90.5277C152.739 87.6414 155.914 87.7252 158.144 90.7771C158.244 90.9162 158.311 91.0766 158.339 91.2457C158.935 94.8118 158.968 98.4487 158.436 102.025C158.4 102.289 158.268 102.531 158.066 102.705C157.864 102.88 157.605 102.976 157.337 102.975Z" fill="#E6E6E6"/>
<path d="M154.907 95.1606H152.21C152.062 95.1603 151.919 95.1011 151.814 94.9962C151.708 94.8913 151.649 94.7491 151.649 94.6008C151.649 94.4525 151.708 94.3103 151.814 94.2054C151.919 94.1004 152.062 94.0413 152.21 94.041H154.907C155.056 94.041 155.199 94.1 155.305 94.205C155.41 94.31 155.469 94.4523 155.469 94.6008C155.469 94.7493 155.41 94.8916 155.305 94.9966C155.199 95.1016 155.056 95.1606 154.907 95.1606Z" fill="white"/>
<path d="M154.907 97.1235H152.21C152.062 97.1232 151.919 97.064 151.814 96.9591C151.708 96.8541 151.649 96.712 151.649 96.5637C151.649 96.4154 151.708 96.2732 151.814 96.1683C151.919 96.0633 152.062 96.0042 152.21 96.0039H154.907C155.056 96.0039 155.199 96.0629 155.305 96.1679C155.41 96.2728 155.469 96.4152 155.469 96.5637C155.469 96.7122 155.41 96.8545 155.305 96.9595C155.199 97.0645 155.056 97.1235 154.907 97.1235Z" fill="white"/>
<path d="M154.907 99.0864H152.21C152.062 99.0861 151.919 99.0269 151.814 98.922C151.708 98.817 151.649 98.6748 151.649 98.5266C151.649 98.3783 151.708 98.2361 151.814 98.1312C151.919 98.0262 152.062 97.9671 152.21 97.9668H154.907C155.056 97.9668 155.199 98.0258 155.305 98.1308C155.41 98.2357 155.469 98.3781 155.469 98.5266C155.469 98.675 155.41 98.8174 155.305 98.9224C155.199 99.0274 155.056 99.0864 154.907 99.0864Z" fill="white"/>
<path d="M187 150.708C187 150.746 186.993 150.784 186.978 150.82C186.963 150.855 186.942 150.888 186.914 150.915C186.887 150.942 186.855 150.963 186.819 150.978C186.783 150.993 186.745 151 186.707 151H0.293317C0.215524 151 0.140921 150.969 0.0859136 150.915C0.0309062 150.86 0 150.785 0 150.708C0 150.631 0.0309062 150.556 0.0859136 150.502C0.140921 150.447 0.215524 150.416 0.293317 150.416H186.707C186.745 150.416 186.783 150.423 186.819 150.438C186.855 150.453 186.887 150.474 186.914 150.501C186.942 150.528 186.963 150.561 186.978 150.596C186.993 150.632 187 150.67 187 150.708Z" fill="#CCCCCC"/>
<path d="M49.1747 132.827L48.6858 126.057C45.4831 124.463 41.938 123.672 38.3584 123.752C43.3945 127.627 42.9911 135.373 46.4788 140.674C47.5794 142.319 49.0376 143.697 50.7455 144.704C52.4534 145.712 54.3672 146.324 56.345 146.495L60.5363 148.896C61.0157 145.741 60.8025 142.52 59.9112 139.455C59.02 136.39 57.472 133.554 55.3738 131.142C54.1833 129.801 52.8278 128.614 51.3394 127.61C50.4233 130.228 49.1747 132.827 49.1747 132.827Z" fill="#F2F2F2"/>
<path d="M137.826 133.81L138.315 127.04C141.517 125.446 145.063 124.654 148.642 124.734C143.606 128.61 144.01 136.355 140.522 141.657C139.421 143.302 137.963 144.679 136.255 145.687C134.547 146.694 132.633 147.307 130.656 147.478L126.464 149.878C125.985 146.724 126.198 143.503 127.089 140.438C127.981 137.373 129.529 134.537 131.627 132.125C132.817 130.783 134.173 129.597 135.661 128.592C136.577 131.211 137.826 133.81 137.826 133.81Z" fill="#F2F2F2"/>
<path d="M91.2818 57.4091C93.8683 57.4091 95.965 55.3216 95.965 52.7466C95.965 50.1715 93.8683 48.084 91.2818 48.084C88.6954 48.084 86.5986 50.1715 86.5986 52.7466C86.5986 55.3216 88.6954 57.4091 91.2818 57.4091Z" fill="#61AEF2"/>
<path d="M93.6857 50.8035C93.6153 50.7365 93.5216 50.6992 93.4243 50.6992C93.3269 50.6992 93.2333 50.7365 93.1628 50.8035C92.1691 51.5925 91.2766 52.5001 90.5053 53.506C90.3159 53.1412 90.1266 52.7765 89.9373 52.4117C89.7187 51.9907 89.0804 52.3626 89.2988 52.7833C89.5757 53.3168 89.8527 53.8503 90.1296 54.3838C90.163 54.4383 90.2099 54.4833 90.2658 54.5145C90.3217 54.5458 90.3848 54.5622 90.4489 54.5622C90.513 54.5622 90.576 54.5458 90.6319 54.5145C90.6878 54.4833 90.7347 54.4383 90.7681 54.3838C91.59 53.2314 92.5724 52.2011 93.6857 51.324C93.7545 51.2547 93.7931 51.1612 93.7931 51.0637C93.7931 50.9663 93.7545 50.8728 93.6857 50.8035Z" fill="white"/>
<path d="M70.3268 65.9686L63.2646 54.9267L71.4424 50.5664L73.5888 58.9908L88.7119 67.127C89.309 66.9131 89.9557 66.8767 90.5731 67.0224C91.1906 67.168 91.7522 67.4894 92.1893 67.9473C92.6265 68.4052 92.9204 68.9799 93.0352 69.6012C93.15 70.2226 93.0807 70.8637 92.8358 71.4465C92.5909 72.0294 92.181 72.5286 91.656 72.8835C91.1311 73.2384 90.5137 73.4335 89.8793 73.4451C89.2448 73.4568 88.6207 73.2843 88.083 72.9489C87.5453 72.6134 87.1172 72.1295 86.851 71.556L70.3268 65.9686Z" fill="#A0616A"/>
<path d="M58.1046 41.6828C55.8856 44.9264 63.7712 56.7165 63.7712 56.7165C64.1554 55.8921 67.8276 65.1499 68.4427 64.603C70.1908 63.0487 72.9272 58.7193 74.4483 58.5263C75.3182 58.4159 72.4309 52.2739 72.4309 52.2739C72.4309 52.2739 71.1113 48.647 69.3207 44.0141C68.8389 42.695 68.0296 41.5186 66.9683 40.5946C65.907 39.6706 64.6282 39.0289 63.2508 38.7293C63.2508 38.7293 60.3236 38.4392 58.1046 41.6828Z" fill="#3F3D56"/>
<path d="M58.2136 147.358L61.5675 147.358L63.163 134.479L58.2129 134.479L58.2136 147.358Z" fill="#A0616A"/>
<path d="M57.3574 146.27L58.3015 146.27L61.9871 144.777L63.9626 146.269H63.9628C65.0792 146.269 66.1498 146.711 66.9392 147.497C67.7286 148.283 68.1721 149.349 68.1722 150.46V150.596L57.3576 150.597L57.3574 146.27Z" fill="#2F2E41"/>
<path d="M73.7954 147.358L77.1493 147.358L78.7451 134.479L73.7949 134.479L73.7954 147.358Z" fill="#A0616A"/>
<path d="M72.9395 146.27L73.8835 146.27L77.5692 144.777L79.5446 146.269H79.5449C80.6612 146.269 81.7318 146.711 82.5212 147.497C83.3106 148.283 83.7541 149.349 83.7542 150.46V150.596L72.9396 150.597L72.9395 146.27Z" fill="#2F2E41"/>
<path d="M75.247 76.9453L53.4314 77.4883C49.2881 79.7288 49.2252 84.578 50.5828 90.3355C50.5828 90.3355 50.1245 93.7575 51.0411 94.67C51.9577 95.5826 52.4159 95.5826 51.9577 97.1795C51.4994 98.7765 53.9207 101.385 53.6266 101.678C53.3325 101.97 52.6451 103.567 52.6451 103.567L54.9365 116.571C54.9365 116.571 56.5406 139.157 56.9989 139.613C57.4571 140.069 57.9154 139.613 57.4571 140.754C56.9989 141.894 56.5406 141.438 56.9989 141.894C57.4048 142.33 57.7873 142.787 58.1446 143.263H63.6847C63.6847 143.263 64.1024 140.982 64.1024 140.754C64.1024 140.525 64.5606 139.157 64.5606 138.928C64.5606 138.7 64.1556 138.297 64.1556 138.297C64.0156 137.833 63.921 137.357 63.8732 136.875C63.8732 136.419 62.4983 118.852 62.4983 118.852L65.2481 96.0389L71.8933 118.396C71.8933 118.396 71.8933 138.016 72.3516 138.472C72.8099 138.928 72.8099 138.7 72.5807 139.613C72.3516 140.525 71.435 140.297 72.1224 140.982C72.8099 141.666 73.039 140.525 72.8099 141.666L72.5807 142.807L79.4551 142.905C79.4551 142.905 80.3717 140.982 79.9134 140.297C79.4551 139.613 79.4826 139.8 80.0417 138.68C80.6008 137.56 80.83 137.331 80.6008 137.103C80.3717 136.875 80.3717 135.662 80.3717 135.662L79.2259 113.833C79.2259 113.833 78.9968 90.7918 78.9968 90.1073C78.9795 89.7552 79.0447 89.4038 79.1871 89.081V88.152L78.3094 84.8602L75.247 76.9453Z" fill="#2F2E41"/>
<path d="M62.1415 31.7819C65.885 31.7819 68.9198 28.7606 68.9198 25.0335C68.9198 21.3065 65.885 18.2852 62.1415 18.2852C58.398 18.2852 55.3633 21.3065 55.3633 25.0335C55.3633 28.7606 58.398 31.7819 62.1415 31.7819Z" fill="#A0616A"/>
<path d="M65.5314 36.2428C66.9916 37.1071 67.8652 38.6952 68.3666 40.3112C69.295 43.303 69.8538 46.3963 70.0307 49.5227L70.5604 58.8825L77.12 78.8123C71.435 83.6014 50.066 79.9007 50.066 79.9007C50.066 79.9007 49.4101 79.683 50.066 79.0299C50.722 78.3769 51.3606 78.9555 50.7046 78.3024C50.0487 77.6493 50.5009 78.3769 50.7195 77.7238C50.9382 77.0707 50.7195 77.5061 50.5009 77.2884C50.2822 77.0707 52.1935 75.1115 52.1935 75.1115L50.4443 63.6717L48.2578 40.5966C50.8817 37.3312 56.1585 35.4063 56.1585 35.4063L57.522 32.9629L64.3394 33.5059L65.5314 36.2428Z" fill="#3F3D56"/>
<path d="M67.7291 21.4494C68.2559 21.8406 68.6462 22.3864 68.8451 23.01C68.9214 21.9909 68.9263 20.9676 68.8596 19.9478C68.7797 19.2311 68.2729 19.0699 67.6861 18.8832C67.1562 18.7144 66.5569 18.5238 66.3956 17.8281C64.2649 15.7644 60.5558 15.8685 58.0174 16.5883C56.6207 16.9844 55.817 17.4933 55.745 17.7915L55.7301 17.8529L55.6734 17.8811C54.5967 18.4171 54.3872 20.1095 54.401 21.4349C54.4272 23.932 55.2933 26.7681 55.7811 26.9985C55.807 27.0107 55.8135 27.006 55.8247 26.9967C56.5593 26.4122 57.4555 27.0411 57.8494 27.383C58.0817 25.831 58.8297 24.4012 59.9739 23.3221C61.1181 22.243 62.5925 21.5767 64.1617 21.4297C64.6742 21.3804 65.1825 21.2956 65.6831 21.1758C65.937 21.1104 66.198 21.0763 66.4603 21.0742C66.9118 21.0674 67.3546 21.1983 67.7291 21.4494Z" fill="#2F2E41"/>
<path d="M109.808 82.3227L122.847 69.1404L126.283 58.5973L120.754 56.3711C118.016 59.1213 115.197 67.5404 115.197 67.5404L106.297 79.432C106.226 79.4583 106.155 79.4861 106.086 79.5189C105.676 79.7115 105.323 80.0061 105.061 80.3742C104.799 80.7423 104.637 81.1714 104.59 81.6201C104.543 82.0688 104.614 82.5219 104.794 82.9356C104.975 83.3494 105.26 83.7097 105.621 83.9819C105.982 84.254 106.408 84.4288 106.857 84.4893C107.306 84.5497 107.763 84.4939 108.184 84.327C108.605 84.1602 108.976 83.8881 109.26 83.537C109.545 83.1859 109.734 82.7677 109.808 82.3227Z" fill="#FFB8B8"/>
<path d="M119.246 57.5765L126.237 59.59L126.263 59.585C128.833 59.0882 130.866 54.8364 132.118 51.3571C132.531 50.2095 132.49 48.949 132.004 47.8303C131.518 46.7116 130.624 45.8182 129.502 45.3307C128.672 44.9767 127.759 44.861 126.866 44.9965C125.974 45.132 125.137 45.5134 124.45 46.0977L120.965 49.0859L119.246 57.5765Z" fill="#61AEF2"/>
<path d="M113.264 146.968L109.504 146.967L107.716 132.529L113.265 132.53L113.264 146.968Z" fill="#FFB8B8"/>
<path d="M114.224 145.745L113.166 145.745L109.034 144.072L106.82 145.745H106.819C105.568 145.745 104.368 146.24 103.483 147.121C102.598 148.002 102.101 149.197 102.101 150.443V150.595L114.224 150.596L114.224 145.745Z" fill="#2F2E41"/>
<path d="M129.948 146.968L126.188 146.967L124.399 132.529L129.949 132.53L129.948 146.968Z" fill="#FFB8B8"/>
<path d="M130.907 145.745L129.848 145.745L125.717 144.072L123.502 145.745H123.502C122.25 145.745 121.05 146.24 120.165 147.121C119.28 148.002 118.783 149.197 118.783 150.443V150.595L130.906 150.596L130.907 145.745Z" fill="#2F2E41"/>
<path d="M135.68 84.7778C135.68 84.7778 136.119 90.0229 135.022 95.0494C133.924 100.076 133.924 114.232 133.924 114.232L131.51 141.818L124.266 141.162L122.29 95.0494L115.266 110.566L115.924 112.751L115.047 113.298C115.047 113.298 115.705 117.559 115.266 117.559C114.827 117.559 113.729 118.215 113.729 118.215L114.607 140.725L107.144 140.507L104.51 108.818L107.363 90.6785L107.583 87.1818L108.571 87.2223L109.074 85.7613L109.998 83.248L135.68 84.7778Z" fill="#2F2E41"/>
<path d="M136.06 85.8795L136.099 85.8248C138.188 82.9125 135.046 75.9142 134.572 74.8997L136.568 74.2547L136.119 70.4504L135.906 68.7543L137.431 67.2353L137.436 67.1974L138.314 59.5484L139.59 54.468C140.071 52.5474 140.03 50.534 139.472 48.6344C138.913 46.7348 137.856 45.0175 136.41 43.6587L133.46 40.8886L129.873 35.6055H124.09L122.107 39.3346C120.184 39.777 118.479 40.8768 117.287 42.4425C116.095 44.0083 115.493 45.9406 115.585 47.903L116.034 57.6834L114.275 69.8608L114.274 72.0646L112.294 74.2554L112.726 76.4076L111.219 77.0506L110.554 80.1418C110.278 80.5035 108.461 82.9162 108.461 83.5758C108.461 83.6749 108.534 83.7706 108.692 83.8768C109.931 84.7118 116.777 86.4141 119.806 85.207C123.034 83.9222 135.864 85.8496 135.993 85.8693L136.06 85.8795Z" fill="#61AEF2"/>
<path d="M126.235 33.8997C130.465 33.8997 133.894 30.4856 133.894 26.2741C133.894 22.0625 130.465 18.6484 126.235 18.6484C122.004 18.6484 118.575 22.0625 118.575 26.2741C118.575 30.4856 122.004 33.8997 126.235 33.8997Z" fill="#FFB8B8"/>
<path d="M125.501 34.0235C126.687 34.0115 127.87 33.8986 129.037 33.686C130.192 33.421 132.741 31.4589 133.435 30.2997C133.952 29.4384 134.261 28.1062 134.43 27.1404C134.659 25.8622 134.615 24.5505 134.301 23.2902C133.988 22.03 133.412 20.8494 132.611 19.8247C132.303 19.3955 131.883 19.0572 131.397 18.8459C131.354 18.8304 131.31 18.8168 131.266 18.8054C130.561 18.6401 129.923 18.2691 129.432 17.7398C129.336 17.6326 129.233 17.5325 129.124 17.44C128.573 17.001 127.926 16.698 127.235 16.5557C126.119 16.2888 124.522 16.6233 122.489 17.5506C121.468 18.0165 120.334 17.8865 119.461 17.7212C119.412 17.7131 119.362 17.7179 119.315 17.7351C119.268 17.7523 119.227 17.7814 119.195 17.8194C118.835 18.1744 118.353 18.3803 117.846 18.3957C117.535 18.4173 117.221 18.8537 116.841 19.4221C116.755 19.5511 116.655 19.7017 116.582 19.7935L116.567 19.621L116.397 19.8183C116.129 20.1284 115.944 20.501 115.859 20.9015C115.774 21.302 115.793 21.7173 115.913 22.1087C116.033 22.5002 116.25 22.855 116.545 23.1402C116.84 23.4254 117.202 23.6317 117.599 23.7399C117.913 23.8146 118.235 23.8572 118.558 23.8669C118.754 23.8794 118.956 23.8923 119.151 23.9208C119.776 24.0316 120.362 24.3019 120.851 24.7054C121.34 25.1088 121.715 25.6316 121.941 26.2227C121.994 26.3593 122.078 26.4818 122.186 26.581C122.295 26.6801 122.425 26.7531 122.566 26.7943C122.707 26.8356 122.856 26.844 123.001 26.8189C123.146 26.7938 123.283 26.7358 123.402 26.6495C123.6 26.4878 123.834 26.3762 124.084 26.3241C124.335 26.272 124.594 26.281 124.841 26.3503C125.055 26.4617 125.224 26.6431 125.32 26.864C125.436 27.1098 125.622 27.3158 125.856 27.4555C126.654 27.8392 126.754 29.6274 126.51 31.1264C126.275 32.5714 125.764 33.6255 125.266 33.6897C124.883 33.7391 124.84 33.7674 124.814 33.8357L124.791 33.8969L124.836 33.9524C125.05 34.0234 125.276 34.0477 125.501 34.0235Z" fill="#2F2E41"/>
<path d="M119.146 58.393L115.464 53.7227C111.714 54.7508 105.06 60.6558 105.06 60.6558L91.3942 66.5599C90.9381 66.4836 90.4699 66.5283 90.0366 66.6894C89.6033 66.8506 89.2204 67.1225 88.9262 67.4779C88.6321 67.8332 88.4372 68.2594 88.3611 68.7136C88.285 69.1678 88.3304 69.6339 88.4928 70.0651C88.6552 70.4962 88.9287 70.8772 89.286 71.1696C89.6433 71.462 90.0716 71.6556 90.5279 71.7308C90.9842 71.806 91.4523 71.7602 91.8852 71.5981C92.3181 71.4359 92.7004 71.163 92.9936 70.807L110.895 65.8348L119.146 58.393Z" fill="#FFB8B8"/>
<path d="M118.264 59.4606L124.073 53.0133L124.396 48.445C124.456 47.5479 124.263 46.652 123.838 45.8585C123.413 45.065 122.774 44.4055 121.993 43.9546C120.93 43.3505 119.676 43.1708 118.485 43.4519C117.294 43.7331 116.254 44.454 115.577 45.469C113.524 48.5489 111.316 52.7131 112.452 55.0609L112.464 55.0847L118.264 59.4606Z" fill="#61AEF2"/>
<path d="M64.7219 83.6928L49.6237 75.9944C48.5498 75.4468 48.194 73.9943 48.8307 72.7566L58.6751 53.6196C59.3118 52.3819 60.7035 51.8204 61.7774 52.368L76.8756 60.0665C77.9496 60.6141 78.3053 62.0665 77.6686 63.3042L67.8243 82.4413C67.1876 83.679 65.7959 84.2404 64.7219 83.6928Z" fill="#E6E6E6"/>
<path d="M62.1424 80.1531L51.8844 74.9227C50.8786 74.4098 50.5454 73.0496 51.1417 71.8904L59.3202 55.9916C59.9165 54.8325 61.2199 54.3067 62.2258 54.8196L74.6152 61.1369C75.6211 61.6497 75.9542 63.0099 75.3579 64.1691L70.9149 72.8062C68.2588 77.9694 66.6226 82.4375 62.1424 80.1531Z" fill="white"/>
<path d="M67.2139 71.4717L58.1282 66.839C58.0171 66.7602 57.9381 66.6442 57.9058 66.5123C57.8735 66.3803 57.8899 66.2412 57.9521 66.1204C58.0143 65.9995 58.1181 65.9049 58.2445 65.8539C58.3709 65.8029 58.5116 65.7989 58.6407 65.8426L67.7265 70.4753C67.8376 70.5541 67.9165 70.6701 67.9488 70.802C67.9811 70.934 67.9647 71.0731 67.9025 71.194C67.8403 71.3149 67.7365 71.4094 67.6101 71.4604C67.4837 71.5114 67.3431 71.5154 67.2139 71.4717Z" fill="#61AEF2"/>
<path d="M59.1889 69.865L57.1155 68.8078C57.0044 68.729 56.9254 68.613 56.8931 68.4811C56.8608 68.3491 56.8773 68.21 56.9394 68.0891C57.0016 67.9682 57.1054 67.8737 57.2318 67.8227C57.3583 67.7717 57.4989 67.7676 57.6281 67.8113L59.7015 68.8686C59.8126 68.9474 59.8915 69.0633 59.9238 69.1953C59.9561 69.3272 59.9397 69.4664 59.8775 69.5872C59.8153 69.7081 59.7116 69.8027 59.5851 69.8537C59.4587 69.9047 59.3181 69.9087 59.1889 69.865Z" fill="#61AEF2"/>
<path d="M61.8486 73.7063L56.1028 70.7765C55.9917 70.6977 55.9128 70.5818 55.8804 70.4498C55.8481 70.3179 55.8646 70.1788 55.9267 70.0579C55.9889 69.937 56.0927 69.8424 56.2191 69.7914C56.3456 69.7404 56.4862 69.7364 56.6154 69.7801L62.3612 72.7098C62.4723 72.7886 62.5512 72.9046 62.5835 73.0365C62.6158 73.1685 62.5994 73.3076 62.5372 73.4285C62.475 73.5494 62.3712 73.6439 62.2448 73.695C62.1184 73.746 61.9777 73.75 61.8486 73.7063Z" fill="#61AEF2"/>
<path d="M70.8086 64.4815L61.7229 59.8488C61.6118 59.77 61.5329 59.654 61.5006 59.5221C61.4682 59.3901 61.4847 59.251 61.5468 59.1301C61.609 59.0092 61.7128 58.9147 61.8392 58.8637C61.9657 58.8127 62.1063 58.8087 62.2355 58.8523L71.3212 63.4851C71.4323 63.5639 71.5112 63.6799 71.5435 63.8118C71.5758 63.9437 71.5594 64.0829 71.4972 64.2037C71.4351 64.3246 71.3313 64.4192 71.2048 64.4702C71.0784 64.5212 70.9378 64.5252 70.8086 64.4815Z" fill="#61AEF2"/>
<path d="M62.7836 62.8748L60.7102 61.8176C60.5991 61.7387 60.5202 61.6228 60.4879 61.4908C60.4555 61.3589 60.472 61.2198 60.5342 61.0989C60.5963 60.978 60.7001 60.8834 60.8266 60.8324C60.953 60.7814 61.0936 60.7774 61.2228 60.8211L63.2962 61.8783C63.4073 61.9571 63.4862 62.0731 63.5186 62.2051C63.5509 62.337 63.5344 62.4761 63.4722 62.597C63.4101 62.7179 63.3063 62.8125 63.1799 62.8635C63.0534 62.9145 62.9128 62.9185 62.7836 62.8748Z" fill="#61AEF2"/>
<path d="M65.4433 66.7161L59.6975 63.7863C59.5864 63.7075 59.5075 63.5915 59.4752 63.4596C59.4428 63.3276 59.4593 63.1885 59.5215 63.0676C59.5836 62.9468 59.6874 62.8522 59.8139 62.8012C59.9403 62.7502 60.0809 62.7462 60.2101 62.7898L65.9559 65.7196C66.067 65.7984 66.1459 65.9144 66.1782 66.0463C66.2105 66.1783 66.1941 66.3174 66.1319 66.4383C66.0697 66.5591 65.9659 66.6537 65.8395 66.7047C65.7131 66.7557 65.5724 66.7597 65.4433 66.7161Z" fill="#61AEF2"/>
<path d="M52.2107 67.0319L48.7998 54.3897L57.9146 52.6719L57.4245 61.3494L69.4006 73.6266C70.0346 73.6008 70.6625 73.7592 71.2076 74.0825C71.7528 74.4058 72.1917 74.8801 72.4708 75.4474C72.7499 76.0148 72.8571 76.6508 72.7795 77.2778C72.7018 77.9048 72.4426 78.4957 72.0334 78.9786C71.6243 79.4615 71.0828 79.8154 70.4751 79.9972C69.8674 80.179 69.2197 80.1808 68.6109 80.0024C68.0022 79.8241 67.4587 79.4732 67.0468 78.9927C66.6349 78.5121 66.3723 77.9226 66.2911 77.2961L52.2107 67.0319Z" fill="#A0616A"/>
<path d="M47.867 40.2151C44.7731 42.6469 48.7441 56.2488 48.7441 56.2488C49.3589 55.5771 50.0734 65.5052 50.8249 65.1671C52.9607 64.2064 56.8753 60.8932 58.3845 61.1633C59.2476 61.3177 58.3434 54.5963 58.3434 54.5963C58.3434 54.5963 58.1771 50.7424 57.8645 45.7881C57.8022 44.3858 57.3846 43.022 56.6505 41.8236C55.9164 40.6253 54.8897 39.6313 53.6659 38.9342C53.6659 38.9342 50.9609 37.7834 47.867 40.2151Z" fill="#3F3D56"/>
<path d="M99.3468 95.0923L91.1078 91.2189C90.9315 91.1365 90.7764 91.0155 90.6539 90.8649C90.5313 90.7143 90.4447 90.538 90.4003 90.3493C90.3557 90.1647 90.3536 89.9724 90.3943 89.7869C90.4349 89.6014 90.5172 89.4275 90.635 89.2781C93.0216 86.2414 94.6604 82.6902 95.42 78.9092C95.4774 78.6197 95.6339 78.3589 95.8627 78.1714C96.0916 77.9839 96.3788 77.8812 96.6752 77.8809C100.877 77.8951 104.018 79.4226 106.009 82.4205C106.114 82.5765 106.184 82.7533 106.213 82.9388C106.242 83.1242 106.231 83.3138 106.179 83.4943C105.026 87.4511 103.271 91.2088 100.976 94.637C100.806 94.8962 100.547 95.0851 100.247 95.1688C99.9476 95.2525 99.6277 95.2253 99.3468 95.0923Z" fill="#E6E6E6"/>
<path d="M101.77 89.6596L95.4702 86.698C95.3134 86.6243 95.1925 86.4916 95.134 86.3292C95.0755 86.1668 95.0843 85.9878 95.1583 85.8318C95.2323 85.6758 95.3655 85.5554 95.5287 85.4972C95.6918 85.4389 95.8715 85.4476 96.0283 85.5213L102.328 88.4829C102.406 88.5194 102.475 88.5708 102.533 88.634C102.59 88.6973 102.635 88.7713 102.664 88.8517C102.693 88.9321 102.706 89.0175 102.702 89.1028C102.697 89.1881 102.676 89.2718 102.64 89.3491C102.603 89.4263 102.552 89.4957 102.488 89.5531C102.424 89.6105 102.35 89.6549 102.269 89.6837C102.189 89.7126 102.103 89.7253 102.017 89.7211C101.931 89.717 101.847 89.6961 101.77 89.6596Z" fill="white"/>
<path d="M102.748 87.5971L96.4487 84.6355C96.2919 84.5618 96.171 84.4291 96.1126 84.2667C96.0541 84.1042 96.0628 83.9253 96.1368 83.7693C96.2108 83.6133 96.344 83.4929 96.5072 83.4347C96.6703 83.3764 96.85 83.3851 97.0068 83.4588L103.306 86.4204C103.463 86.4941 103.584 86.6268 103.643 86.7892C103.701 86.9516 103.692 87.1306 103.618 87.2866C103.544 87.4426 103.411 87.563 103.248 87.6212C103.085 87.6795 102.905 87.6708 102.748 87.5971Z" fill="white"/>
<path d="M94.3309 22.8257L93.7444 22.8897C91.1299 12.6604 86.062 5.57369 79.0881 2.3955C70.2227 -1.64454 59.2602 1.06843 48.2199 10.0348C37.1236 19.0469 27.3005 33.2821 20.5602 50.1188L19.9912 49.8595C26.7611 32.9493 36.6346 18.6453 47.7931 9.58309C59.0076 0.475082 70.1939 -2.25778 79.2912 1.88805C86.4651 5.15731 91.6656 12.3975 94.3309 22.8257Z" fill="#F2F2F2"/>
<path d="M29.6352 36.1485C28.1017 39.3649 26.6431 42.697 25.2998 46.0523C17.5699 65.3608 13.6528 85.0799 13.9729 103.079L13.3687 103.015C13.0483 84.9488 16.9767 65.1618 24.7308 45.7931C26.0779 42.4283 27.5407 39.0867 29.0787 35.8613L29.6352 36.1485Z" fill="#F2F2F2"/>
<path d="M29.3452 49.4161C27.8117 52.6325 26.353 55.9646 25.0097 59.3199C17.2799 78.6284 13.3627 98.3475 13.6828 116.346L13.0787 116.282C12.7583 98.2163 16.6867 78.4293 24.4408 59.0606C25.7879 55.6959 27.2507 52.3543 28.7886 49.1289L29.3452 49.4161Z" fill="#F2F2F2"/>
<path d="M13.1083 54.2393C13.7761 53.2399 13.3808 51.8094 12.2254 51.044C11.0699 50.2787 9.59189 50.4684 8.92406 51.4678C8.25623 52.4672 8.65151 53.8978 9.80695 54.6631C10.9624 55.4284 12.4404 55.2387 13.1083 54.2393Z" fill="#CCCCCC"/>
<path d="M155.314 90.3311C155.982 89.3318 155.587 87.9012 154.431 87.1358C153.276 86.3705 151.798 86.5602 151.13 87.5596C150.462 88.559 150.858 89.9896 152.013 90.7549C153.168 91.5202 154.646 91.3305 155.314 90.3311Z" fill="#CCCCCC"/>
</g>
<defs>
<clipPath id="clip0_4404_4993">
<rect width="187" height="151" fill="white"/>
</clipPath>
</defs>
</svg>
