<svg width="162" height="155" viewBox="0 0 162 155" fill="none" xmlns="http://www.w3.org/2000/svg">
<g clip-path="url(#clip0_4926_6164)">
<path d="M87.6843 147.05C128.247 147.05 161.129 114.159 161.129 73.586C161.129 33.0123 128.247 0.121094 87.6843 0.121094C47.1223 0.121094 14.2402 33.0123 14.2402 73.586C14.2402 114.159 47.1223 147.05 87.6843 147.05Z" fill="#D9EDFF"/>
<path d="M127.42 3.87305H47.8988C44.9399 3.87305 42.1022 5.13006 40.0099 7.36769C37.9176 9.60533 36.7422 12.6402 36.7422 15.8046V112.717H36.8785V146.748C36.8784 148.062 37.1933 149.354 37.7929 150.501C38.3925 151.648 39.2569 152.611 40.3037 153.299C41.3504 153.988 42.5446 154.377 43.7722 154.431C44.9999 154.485 46.22 154.202 47.3162 153.608L83.9964 133.722C84.9958 133.187 86.0983 132.908 87.2163 132.908C88.3343 132.908 89.4368 133.187 90.4361 133.722L128.244 153.754C129.341 154.335 130.559 154.608 131.781 154.544C133.005 154.482 134.192 154.086 135.232 153.395C136.271 152.704 137.129 151.74 137.723 150.596C138.317 149.451 138.628 148.163 138.627 146.854L138.527 112.717V15.7715C138.519 12.622 137.347 9.60362 135.266 7.37464C133.185 5.14566 130.366 3.88704 127.42 3.87305Z" fill="#61AEF2"/>
<path fill-rule="evenodd" clip-rule="evenodd" d="M112.027 118.768L49.2088 152.531L48.0254 150.327L110.844 116.564L112.027 118.768Z" fill="black"/>
<path d="M87.6848 90.7804C107.534 90.7804 123.625 74.6847 123.625 54.8296C123.625 34.9746 107.534 18.8789 87.6848 18.8789C67.8353 18.8789 51.7441 34.9746 51.7441 54.8296C51.7441 74.6847 67.8353 90.7804 87.6848 90.7804Z" fill="black"/>
<path fill-rule="evenodd" clip-rule="evenodd" d="M87.3714 25.7568C76.3519 25.7568 66.8785 32.3903 62.7299 41.8882C62.4535 42.521 61.7165 42.8099 61.0838 42.5334C60.4512 42.2568 60.1625 41.5197 60.4389 40.8869C64.971 30.511 75.3227 23.2559 87.3714 23.2559C88.0619 23.2559 88.6215 23.8157 88.6215 24.5063C88.6215 25.1969 88.0619 25.7568 87.3714 25.7568Z" fill="white"/>
<path d="M89.5472 34.4614L94.6021 45.1776C94.752 45.4952 94.9735 45.7701 95.2475 45.9784C95.5214 46.1868 95.8396 46.3223 96.1746 46.3736L107.473 48.0785C107.856 48.1399 108.215 48.3111 108.51 48.5732C108.806 48.8353 109.025 49.178 109.145 49.563C109.265 49.948 109.281 50.3604 109.19 50.7541C109.099 51.1479 108.905 51.5075 108.631 51.7929L100.466 60.1318C100.224 60.3791 100.042 60.6846 99.938 61.0218C99.8333 61.359 99.8082 61.7178 99.8665 62.0671L101.797 73.8417C101.864 74.2443 101.821 74.658 101.674 75.0364C101.527 75.4148 101.281 75.743 100.965 75.9835C100.65 76.223 100.276 76.366 99.8866 76.3952C99.4972 76.4244 99.1078 76.3388 98.7627 76.1486L88.6562 70.5769C88.3562 70.4123 88.0224 70.3262 87.6835 70.3262C87.3447 70.3262 87.011 70.4123 86.7109 70.5769L76.6046 76.1486C76.2593 76.3378 75.8703 76.4223 75.4815 76.3932C75.0927 76.363 74.7196 76.22 74.4043 75.9805C74.089 75.7399 73.8441 75.4128 73.6973 75.0354C73.5504 74.657 73.5074 74.2443 73.5731 73.8417L75.5006 62.0671C75.5586 61.7178 75.5341 61.359 75.4296 61.0218C75.325 60.6846 75.1435 60.3791 74.9007 60.1318L66.7362 51.7929C66.4616 51.5075 66.2682 51.1479 66.1775 50.7541C66.0867 50.3604 66.1021 49.948 66.2221 49.563C66.3421 49.178 66.5618 48.8353 66.857 48.5732C67.152 48.3111 67.5108 48.1399 67.8934 48.0785L79.1924 46.3624C79.5276 46.3113 79.8457 46.1756 80.1196 45.9673C80.3935 45.759 80.615 45.4841 80.765 45.1664L85.8199 34.4503C85.9958 34.0908 86.2633 33.7895 86.5928 33.5793C86.9223 33.3693 87.3009 33.2587 87.6868 33.2598C88.0727 33.261 88.4507 33.3738 88.7791 33.5859C89.1074 33.7979 89.3732 34.101 89.5472 34.4614Z" fill="url(#paint0_linear_4926_6164)"/>
<g filter="url(#filter0_f_4926_6164)">
<path d="M87.4578 101.628C105.457 101.628 120.048 98.5 120.048 94.6419C120.048 90.7838 105.457 87.6562 87.4578 87.6562C69.4585 87.6562 54.8672 90.7838 54.8672 94.6419C54.8672 98.5 69.4585 101.628 87.4578 101.628Z" fill="#6B6B6B" fill-opacity="0.39"/>
</g>
<path fill-rule="evenodd" clip-rule="evenodd" d="M23.342 132.629C21.4031 135.128 20.2474 137.849 18.8995 140.657C18.6363 141.206 18.8687 141.863 19.4167 142.127C19.9651 142.39 20.624 142.158 20.8874 141.61C22.1655 138.946 23.2435 136.35 25.0846 133.978C25.4572 133.498 25.3692 132.806 24.8874 132.435C24.4076 132.061 23.7142 132.149 23.342 132.629Z" fill="black"/>
<path fill-rule="evenodd" clip-rule="evenodd" d="M19.8786 124.576C13.2835 126.766 6.415 130.303 0.853851 134.485C0.368526 134.851 0.271728 135.542 0.638693 136.026C1.00567 136.51 1.69663 136.609 2.18195 136.243C7.55921 132.199 14.202 128.779 20.5781 126.664C21.1549 126.471 21.4662 125.847 21.2729 125.273C21.0795 124.697 20.4554 124.384 19.8786 124.576Z" fill="black"/>
<path fill-rule="evenodd" clip-rule="evenodd" d="M20.7701 119.378C16.7917 116.762 11.8317 115.999 7.17124 115.967C6.56234 115.965 6.06665 116.454 6.06447 117.059C6.06114 117.667 6.5529 118.162 7.1603 118.167C11.4054 118.195 15.9375 118.832 19.5611 121.214C20.0694 121.548 20.7532 121.407 21.086 120.902C21.4193 120.396 21.278 119.712 20.7701 119.378Z" fill="black"/>
<path d="M153.002 18.8797C155.074 18.8797 156.753 17.2002 156.753 15.1283C156.753 13.0565 155.074 11.377 153.002 11.377C150.931 11.377 149.252 13.0565 149.252 15.1283C149.252 17.2002 150.931 18.8797 153.002 18.8797Z" fill="#E3E3E3"/>
</g>
<defs>
<filter id="filter0_f_4926_6164" x="34.1766" y="66.9657" width="106.563" height="55.3519" filterUnits="userSpaceOnUse" color-interpolation-filters="sRGB">
<feFlood flood-opacity="0" result="BackgroundImageFix"/>
<feBlend mode="normal" in="SourceGraphic" in2="BackgroundImageFix" result="shape"/>
<feGaussianBlur stdDeviation="10.3453" result="effect1_foregroundBlur_4926_6164"/>
</filter>
<linearGradient id="paint0_linear_4926_6164" x1="66.1191" y1="33.1905" x2="109.569" y2="67.9422" gradientUnits="userSpaceOnUse">
<stop stop-color="#E1DCEB"/>
<stop offset="1" stop-color="#B3AFBA"/>
</linearGradient>
<clipPath id="clip0_4926_6164">
<rect width="162" height="155" fill="white"/>
</clipPath>
</defs>
</svg>
