<svg width="521" height="346" viewBox="0 0 521 346" fill="none" xmlns="http://www.w3.org/2000/svg">
<g clip-path="url(#clip0_4385_3656)">
<path d="M263.935 97.2471C259.289 89.5629 253.785 81.3585 245.164 78.8494C235.18 75.9436 224.925 81.7159 216.226 87.412C190.21 104.447 165.157 122.908 141.181 142.711L141.207 143.009C159.873 141.722 178.54 140.435 197.206 139.147C210.693 138.217 224.643 137.158 236.561 130.778C241.084 128.356 245.493 125.122 250.617 124.897C256.985 124.617 262.536 129.064 266.899 133.711C292.708 161.196 300.176 203.228 329.13 227.377C310.872 182.344 289.072 138.832 263.935 97.2471Z" fill="#F2F2F2"/>
<path d="M422.573 330.374C419.719 326.77 418.553 325.926 415.738 322.288C392.816 292.638 371.271 261.986 351.103 230.333C337.404 208.835 324.384 186.924 312.044 164.601C306.169 153.988 300.455 143.292 294.902 132.513C290.594 124.155 286.381 115.747 282.264 107.289C281.087 104.873 279.943 102.446 278.805 100.013C276.123 94.2933 273.491 88.5454 270.664 82.903C267.444 76.4721 263.524 69.73 257.61 65.4094C254.918 63.3624 251.7 62.1238 248.331 61.8385C243.516 61.5275 239.074 63.5157 234.898 65.6871C204.347 81.6202 175.744 101.596 149.874 124.327C123.937 147.109 100.753 172.846 80.796 201.016C80.1855 201.888 78.7416 201.055 79.3579 200.177C81.7846 196.745 84.2593 193.35 86.7821 189.992C118.152 148.266 156.615 112.384 200.415 83.986C207.784 79.2099 215.292 74.6579 222.938 70.3298C226.791 68.1473 230.662 65.9925 234.599 63.971C238.458 61.9884 242.556 60.2057 246.965 60.1391C261.969 59.9059 269.737 76.8997 275.073 88.3344C276.75 91.9331 278.448 95.5207 280.165 99.0971C286.656 112.676 293.398 126.13 300.389 139.46C304.703 147.691 309.112 155.873 313.616 164.007C327.631 189.337 342.527 214.153 358.305 238.458C379.206 270.651 399.94 299.091 423.751 329.197C424.406 330.03 423.234 331.218 422.573 330.374Z" fill="#E4E4E4"/>
<path d="M148.391 115.937C147.519 114.965 146.653 113.993 145.775 113.021C138.857 105.369 131.433 97.8048 121.932 93.4174C117.401 91.2595 112.456 90.113 107.439 90.0576C102.252 90.0742 97.1827 91.4348 92.3907 93.3397C90.1251 94.245 87.9094 95.2723 85.7273 96.3664C83.2339 97.6215 80.785 98.9599 78.3475 100.309C73.7719 102.842 69.2556 105.485 64.7986 108.24C55.9306 113.721 47.3404 119.621 39.0278 125.939C34.7187 129.216 30.4985 132.6 26.3672 136.091C22.5247 139.334 18.7599 142.664 15.0728 146.082C14.2843 146.809 13.1071 145.632 13.8955 144.904C14.8673 143.999 15.8501 143.099 16.833 142.211C19.6094 139.701 22.4303 137.239 25.2957 134.825C30.5207 130.415 35.881 126.176 41.3767 122.107C49.9226 115.776 58.7626 109.874 67.8969 104.402C72.4615 101.67 77.0888 99.0525 81.779 96.5497C83.1951 95.7944 84.6278 95.0558 86.077 94.356C89.3654 92.6971 92.7822 91.306 96.2942 90.1964C101.269 88.5868 106.533 88.0697 111.726 88.6803C116.74 89.4097 121.57 91.0811 125.963 93.6063C135.292 98.8211 142.527 106.885 149.568 114.754C150.279 115.554 149.107 116.737 148.391 115.937Z" fill="#E4E4E4"/>
<path d="M339.533 195.24L361.887 187.063L372.985 183.003C376.6 181.681 380.206 180.176 383.943 179.229C387.19 178.301 390.638 178.345 393.861 179.355C396.735 180.419 399.365 182.05 401.596 184.151C403.876 186.25 405.996 188.515 407.941 190.928C410.358 193.832 412.738 196.767 415.13 199.692C425 211.764 434.805 223.888 444.545 236.065C454.286 248.241 463.961 260.47 473.572 272.749C483.205 285.059 492.773 297.421 502.274 309.834C503.438 311.354 504.601 312.876 505.763 314.398C506.405 315.239 507.852 314.41 507.201 313.557C497.63 301.019 487.992 288.533 478.287 276.098C468.558 263.633 458.763 251.221 448.9 238.862C439.037 226.503 429.107 214.198 419.111 201.946C416.621 198.894 414.126 195.845 411.628 192.8C409.52 190.23 407.436 187.634 405.125 185.243C400.881 180.854 395.58 176.975 389.234 176.87C385.503 176.808 381.892 177.992 378.425 179.246C374.688 180.598 370.96 181.976 367.228 183.341L344.718 191.575L339.09 193.634C338.091 193.999 338.523 195.61 339.533 195.24Z" fill="#E4E4E4"/>
<path d="M118.99 103.046C107.63 97.2064 93.0824 98.3501 82.6436 105.645C102.555 109.081 122.248 113.678 141.623 119.412C133.577 114.697 127.284 107.309 118.99 103.046Z" fill="#F2F2F2"/>
<path d="M82.5316 105.625L80.3447 107.403C81.0845 106.781 81.8535 106.197 82.6434 105.645C82.6061 105.639 82.5689 105.631 82.5316 105.625Z" fill="#F2F2F2"/>
<path d="M400.754 195.322C398.554 192.643 396.175 189.838 392.883 188.75L389.811 188.871C413.202 230.21 444.794 266.332 482.648 295.019C455.35 261.787 428.052 228.554 400.754 195.322Z" fill="#F2F2F2"/>
<path d="M209.67 173.223C211.092 178.39 214.296 182.887 218.714 185.919C220.423 187.083 222.444 188.198 223.028 190.181C223.335 191.445 223.146 192.778 222.499 193.907C221.853 195.02 221.067 196.047 220.16 196.961L220.077 197.271C215.838 194.758 211.805 191.58 209.464 187.244C207.122 182.908 206.795 177.225 209.67 173.223Z" fill="#F2F2F2"/>
<path d="M350.803 296.199C352.225 301.366 355.429 305.864 359.847 308.896C361.555 310.059 363.576 311.175 364.161 313.157C364.468 314.421 364.279 315.755 363.632 316.883C362.986 317.997 362.2 319.023 361.293 319.937L361.21 320.247C356.971 317.735 352.938 314.557 350.596 310.221C348.255 305.884 347.928 300.201 350.803 296.199Z" fill="#F2F2F2"/>
<path d="M69.1429 287.719C70.5649 292.886 73.7685 297.383 78.187 300.415C79.8952 301.579 81.9163 302.695 82.5007 304.677C82.8081 305.941 82.6187 307.274 81.9715 308.403C81.3255 309.516 80.5395 310.543 79.6326 311.457L79.5499 311.767C75.3108 309.254 71.2779 306.076 68.9362 301.74C66.5946 297.404 66.2677 291.721 69.1429 287.719Z" fill="#F2F2F2"/>
<path d="M393.264 61.7913C410.325 61.7913 424.156 47.9589 424.156 30.8957C424.156 13.8325 410.325 0 393.264 0C376.203 0 362.372 13.8325 362.372 30.8957C362.372 47.9589 376.203 61.7913 393.264 61.7913Z" fill="#61AEF2"/>
<path d="M449.011 7.19019C434.04 5.16626 416.947 13.2595 413.067 27.8621C412.089 25.2658 410.311 23.0476 407.99 21.5279C405.669 20.0083 402.925 19.266 400.155 19.4082C397.384 19.5503 394.731 20.5697 392.578 22.3189C390.424 24.0682 388.883 26.4568 388.176 29.1396L389.89 30.3673C421.973 37.3063 455.185 37.1561 487.204 29.9273C476.79 18.9812 463.983 9.21408 449.011 7.19019Z" fill="#F0F0F0"/>
<path d="M384.805 48.3855C369.834 46.3616 352.741 54.4548 348.861 69.0574C347.883 66.4611 346.105 64.2429 343.784 62.7233C341.463 61.2036 338.719 60.4613 335.949 60.6035C333.178 60.7456 330.525 61.765 328.372 63.5142C326.218 65.2635 324.677 67.6521 323.97 70.3349L325.684 71.5626C357.767 78.5016 390.979 78.3514 422.998 71.1226C412.584 60.1765 399.777 50.4094 384.805 48.3855Z" fill="#F0F0F0"/>
<path d="M515.476 56.1739C515.414 56.174 515.352 56.1644 515.293 56.1455C355.136 5.48983 213.98 12.1139 123.767 26.591C111.49 28.5604 99.1799 30.8351 87.1791 33.3524C84.1153 33.9942 80.9367 34.6823 77.7318 35.3987C73.9044 36.2512 70.1278 37.1291 66.5065 38.0071C64.9425 38.3774 63.4091 38.7507 61.9062 39.127C59.6297 39.689 57.3198 40.2747 54.8437 40.9183C52.0768 41.6318 49.2656 42.3801 46.4863 43.1427C46.4761 43.1463 46.4658 43.1493 46.4552 43.1516L46.4555 43.1522C43.3163 44.0094 40.1936 44.8915 37.1739 45.7724C35.5395 46.2445 33.9613 46.7101 32.4497 47.1698C32.2808 47.2165 32.1312 47.2614 31.9794 47.3076L31.6547 47.4064C31.4666 47.4638 31.2809 47.52 31.0951 47.5732L31.0833 47.5768L31.0836 47.5774L30.592 47.73C30.0058 47.9075 29.4338 48.0808 28.8713 48.2536C14.0039 52.8373 5.83078 56.0982 5.75004 56.1301C5.67621 56.1597 5.59727 56.1745 5.51773 56.1736C5.43819 56.1727 5.35961 56.1561 5.28647 56.1248C5.21333 56.0935 5.14707 56.0482 5.09147 55.9913C5.03587 55.9344 4.99202 55.8671 4.96243 55.7932C4.93283 55.7194 4.91807 55.6404 4.91899 55.5609C4.9199 55.4813 4.93647 55.4027 4.96775 55.3296C4.99903 55.2565 5.04441 55.1902 5.10129 55.1346C5.15818 55.079 5.22546 55.0351 5.2993 55.0055C5.38063 54.9736 13.5937 51.6961 28.5152 47.0952C29.0798 46.9219 29.6533 46.7486 30.2412 46.5705L30.6979 46.4285C30.7136 46.4226 30.7292 46.4179 30.7452 46.4131C30.9301 46.3605 31.1146 46.3043 31.3021 46.2475L31.6275 46.1487C31.7896 46.0996 31.9493 46.0511 32.1128 46.0061C33.6141 45.5494 35.1976 45.0826 36.8362 44.6088C39.8571 43.7273 42.9827 42.8452 46.1243 41.9868C46.134 41.9832 46.1441 41.9809 46.1539 41.9779C48.9429 41.213 51.7645 40.461 54.5402 39.7452C57.0202 39.101 59.3345 38.5141 61.6148 37.9509C63.1241 37.5752 64.6605 37.2011 66.224 36.8286C69.8495 35.9495 73.6337 35.0704 77.468 34.2161C80.6779 33.4991 83.8618 32.8093 86.9306 32.1668C98.9501 29.6454 111.279 27.3672 123.575 25.3948C213.918 10.8971 355.276 4.26224 515.658 54.9907C515.796 55.0342 515.914 55.1257 515.99 55.2485C516.066 55.3714 516.096 55.5175 516.074 55.6604C516.052 55.8034 515.98 55.9337 515.87 56.0279C515.76 56.1221 515.621 56.1739 515.476 56.1739Z" fill="#CCCCCC"/>
<path d="M159.298 254.338C159.088 253.724 158.735 253.17 158.268 252.72C158.096 252.56 157.909 252.416 157.711 252.29C156.13 251.236 153.768 251 152.266 252.29C152.114 252.421 151.974 252.565 151.848 252.72C151.399 253.271 150.939 253.81 150.467 254.338C149.691 255.222 148.898 256.076 148.068 256.906C147.832 257.136 147.595 257.373 147.353 257.603C147.214 257.742 147.075 257.875 146.935 258.009C146.402 258.518 145.857 259.008 145.306 259.493C145.015 259.753 144.724 260.008 144.428 260.256C143.985 260.626 143.543 260.995 143.095 261.353C143.053 261.383 143.01 261.413 142.968 261.45C142.956 261.456 142.95 261.468 142.937 261.474C142.931 261.474 142.925 261.474 142.919 261.486C142.903 261.492 142.888 261.503 142.877 261.516C142.744 261.607 142.653 261.668 142.586 261.722C142.61 261.71 142.635 261.692 142.659 261.68C142.55 261.765 142.435 261.849 142.326 261.934C141.266 262.716 140.181 263.467 139.073 264.17C136.33 265.925 133.45 267.455 130.46 268.743C130.26 268.822 130.054 268.907 129.848 268.986C122.019 272.194 113.526 273.445 105.104 272.633C104.244 272.566 103.384 272.475 102.524 272.36C101.53 272.215 100.543 272.039 99.5617 271.839C95.826 271.094 92.1707 269.99 88.6466 268.543C84.2383 266.524 80.0455 264.065 76.1324 261.201C75.5267 260.771 74.9149 260.341 74.3031 259.923C74.9997 258.215 75.6842 256.506 76.3505 254.786C76.6836 253.956 77.0047 253.126 77.3196 252.29C79.7971 245.85 82.123 239.35 84.3521 232.826C86.6053 226.216 88.7314 219.569 90.7303 212.883C90.9363 212.204 91.1362 211.526 91.33 210.847C92.3779 207.316 93.3834 203.776 94.3465 200.228C94.4373 199.882 94.5342 199.543 94.619 199.198C94.8977 198.18 95.1702 197.162 95.4368 196.145C96.0425 193.849 94.6736 191.104 92.2628 190.553C91.1021 190.255 89.8711 190.42 88.8294 191.012C87.7876 191.604 87.0163 192.578 86.678 193.728C86.4176 194.709 86.1571 195.684 85.8906 196.666C84.6125 201.409 83.2678 206.136 81.8565 210.847C81.6506 211.526 81.4446 212.204 81.2387 212.883C78.1253 223.145 74.707 233.304 70.9838 243.36C70.5356 244.578 70.0813 245.792 69.6209 247.001C69.3968 247.595 69.1727 248.189 68.9425 248.782C68.5003 249.952 68.0461 251.121 67.5918 252.29C67.3313 252.974 67.0648 253.659 66.7983 254.338C66.6226 254.768 66.453 255.198 66.2834 255.622C64.5564 255.002 62.7671 254.571 60.947 254.338L60.6562 254.301C59.2452 254.131 57.8181 254.144 56.4101 254.338C54.3029 254.583 52.2753 255.289 50.4709 256.405C48.6664 257.521 47.1291 259.02 45.9675 260.795C43.0782 265.345 43.1146 271.851 47.1668 275.716C51.3402 279.696 57.6579 279.666 62.5703 277.176C65.1736 275.768 67.3686 273.71 68.9425 271.203C69.5455 270.294 70.0995 269.354 70.6022 268.386C70.7294 268.471 70.8566 268.556 70.9838 268.646C71.4684 268.986 71.953 269.331 72.4315 269.67C75.2196 271.69 78.1578 273.495 81.2205 275.068C87.8059 278.342 94.8946 280.486 102.191 281.411C102.354 281.429 102.512 281.453 102.675 281.471C103.481 281.574 104.292 281.653 105.104 281.72C116.747 282.597 128.405 280.214 138.77 274.838C139.648 274.383 140.519 273.907 141.381 273.408C142.719 272.633 144.028 271.809 145.306 270.936C146.002 270.464 146.681 269.985 147.353 269.482C150.291 267.318 153.03 264.895 155.536 262.243C156.487 261.244 157.398 260.212 158.268 259.148C159.091 258.277 159.565 257.134 159.601 255.937C159.596 255.39 159.494 254.848 159.298 254.338ZM58.9966 268.768C59.1238 268.677 59.251 268.58 59.3721 268.483C59.3358 268.574 59.1601 268.677 58.9966 268.768ZM60.9409 266.811C60.8016 266.968 60.6744 267.126 60.5351 267.283C60.1113 267.758 59.6559 268.203 59.1722 268.616C59.1056 268.677 59.0329 268.737 58.9602 268.792C58.9594 268.792 58.9586 268.792 58.9579 268.792C58.9571 268.793 58.9565 268.793 58.9559 268.794C58.9553 268.794 58.9549 268.795 58.9546 268.796C58.9543 268.796 58.9542 268.797 58.9542 268.798C58.8667 268.837 58.7817 268.882 58.6997 268.931C58.4393 269.089 58.1728 269.234 57.9002 269.367C57.3665 269.564 56.8175 269.716 56.2587 269.822C55.8293 269.853 55.3984 269.857 54.9685 269.834H54.9564C54.6597 269.768 54.3666 269.687 54.0781 269.591C53.9327 269.519 53.7934 269.434 53.6541 269.349C53.5996 269.301 53.5511 269.252 53.5208 269.222C53.4617 269.168 53.407 269.109 53.3573 269.046C53.3574 269.046 53.3572 269.045 53.3569 269.044C53.3566 269.043 53.3562 269.043 53.3556 269.042C53.355 269.041 53.3544 269.041 53.3536 269.041C53.3529 269.04 53.3521 269.04 53.3513 269.04C53.2846 268.919 53.2119 268.798 53.1453 268.677C53.1419 268.674 53.1397 268.669 53.1393 268.665C53.0908 268.513 53.0484 268.356 53.0121 268.198C52.9989 267.922 53.001 267.645 53.0181 267.368C53.0994 266.981 53.2087 266.601 53.3452 266.229C53.4679 265.966 53.6075 265.711 53.7632 265.466C53.7753 265.442 53.8359 265.345 53.9025 265.236C53.9086 265.23 53.9085 265.23 53.9085 265.224C53.9994 265.121 54.0903 265.012 54.1872 264.915C54.3507 264.733 54.5264 264.576 54.7021 264.412C55.0437 264.188 55.3976 263.984 55.7621 263.8C56.3403 263.595 56.9337 263.435 57.5368 263.322C58.4262 263.251 59.3201 263.259 60.2081 263.346C61.0491 263.492 61.8789 263.696 62.6915 263.958C62.199 264.913 61.6383 265.833 61.0137 266.708C60.9894 266.744 60.9652 266.781 60.9409 266.811ZM54.2053 264.818C54.152 264.903 54.089 264.983 54.0175 265.054C54.0656 264.965 54.1292 264.885 54.2053 264.818Z" fill="#3F3D56"/>
<path d="M141.09 192.467C141.035 194.37 140.98 196.272 140.926 198.174C140.811 202.396 140.692 206.621 140.569 210.847C140.441 215.603 140.308 220.356 140.169 225.108C140.102 227.561 140.034 230.015 139.963 232.468C139.775 239.077 139.589 245.685 139.406 252.29C139.387 252.974 139.363 253.653 139.345 254.337C139.254 257.615 139.163 260.892 139.072 264.169C138.969 267.726 138.869 271.282 138.77 274.838C138.697 277.503 138.622 280.171 138.545 282.84C138 302.183 137.455 321.526 136.91 340.87C136.887 342.067 136.401 343.21 135.554 344.057C134.707 344.904 133.565 345.39 132.367 345.413C131.165 345.403 130.015 344.922 129.166 344.072C128.316 343.222 127.834 342.072 127.824 340.87C128.127 329.989 128.434 319.109 128.745 308.229C129.017 298.391 129.294 288.553 129.575 278.715C129.666 275.474 129.756 272.231 129.847 268.986C129.987 264.103 130.124 259.22 130.259 254.337C130.277 253.653 130.302 252.974 130.32 252.29C130.332 251.69 130.35 251.096 130.368 250.497C130.635 241.016 130.901 231.533 131.168 222.048C131.277 218.317 131.382 214.583 131.483 210.847C131.604 206.588 131.725 202.332 131.846 198.077C131.901 196.205 131.949 194.339 132.004 192.467C132.027 191.27 132.513 190.127 133.36 189.28C134.207 188.433 135.349 187.947 136.547 187.924C137.748 187.934 138.898 188.415 139.748 189.265C140.598 190.115 141.08 191.265 141.09 192.467Z" fill="#3F3D56"/>
<path d="M390.301 193.729C385.537 211.77 379.844 229.552 373.243 247.004C371.422 251.818 369.558 256.622 367.567 261.369L368.025 260.283C367.135 262.544 366 264.7 364.639 266.712C364.546 266.842 364.452 266.97 364.356 267.097C364.827 266.496 364.916 266.377 364.624 266.741C364.47 266.923 364.318 267.105 364.159 267.283C363.735 267.758 363.28 268.204 362.797 268.618C362.675 268.722 362.552 268.824 362.426 268.923L362.995 268.482C362.929 268.637 362.466 268.844 362.322 268.932C361.855 269.213 361.368 269.46 360.865 269.67L361.95 269.212C361.126 269.544 360.266 269.78 359.387 269.915L360.595 269.753C359.732 269.872 358.857 269.881 357.992 269.781L359.199 269.943C358.491 269.845 357.798 269.659 357.137 269.387L358.222 269.845C357.869 269.692 357.529 269.51 357.205 269.302C357.041 269.195 356.536 268.813 357.196 269.317C357.883 269.842 357.285 269.362 357.143 269.223C357.026 269.107 356.919 268.981 356.804 268.863C356.27 268.315 357.408 269.806 357.045 269.165C356.85 268.843 356.673 268.512 356.513 268.173L356.971 269.258C356.762 268.742 356.614 268.203 356.53 267.652L356.692 268.86C356.605 268.175 356.605 267.482 356.69 266.797L356.528 268.005C356.639 267.241 356.841 266.492 357.13 265.776L356.672 266.861C356.874 266.379 357.113 265.914 357.386 265.469C357.512 265.239 357.659 265.021 357.827 264.82C357.857 264.829 357.059 265.736 357.482 265.278C357.593 265.158 357.697 265.032 357.809 264.914C357.988 264.723 358.18 264.55 358.369 264.37C359.002 263.767 357.484 264.955 358.214 264.478C358.743 264.13 359.3 263.826 359.879 263.57L358.794 264.028C359.764 263.629 360.781 263.357 361.82 263.216L360.612 263.378C361.913 263.229 363.228 263.244 364.525 263.425L363.318 263.263C364.961 263.512 366.566 263.963 368.098 264.607L367.013 264.149C370.277 265.551 373.169 267.632 376.055 269.673C378.843 271.692 381.78 273.496 384.842 275.068C391.427 278.343 398.517 280.488 405.813 281.413C416.277 282.695 426.896 281.329 436.694 277.439C446.493 273.549 455.158 267.26 461.894 259.149C462.716 258.277 463.19 257.134 463.225 255.936C463.216 254.733 462.739 253.581 461.894 252.724C460.228 251.194 457.079 250.762 455.47 252.724C453.944 254.586 452.304 256.352 450.559 258.011C449.745 258.784 448.908 259.533 448.05 260.258C447.56 260.672 447.063 261.078 446.56 261.476C446.321 261.665 445.579 262.166 446.719 261.357C446.458 261.542 446.207 261.745 445.949 261.935C442.134 264.748 438.001 267.099 433.634 268.941L434.719 268.483C430.033 270.449 425.111 271.798 420.078 272.495L421.285 272.333C416.107 273.014 410.862 273.006 405.686 272.31L406.894 272.472C401.719 271.761 396.658 270.382 391.837 268.37L392.922 268.828C388.271 266.77 383.856 264.212 379.756 261.201C377.623 259.621 375.372 258.204 373.025 256.964C370.29 255.567 367.329 254.667 364.28 254.305C358.562 253.632 352.736 255.859 349.593 260.8C346.7 265.346 346.738 271.851 350.789 275.717C354.961 279.699 361.279 279.665 366.195 277.175C370.931 274.776 373.775 269.793 375.775 265.094C380.276 254.52 384.261 243.701 387.974 232.827C391.647 222.07 394.979 211.203 397.968 200.227C398.338 198.868 398.703 197.507 399.062 196.145C399.668 193.85 398.298 191.105 395.889 190.556C394.728 190.257 393.496 190.421 392.454 191.013C391.411 191.605 390.639 192.579 390.301 193.729Z" fill="#3F3D56"/>
<path d="M435.629 192.467L433.994 250.499L432.367 308.227L431.447 340.87C431.457 342.072 431.939 343.222 432.789 344.071C433.639 344.921 434.788 345.403 435.99 345.414C437.188 345.39 438.33 344.904 439.177 344.057C440.024 343.21 440.51 342.068 440.533 340.87L442.168 282.839L443.795 225.11L444.715 192.467C444.704 191.265 444.223 190.116 443.373 189.266C442.523 188.416 441.374 187.934 440.172 187.924C438.974 187.947 437.832 188.433 436.985 189.28C436.138 190.127 435.652 191.27 435.629 192.467Z" fill="#3F3D56"/>
<path opacity="0.2" d="M278.384 324.667H279.795V260.428H312.703V259.021H279.795V231.914H305.208C304.836 231.441 304.452 230.973 304.058 230.511H279.795V212.608C279.328 212.409 278.858 212.217 278.384 212.036V230.511H250.732V207.572C250.258 207.594 249.791 207.627 249.321 207.666V230.511H227.261V213.396C226.787 213.606 226.32 213.827 225.857 214.058V230.511H207.312V231.914H225.857V259.021H207.312V260.428H225.857V324.667H227.261V260.428C230.158 260.427 233.027 260.997 235.703 262.106C238.38 263.215 240.812 264.84 242.861 266.889C244.91 268.937 246.534 271.37 247.643 274.047C248.751 276.724 249.322 279.593 249.321 282.491V324.667H250.732V260.428H278.384V324.667ZM227.261 259.021V231.914H249.321V259.021H227.261ZM250.732 259.021V231.914H251.285C254.844 231.915 258.368 232.616 261.656 233.978C264.944 235.341 267.931 237.337 270.448 239.854C272.964 242.371 274.96 245.36 276.322 248.648C277.684 251.937 278.384 255.461 278.384 259.021H250.732Z" fill="black"/>
<path d="M269.769 305.407C267.993 313.33 263.739 320.481 257.624 325.822C257.176 326.21 256.728 326.586 256.262 326.955C255.129 327.058 254.004 327.163 252.888 327.27C251.961 327.355 251.046 327.446 250.138 327.531L249.974 327.549L249.859 326.555L249.399 322.533C247.613 319.617 246.506 316.337 246.16 312.935C245.814 309.533 246.238 306.097 247.4 302.881C248.999 298.567 251.894 294.757 254.741 290.977C258.672 285.755 262.494 280.593 262.634 274.227C264.568 276.702 266.176 279.416 267.419 282.302C266.246 282.854 265.193 283.63 264.318 284.586C264.069 284.858 263.821 285.24 263.991 285.567C264.136 285.846 264.499 285.912 264.814 285.949C265.572 286.027 266.335 286.106 267.092 286.185C267.698 286.252 268.303 286.312 268.909 286.379C269.642 288.784 270.139 291.256 270.393 293.757C270.801 297.649 270.591 301.581 269.769 305.407Z" fill="#3F3D56"/>
<path d="M289.88 289.528C286.306 292.127 284.216 295.865 282.593 299.984C280.929 300.517 279.432 301.473 278.25 302.759C278.002 303.031 277.753 303.413 277.923 303.74C278.068 304.019 278.432 304.086 278.747 304.122C279.504 304.201 280.267 304.279 281.024 304.358C279.401 309.229 277.911 314.269 275.04 318.382C273.13 321.098 270.641 323.356 267.753 324.992C266.965 325.44 266.152 325.843 265.318 326.197C262.241 326.433 259.222 326.686 256.262 326.954C255.129 327.057 254.005 327.162 252.888 327.269C251.962 327.354 251.047 327.445 250.138 327.53C250.132 327.197 250.132 326.863 250.138 326.53C250.33 317.655 253.595 309.12 259.376 302.383C259.648 302.068 259.927 301.759 260.211 301.45C263.14 298.322 266.584 295.719 270.394 293.757C276.396 290.635 283.124 289.175 289.88 289.528Z" fill="#61AEF2"/>
<path d="M253.936 324.163L253.239 326.222L252.888 327.27C251.961 327.355 251.046 327.446 250.138 327.531L249.974 327.549C248.969 327.652 247.969 327.755 246.97 327.858C246.709 327.555 246.449 327.246 246.194 326.931C239.872 319.274 236.837 309.425 237.753 299.537C238.669 289.649 243.461 280.525 251.083 274.16C250.283 278.346 251.216 282.357 252.748 286.337C252.585 286.403 252.427 286.47 252.276 286.543C251.103 287.095 250.05 287.871 249.175 288.826C248.926 289.099 248.678 289.481 248.848 289.808C248.993 290.087 249.356 290.153 249.671 290.189C250.428 290.268 251.192 290.347 251.949 290.426C252.555 290.492 253.16 290.553 253.766 290.62C254.051 290.65 254.335 290.68 254.62 290.711C254.662 290.801 254.699 290.886 254.741 290.977C256.468 294.721 258.327 298.483 259.375 302.384C259.638 303.363 259.844 304.356 259.993 305.359C260.459 308.747 260.157 312.196 259.108 315.452C258.06 318.707 256.292 321.684 253.936 324.163Z" fill="#61AEF2"/>
<path d="M314.907 236.298C309.692 226.126 301.614 217.567 292.112 211.277C282.58 204.996 271.643 201.171 260.274 200.142C258.784 200.007 257.29 199.928 255.792 199.904C254.023 199.878 227.404 207.557 218.488 213.827C209.576 220.021 202.244 228.223 197.086 237.772C191.936 247.374 189.403 258.161 189.741 269.052C190.182 280.008 193.236 290.699 198.647 300.236C203.984 309.741 211.562 317.799 220.722 323.708C230.012 329.636 239.345 345.356 250.314 345.911C261.366 346.47 273.97 331.642 284.049 327.139C294.129 322.599 302.844 315.497 309.324 306.539C315.62 297.761 319.694 287.586 321.195 276.887C322.754 265.932 322.027 254.634 318.287 244.164C317.327 241.473 316.198 238.846 314.907 236.298C313.829 234.175 310.669 233.393 308.691 234.668C307.672 235.296 306.934 236.292 306.631 237.45C306.327 238.608 306.481 239.838 307.061 240.885C307.695 242.132 308.283 243.399 308.827 244.688L308.369 243.602C310.429 248.555 311.829 253.756 312.535 259.073L312.372 257.866C313.123 263.634 313.109 269.476 312.332 275.241L312.495 274.033C311.709 279.798 310.171 285.434 307.919 290.798L308.377 289.713C307.218 292.45 305.868 295.101 304.335 297.648C303.559 298.935 302.735 300.191 301.864 301.417C301.481 301.955 301.087 302.484 300.689 303.011C300.171 303.699 301.396 302.112 300.86 302.787C300.769 302.902 300.678 303.017 300.587 303.132C300.311 303.476 300.032 303.817 299.75 304.154C297.861 306.408 295.8 308.511 293.585 310.445C293.034 310.926 292.473 311.397 291.903 311.857C291.619 312.086 291.338 312.325 291.042 312.538C291.054 312.53 291.999 311.812 291.439 312.229C291.263 312.36 291.089 312.493 290.913 312.624C289.738 313.494 288.531 314.321 287.294 315.103C284.445 316.898 281.456 318.46 278.356 319.775L279.441 319.317C274.094 321.569 268.474 323.107 262.725 323.892L263.933 323.73C258.187 324.506 252.364 324.516 246.616 323.76L247.824 323.923C242.599 323.221 237.489 321.839 232.623 319.813L233.708 320.271C230.89 319.08 228.172 317.664 225.582 316.035C224.3 315.228 223.051 314.37 221.836 313.462C221.663 313.333 221.491 313.202 221.318 313.071C220.764 312.653 221.717 313.38 221.724 313.385C221.402 313.154 221.092 312.906 220.794 312.643C220.208 312.165 219.63 311.676 219.061 311.176C216.786 309.172 214.662 307.004 212.705 304.688C212.216 304.109 211.736 303.521 211.267 302.925C211.064 302.667 210.694 302.143 211.512 303.245C211.405 303.1 211.293 302.958 211.184 302.814C210.923 302.468 210.665 302.119 210.411 301.767C209.522 300.536 208.676 299.275 207.875 297.984C206.063 295.06 204.483 292 203.147 288.831L203.605 289.916C201.419 284.715 199.924 279.249 199.159 273.658L199.321 274.866C198.63 269.713 198.62 264.492 199.292 259.336L199.129 260.544C199.817 255.551 201.16 250.671 203.124 246.03L202.666 247.115C203.901 244.209 205.358 241.403 207.024 238.721C207.858 237.379 208.742 236.069 209.676 234.792C209.888 234.502 210.102 234.214 210.319 233.928C210.515 233.668 211.055 233.023 210.134 234.163C210.225 234.051 210.311 233.936 210.4 233.823C210.913 233.174 211.438 232.535 211.975 231.906C214.009 229.525 216.212 227.294 218.567 225.23C219.163 224.708 219.767 224.197 220.381 223.698C220.66 223.47 220.941 223.246 221.224 223.023C221.337 222.934 221.451 222.847 221.564 222.758C220.354 223.721 221.228 223.02 221.502 222.814C222.768 221.866 224.067 220.965 225.4 220.111C228.364 218.216 231.482 216.573 234.72 215.2L233.635 215.658C238.336 213.684 259.161 209.025 262.948 209.533L261.741 209.371C267.308 210.148 272.749 211.652 277.926 213.843L276.84 213.385C279.464 214.499 282.013 215.78 284.473 217.219C285.702 217.94 286.906 218.7 288.087 219.499C288.646 219.877 289.199 220.263 289.746 220.659C290.019 220.856 290.291 221.056 290.561 221.258C290.711 221.37 290.86 221.483 291.01 221.596C291.64 222.068 290.143 220.912 290.803 221.434C293.011 223.17 295.109 225.042 297.083 227.04C298.053 228.027 298.989 229.046 299.892 230.096C300.355 230.635 300.808 231.182 301.252 231.736C301.473 232.012 302.225 233.009 301.303 231.788C301.529 232.086 301.756 232.383 301.979 232.683C303.893 235.275 305.593 238.018 307.061 240.885C308.148 243.004 311.293 243.794 313.277 242.515C314.296 241.888 315.035 240.891 315.338 239.733C315.642 238.576 315.487 237.345 314.907 236.298Z" fill="#3F3D56"/>
<path d="M261.973 310.444C261.504 310.466 261.039 310.343 260.643 310.091C260.246 309.84 259.936 309.473 259.755 309.04C259.574 308.607 259.531 308.129 259.63 307.67C259.73 307.211 259.969 306.794 260.313 306.475C260.371 306.246 260.412 306.081 260.47 305.852C260.45 305.802 260.429 305.752 260.408 305.702C258.3 300.675 244.85 314.688 244.268 319.412C244.012 321.5 244.12 323.617 244.588 325.668C240.231 316.164 237.969 305.833 237.954 295.377C237.953 292.753 238.099 290.131 238.391 287.524C238.632 285.386 238.966 283.264 239.394 281.157C241.729 269.723 246.743 259.007 254.023 249.887C258.187 250.12 261.836 249.485 262.188 241.415C262.251 239.98 263.316 238.737 263.55 237.322C263.153 237.374 262.749 237.407 262.351 237.433C262.227 237.44 262.097 237.446 261.973 237.453L261.927 237.455C261.49 237.474 261.056 237.367 260.679 237.146C260.302 236.925 259.996 236.6 259.799 236.21C259.602 235.819 259.523 235.38 259.57 234.945C259.616 234.51 259.788 234.098 260.064 233.759C260.235 233.547 260.407 233.336 260.579 233.125C260.839 232.799 261.107 232.48 261.367 232.154C261.397 232.123 261.426 232.091 261.452 232.056C261.752 231.685 262.051 231.32 262.351 230.949C261.804 230.099 261.068 229.388 260.201 228.87C257.197 227.11 253.052 228.329 250.882 231.046C248.706 233.764 248.296 237.577 249.051 240.972C249.795 243.861 251.024 246.603 252.687 249.079C252.525 249.288 252.355 249.49 252.192 249.698C249.214 253.528 246.619 257.641 244.443 261.977C245.058 257.168 237.531 239.8 234.619 236.121C231.123 231.702 223.952 233.631 223.336 239.232C223.33 239.286 223.324 239.341 223.318 239.395C223.751 239.639 224.174 239.898 224.588 240.172C225.109 240.519 225.512 241.016 225.745 241.597C225.978 242.177 226.03 242.815 225.895 243.426C225.76 244.037 225.443 244.593 224.986 245.021C224.53 245.449 223.955 245.729 223.336 245.824L223.273 245.834C217.485 254.099 236.04 275.611 240.684 270.781C238.498 276.977 237.127 283.431 236.605 289.981C236.31 293.845 236.327 297.726 236.657 301.588L236.638 301.451C235.606 293.041 217.902 280.537 212.732 281.579C209.754 282.179 206.821 282.042 207.273 285.047C207.28 285.095 207.287 285.143 207.295 285.191C208.097 285.517 208.879 285.894 209.634 286.318C210.067 286.562 210.49 286.821 210.904 287.095C211.424 287.443 211.827 287.939 212.061 288.52C212.294 289.101 212.346 289.738 212.211 290.349C212.075 290.96 211.759 291.516 211.302 291.944C210.846 292.372 210.27 292.652 209.652 292.747L209.589 292.757C209.543 292.763 209.504 292.77 209.458 292.777C206.824 301.843 226.362 316.475 238.241 311.82H238.247C239.424 316.936 241.13 321.915 243.337 326.679H261.517C261.582 326.477 261.641 326.268 261.7 326.066C260.017 326.172 258.327 326.071 256.669 325.766C258.018 324.111 259.367 322.442 260.716 320.787C260.746 320.756 260.774 320.724 260.8 320.689C261.484 319.842 262.175 319.001 262.859 318.154L262.86 318.153C262.896 315.556 262.598 312.965 261.973 310.444L261.973 310.444ZM241.154 269.484L241.163 269.471L241.154 269.497V269.484ZM237.127 305.791L236.97 305.439C236.977 305.185 236.977 304.931 236.97 304.67C236.97 304.599 236.957 304.527 236.957 304.455C237.016 304.905 237.068 305.355 237.133 305.804L237.127 305.791Z" fill="#3F3D56"/>
<path d="M57.6942 272.609C61.374 272.609 64.3571 269.625 64.3571 265.945C64.3571 262.265 61.374 259.281 57.6942 259.281C54.0143 259.281 51.0312 262.265 51.0312 265.945C51.0312 269.625 54.0143 272.609 57.6942 272.609Z" fill="#3F3D56"/>
<path d="M137.649 345.304C141.329 345.304 144.312 342.321 144.312 338.64C144.312 334.96 141.329 331.977 137.649 331.977C133.969 331.977 130.986 334.96 130.986 338.64C130.986 342.321 133.969 345.304 137.649 345.304Z" fill="#3F3D56"/>
<path d="M441.116 345.304C444.796 345.304 447.779 342.321 447.779 338.64C447.779 334.96 444.796 331.977 441.116 331.977C437.436 331.977 434.453 334.96 434.453 338.64C434.453 342.321 437.436 345.304 441.116 345.304Z" fill="#3F3D56"/>
<path d="M457.471 260.494C461.15 260.494 464.133 257.51 464.133 253.83C464.133 250.149 461.15 247.166 457.471 247.166C453.791 247.166 450.808 250.149 450.808 253.83C450.808 257.51 453.791 260.494 457.471 260.494Z" fill="#3F3D56"/>
<path d="M438.088 198.701C441.768 198.701 444.751 195.717 444.751 192.037C444.751 188.357 441.768 185.373 438.088 185.373C434.408 185.373 431.425 188.357 431.425 192.037C431.425 195.717 434.408 198.701 438.088 198.701Z" fill="#3F3D56"/>
<path d="M160.061 253.828C160.057 255.53 159.399 257.166 158.223 258.396C157.047 259.627 155.442 260.358 153.742 260.438C152.042 260.518 150.376 259.942 149.089 258.828C147.802 257.715 146.993 256.149 146.828 254.454C146.663 252.76 147.156 251.068 148.205 249.727C149.253 248.386 150.777 247.499 152.46 247.251C154.144 247.002 155.859 247.411 157.25 248.391C158.641 249.372 159.602 250.85 159.934 252.52C160.019 252.951 160.062 253.389 160.061 253.828Z" fill="#3F3D56"/>
<path d="M293.32 218.087C297 218.087 299.983 215.104 299.983 211.424C299.983 207.743 297 204.76 293.32 204.76C289.64 204.76 286.657 207.743 286.657 211.424C286.657 215.104 289.64 218.087 293.32 218.087Z" fill="#3F3D56"/>
<path d="M227.296 211.424C227.292 213.126 226.634 214.762 225.458 215.992C224.282 217.222 222.678 217.953 220.978 218.034C219.278 218.114 217.612 217.538 216.325 216.424C215.038 215.31 214.228 213.744 214.063 212.05C213.899 210.356 214.392 208.663 215.44 207.322C216.488 205.982 218.012 205.095 219.696 204.847C221.38 204.598 223.094 205.006 224.485 205.987C225.877 206.968 226.837 208.446 227.169 210.115C227.255 210.546 227.297 210.985 227.296 211.424Z" fill="#3F3D56"/>
<path d="M141.284 192.037C141.28 193.739 140.621 195.375 139.445 196.605C138.269 197.836 136.665 198.567 134.965 198.647C133.265 198.727 131.599 198.151 130.312 197.037C129.025 195.924 128.215 194.358 128.051 192.663C127.886 190.969 128.379 189.277 129.427 187.936C130.476 186.595 131.999 185.708 133.683 185.46C135.367 185.211 137.082 185.62 138.473 186.6C139.864 187.581 140.825 189.059 141.156 190.729C141.242 191.16 141.284 191.598 141.284 192.037Z" fill="#3F3D56"/>
<path d="M362.977 275.033C366.657 275.033 369.64 272.049 369.64 268.369C369.64 264.689 366.657 261.705 362.977 261.705C359.298 261.705 356.314 264.689 356.314 268.369C356.314 272.049 359.298 275.033 362.977 275.033Z" fill="#3F3D56"/>
<path d="M258.188 214.452C263.54 214.452 267.879 210.112 267.879 204.759C267.879 199.406 263.54 195.066 258.188 195.066C252.835 195.066 248.496 199.406 248.496 204.759C248.496 210.112 252.835 214.452 258.188 214.452Z" fill="#3F3D56"/>
<path d="M520.279 345.814L0.721217 346C0.626505 346 0.532717 345.981 0.445215 345.945C0.357712 345.909 0.278211 345.856 0.211239 345.789C0.144268 345.722 0.0911364 345.642 0.0548917 345.555C0.0186469 345.467 0 345.373 0 345.279C0 345.184 0.0186469 345.09 0.0548917 345.003C0.0911364 344.915 0.144268 344.836 0.211239 344.769C0.278211 344.702 0.357712 344.648 0.445215 344.612C0.532717 344.576 0.626505 344.557 0.721217 344.557L520.279 344.371C520.47 344.372 520.653 344.448 520.787 344.583C520.922 344.718 520.998 344.901 520.998 345.092C520.998 345.283 520.922 345.466 520.787 345.602C520.653 345.737 520.47 345.813 520.279 345.814Z" fill="#CACACA"/>
</g>
<defs>
<clipPath id="clip0_4385_3656">
<rect width="521" height="346" fill="white"/>
</clipPath>
</defs>
</svg>
