<svg width="297" height="237" viewBox="0 0 297 237" fill="none" xmlns="http://www.w3.org/2000/svg">
<g clip-path="url(#clip0_4804_2149)">
<path d="M250.301 226.917C251.471 226.99 252.117 225.536 251.232 224.688L251.144 224.338C251.155 224.31 251.167 224.282 251.178 224.254C251.876 222.588 253.797 221.8 255.464 222.49C260.737 224.672 255.17 229.686 255.589 233.078C255.735 234.25 260.318 234.314 260.059 235.463C262.496 230.13 263.777 224.307 263.775 218.452C263.774 216.98 263.693 215.509 263.528 214.042C263.393 212.841 263.206 211.648 262.964 210.466C261.657 204.077 258.828 197.992 254.75 192.91C252.79 191.838 253.985 190.162 252.998 188.153C252.643 187.428 249.478 187.412 249.346 186.618C249.487 186.636 251.533 184.51 250.858 183.458C250.413 182.766 250.551 181.885 251.122 181.293C251.178 181.235 251.231 181.174 251.28 181.108C252.967 178.817 255.293 179.216 256.509 182.329C259.103 183.638 259.129 185.812 257.538 187.902C256.526 189.232 256.387 191.032 255.499 192.456C255.591 192.573 255.686 192.686 255.777 192.803C257.454 194.955 258.905 197.267 260.128 199.697C259.781 196.996 260.29 193.743 261.159 191.645C262.155 189.238 264.029 187.213 265.67 185.131C267.63 182.644 271.619 183.773 271.966 186.921C271.969 186.951 271.973 186.981 271.976 187.012C271.733 187.149 271.495 187.295 271.263 187.449C269.939 188.326 270.398 190.38 271.967 190.622L272.003 190.627C271.915 191.502 268.814 194.258 268.595 195.11C270.693 203.218 269.123 204.288 262.671 204.424L262.332 204.907C262.943 206.667 263.435 208.469 263.805 210.294C264.153 211.988 264.395 213.701 264.531 215.421C264.7 217.591 264.686 219.772 264.504 221.939L264.515 221.862C264.978 219.476 266.272 217.247 268.15 215.702C270.949 213.399 274.904 212.55 277.924 210.698C279.377 209.807 281.241 210.957 280.988 212.645L280.975 212.725C280.526 212.909 280.087 213.121 279.663 213.359C279.42 213.496 279.182 213.642 278.949 213.796C277.625 214.674 278.084 216.729 279.654 216.969L279.69 216.975C279.715 216.978 279.737 216.982 279.763 216.986C278.992 218.819 271.648 221.406 270.303 222.874C268.995 229.956 269.638 229.745 263.617 227.685H263.614C262.956 230.554 261.996 233.358 260.761 236.03L250.56 236.034C250.524 235.92 250.491 235.803 250.458 235.69C251.401 235.748 252.352 235.693 253.28 235.52C252.523 234.591 251.766 233.654 251.009 232.725C250.991 232.707 250.976 232.688 250.961 232.67L250.95 232.656L249.9 229.195C249.982 228.428 250.118 227.666 250.301 226.917Z" fill="#F2F2F2"/>
<path d="M142.505 235.952L52.2412 235.983C47.7065 235.984 43.6445 233.639 41.3759 229.709C40.2414 227.743 39.674 225.588 39.6733 223.431C39.6725 221.275 40.2387 219.119 41.3715 217.153L86.4748 134.965C88.741 131.033 92.8014 128.685 97.336 128.684C101.871 128.682 105.933 131.027 108.202 134.958L153.367 217.124C154.499 219.084 155.065 221.238 155.065 223.393C155.065 225.548 154.499 227.704 153.366 229.67C151.1 233.602 147.04 235.95 142.505 235.952ZM40.8079 223.43C40.8078 225.392 50.7681 221.163 51.8 222.951C53.864 226.526 48.1152 234.851 52.2408 234.85C52.2408 234.85 150.324 232.681 152.385 229.104C153.416 227.315 153.931 225.353 153.93 223.392C153.93 221.43 153.413 219.469 152.381 217.681L107.215 135.514C105.157 131.949 101.462 129.815 97.3364 129.817C93.2128 129.818 40.8081 221.467 40.8079 223.43Z" fill="#3F3D56"/>
<path d="M143.507 234.817C142.376 237.084 195.367 236.387 195.994 236.387C195.994 236.387 210.888 236.058 211.201 235.515C211.358 235.243 211.436 234.945 211.436 234.647C211.436 234.349 211.357 234.052 211.2 233.78L204.342 221.303C204.029 220.761 203.468 220.437 202.842 220.438C202.816 220.438 202.777 220.461 202.727 220.505C193.578 228.689 182.302 234.1 170.033 234.282C156.987 234.476 143.579 234.673 143.507 234.817Z" fill="#3F3D56"/>
<path d="M4.23711e-08 236.326C0.000130239 236.7 0.300266 237 0.67389 237L296.327 236.897C296.7 236.897 297 236.597 297 236.223C297 235.849 296.7 235.549 296.326 235.549L0.673425 235.651C0.299802 235.651 -0.000130154 235.952 4.23711e-08 236.326Z" fill="#CCCCCC"/>
<path d="M228.623 233.053L223.503 233.054L221.061 213.287L228.617 213.285L228.623 233.053Z" fill="#A0616A"/>
<path d="M211.081 232.943C210.922 233.211 210.838 234.079 210.838 234.391C210.839 235.352 211.617 236.13 212.577 236.13L228.433 236.125C229.087 236.124 229.618 235.593 229.618 234.938L229.618 234.277C229.618 234.277 230.401 232.291 228.785 229.843C228.785 229.843 226.779 231.761 223.779 228.76L222.894 227.156L216.494 231.845L212.945 232.283C212.169 232.379 211.481 232.269 211.081 232.943Z" fill="#2F2E41"/>
<path d="M208.991 216.146L204.142 217.789L195.503 199.846L202.661 197.422L208.991 216.146Z" fill="#A0616A"/>
<path d="M192.339 221.666C192.274 221.972 192.472 222.82 192.572 223.116C192.88 224.026 193.866 224.514 194.775 224.206L209.794 219.118C210.414 218.908 210.747 218.234 210.537 217.613L210.325 216.987C210.325 216.987 210.432 214.855 208.118 213.054C208.118 213.054 206.831 215.514 203.029 213.633L201.677 212.397L197.114 218.891L193.893 220.444C193.189 220.784 192.501 220.9 192.339 221.666Z" fill="#2F2E41"/>
<path d="M201.083 101.476L191.152 134.397L179.428 164.009L197.989 206.298L204.871 203.233L196.636 164.386L213.906 138.025L221.964 220.316L228.847 219.931L238.181 120.601L239.512 98.9746L201.083 101.476Z" fill="#2F2E41"/>
<path d="M231.075 28.5488L216.545 31.2332L215.401 37.7405L206.607 41.954L202.035 89.8008C202.035 89.8008 194.39 99.7553 200.51 102.815L239.512 98.9741C239.512 98.9741 241.422 91.8969 239.51 91.2254C237.597 90.554 237.592 73.6492 237.592 73.6492L246.375 38.8781L233.372 34.2895L231.075 28.5488Z" fill="#E6E6E6"/>
<path d="M222.505 28.4238C228.985 28.4238 234.238 23.1656 234.238 16.6792C234.238 10.1928 228.985 4.93457 222.505 4.93457C216.025 4.93457 210.772 10.1928 210.772 16.6792C210.772 23.1656 216.025 28.4238 222.505 28.4238Z" fill="#A0616A"/>
<path d="M230.275 18.422C229.339 18.9351 230.227 21.3847 229.642 21.5965C228.966 21.8413 226.499 19.0313 226.469 15.884C226.46 14.9314 226.679 14.474 226.468 13.3446C226.192 11.8673 225.347 10.1248 224.564 10.171C224.1 10.1985 223.647 10.8551 223.613 11.4411C223.566 12.2623 224.363 12.5856 224.248 13.0279C224.029 13.8706 220.683 14.4523 219.491 13.0296C218.557 11.9142 219.274 9.95586 218.856 9.85559C218.548 9.78167 218.218 10.8599 216.954 12.0782C216.478 12.5372 215.77 13.2199 215.369 13.031C214.789 12.7581 215.21 10.8347 215.051 10.8092C214.919 10.7881 214.836 12.14 214.1 13.3489C213.155 14.902 211.206 16.0991 210.296 15.5722C209.738 15.2493 209.694 14.3505 209.661 13.6679C209.59 12.2297 207.502 8.92161 208.043 7.38312C209.142 4.25181 211.026 6.45909 211.878 5.4141C213.031 3.99943 214.066 4.76003 216 3.19071C217.888 1.65764 217.905 0.116781 219.17 0.0153792C220.309 -0.075937 220.714 1.14028 222.024 0.966658C223.134 0.81958 223.375 -0.12372 224.243 0.013617C225.038 0.13935 225.091 0.970346 226.147 1.28265C226.821 1.48203 226.969 1.19345 227.732 1.2821C229.32 1.46657 230.387 2.91443 230.587 3.18565C231.357 4.23121 231.058 4.67212 231.856 5.72459C232.544 6.63219 234.069 6.24678 234.642 6.70009C236.516 8.18128 237.321 10.9129 237.337 14.0262C237.348 16.2038 237.065 17.304 236.432 20.0526C235.951 22.1397 233.725 24.8367 232.497 26.0394C232.168 26.3623 231.244 27.2673 230.595 26.9924C229.98 26.7318 229.961 25.5601 229.96 25.4055C229.958 24.8734 230.099 24.215 231.228 22.5482C232.413 20.7973 232.884 20.5975 232.812 20.0083C232.685 18.9667 231.021 18.0131 230.275 18.422Z" fill="#2F2E41"/>
<path d="M189.347 127.92C188.982 130.981 190.264 133.651 192.21 133.884C194.156 134.116 196.03 131.823 196.395 128.762C196.555 127.422 196.399 126.157 196.01 125.138L197.395 112.148L191.291 111.627L190.574 124.489C189.956 125.387 189.507 126.58 189.347 127.92Z" fill="#A0616A"/>
<path d="M206.893 41.6455C206.893 41.6455 203.731 41.6905 201.637 45.784C200.524 47.9592 194.571 88.636 194.571 88.636L189.088 121.958L198.429 122.005L205.708 90.4484L211.831 72.1461L206.893 41.6455Z" fill="#E6E6E6"/>
<path d="M233.181 123.03C232.287 125.98 233.082 128.834 234.957 129.403C236.833 129.973 239.078 128.044 239.973 125.094C240.364 123.802 240.432 122.529 240.227 121.459L243.861 108.911L237.942 107.329L234.988 119.867C234.223 120.643 233.573 121.739 233.181 123.03Z" fill="#A0616A"/>
<path d="M239.683 39.4544C239.683 39.4544 244.27 36.008 248.096 41.3653C251.922 46.7227 253.467 90.7398 253.467 90.7398L242.769 117.92L234.738 115.243L242.374 81.9401L228.982 56.6824L239.683 39.4544Z" fill="#E6E6E6"/>
<path d="M123.675 217.826C146.497 217.826 164.998 199.307 164.998 176.463C164.998 153.619 146.497 135.1 123.675 135.1C100.853 135.1 82.3516 153.619 82.3516 176.463C82.3516 199.307 100.853 217.826 123.675 217.826Z" fill="#61AEF2"/>
<path d="M123.682 201.818C125.778 201.818 127.476 200.118 127.476 198.02C127.476 195.923 125.778 194.223 123.682 194.223C121.587 194.223 119.888 195.923 119.888 198.02C119.888 200.118 121.587 201.818 123.682 201.818Z" fill="white"/>
<path d="M123.666 151.106C123.317 153.424 123.942 153.909 123.945 163.903C123.949 173.897 126.02 187.297 123.678 187.297C121.336 187.298 120.48 159.645 112.348 157.197C102.786 154.32 124.794 143.602 123.666 151.106Z" fill="white"/>
<path d="M68.2132 197.581L64.4798 205.477C68.9933 202.237 76.043 199.444 81.653 197.949C76.4259 195.421 70.0298 191.346 66.2087 187.312L68.356 195.655C43.1806 190.522 25.1018 171.191 25.0941 149.046L24.1848 148.732C24.1927 171.863 42.0215 192.34 68.2132 197.581Z" fill="#3F3D56"/>
</g>
<defs>
<clipPath id="clip0_4804_2149">
<rect width="297" height="237" fill="white"/>
</clipPath>
</defs>
</svg>
