<svg width="422" height="336" viewBox="0 0 422 336" fill="none" xmlns="http://www.w3.org/2000/svg">
<g clip-path="url(#clip0_4385_3693)">
<path d="M355.647 321.706C357.309 321.81 358.226 319.747 356.969 318.546L356.843 318.05C356.86 318.01 356.876 317.97 356.893 317.931C357.884 315.569 360.613 314.451 362.983 315.429C370.474 318.523 362.565 325.631 363.159 330.441C363.368 332.101 369.879 332.193 369.511 333.822C372.973 326.261 374.794 318.006 374.791 309.704C374.79 307.618 374.675 305.533 374.441 303.452C374.248 301.75 373.982 300.059 373.639 298.383C371.781 289.325 367.763 280.698 361.968 273.493C359.183 271.974 360.881 269.597 359.478 266.749C358.973 265.722 354.476 265.699 354.289 264.573C354.49 264.599 357.397 261.584 356.437 260.093C355.805 259.112 356.002 257.863 356.813 257.024C356.893 256.942 356.968 256.855 357.037 256.762C359.435 253.513 362.74 254.079 364.466 258.493C368.153 260.349 368.189 263.43 365.929 266.394C364.491 268.28 364.294 270.831 363.032 272.849C363.162 273.015 363.298 273.176 363.427 273.342C365.81 276.392 367.871 279.671 369.609 283.115C369.117 279.287 369.84 274.674 371.074 271.7C372.489 268.287 375.151 265.416 377.483 262.465C380.268 258.939 385.937 260.539 386.43 265.003C386.434 265.046 386.439 265.088 386.443 265.131C386.099 265.326 385.761 265.532 385.431 265.751C383.549 266.994 384.201 269.907 386.431 270.25L386.482 270.257C386.357 271.497 381.951 275.404 381.64 276.613C384.62 288.107 382.39 289.625 373.222 289.817L372.741 290.502C373.609 292.997 374.309 295.551 374.834 298.139C375.328 300.541 375.672 302.969 375.865 305.408C376.105 308.484 376.085 311.577 375.826 314.648L375.842 314.539C376.501 311.156 378.339 307.996 381.008 305.805C384.985 302.541 390.604 301.337 394.895 298.712C396.96 297.449 399.608 299.08 399.248 301.472L399.23 301.586C398.592 301.846 397.968 302.147 397.366 302.484C397.021 302.679 396.682 302.886 396.352 303.104C394.471 304.348 395.123 307.262 397.353 307.603L397.404 307.611C397.44 307.616 397.472 307.621 397.508 307.626C396.413 310.226 385.978 313.893 384.067 315.974C382.208 326.014 383.121 325.715 374.567 322.795H374.562C373.628 326.863 372.263 330.838 370.509 334.626L356.015 334.631C355.963 334.47 355.916 334.304 355.869 334.143C357.209 334.226 358.56 334.147 359.879 333.903C358.804 332.586 357.728 331.258 356.652 329.94C356.626 329.914 356.605 329.888 356.584 329.862L356.568 329.842L355.076 324.936C355.194 323.848 355.386 322.768 355.647 321.706Z" fill="#F2F2F2"/>
<path d="M202.482 334.514L74.2285 334.558C67.7853 334.56 62.0138 331.235 58.7903 325.663C57.1783 322.877 56.3722 319.82 56.3711 316.763C56.37 313.706 57.1745 310.649 58.7841 307.862L122.87 191.343C126.09 185.769 131.86 182.44 138.303 182.438C144.746 182.435 150.517 185.76 153.741 191.332L217.916 307.822C219.524 310.6 220.328 313.653 220.328 316.709C220.328 319.764 219.524 322.821 217.914 325.608C214.695 331.182 208.925 334.512 202.482 334.514ZM57.9833 316.761C57.983 319.544 72.1354 313.548 73.6016 316.082C76.5343 321.151 68.366 332.953 74.2279 332.951C74.2279 332.951 213.592 329.876 216.521 324.805C217.985 322.27 218.717 319.488 218.716 316.707C218.715 313.926 217.982 311.145 216.515 308.611L152.34 192.122C149.415 187.067 144.165 184.042 138.303 184.044C132.444 184.046 57.9835 313.978 57.9833 316.761Z" fill="#3F3D56"/>
<path d="M203.906 332.906C202.299 336.12 277.593 335.132 278.483 335.132C278.483 335.132 299.646 334.665 300.091 333.895C300.313 333.51 300.424 333.087 300.424 332.665C300.424 332.243 300.312 331.82 300.09 331.436L290.344 313.746C289.9 312.979 289.103 312.519 288.213 312.52C288.176 312.52 288.121 312.552 288.051 312.615C275.05 324.218 259.029 331.889 241.596 332.148C223.059 332.423 204.008 332.702 203.906 332.906Z" fill="#3F3D56"/>
<path d="M6.02041e-08 335.045C0.000185053 335.575 0.426641 336.001 0.957513 336L421.043 335.855C421.574 335.855 422 335.429 422 334.899C422 334.369 421.573 333.943 421.043 333.943L0.956854 334.088C0.425981 334.089 -0.000184932 334.515 6.02041e-08 335.045Z" fill="#CCCCCC"/>
<path d="M324.845 330.404L317.57 330.406L314.1 302.382L324.837 302.379L324.845 330.404Z" fill="#A0616A"/>
<path d="M299.921 330.248C299.694 330.629 299.575 331.859 299.575 332.302C299.576 333.664 300.681 334.768 302.045 334.767L324.574 334.76C325.505 334.759 326.259 334.006 326.258 333.077L326.258 332.14C326.258 332.14 327.371 329.324 325.076 325.854C325.076 325.854 322.225 328.573 317.962 324.318L316.705 322.045L307.61 328.692L302.569 329.314C301.466 329.45 300.488 329.294 299.921 330.248Z" fill="#2F2E41"/>
<path d="M296.95 306.435L290.059 308.764L277.785 283.326L287.956 279.889L296.95 306.435Z" fill="#A0616A"/>
<path d="M273.289 314.259C273.196 314.692 273.478 315.896 273.62 316.315C274.057 317.605 275.459 318.297 276.751 317.86L298.091 310.647C298.972 310.349 299.444 309.394 299.146 308.514L298.845 307.626C298.845 307.626 298.997 304.603 295.71 302.05C295.71 302.05 293.881 305.537 288.478 302.87L286.558 301.119L280.075 310.325L275.498 312.527C274.497 313.009 273.52 313.173 273.289 314.259Z" fill="#2F2E41"/>
<path d="M285.714 143.864L271.603 190.537L254.945 232.519L281.318 292.473L291.096 288.128L279.395 233.053L303.933 195.681L315.383 312.347L325.163 311.801L338.426 170.979L340.317 140.318L285.714 143.864Z" fill="#2F2E41"/>
<path d="M328.329 40.4746L307.684 44.2803L306.057 53.5059L293.563 59.4794L287.066 127.313C287.066 127.313 276.204 141.425 284.899 145.764L340.317 140.318C340.317 140.318 343.03 130.285 340.313 129.333C337.596 128.381 337.588 104.414 337.588 104.414L350.067 55.1187L331.592 48.6132L328.329 40.4746Z" fill="#E6E6E6"/>
<path d="M316.152 40.2973C325.359 40.2973 332.824 32.8426 332.824 23.6467C332.824 14.4508 325.359 6.99609 316.152 6.99609C306.945 6.99609 299.48 14.4508 299.48 23.6467C299.48 32.8426 306.945 40.2973 316.152 40.2973Z" fill="#A0616A"/>
<path d="M327.192 26.1173C325.862 26.8447 327.124 30.3176 326.292 30.6178C325.331 30.9649 321.827 26.9811 321.784 22.5191C321.77 21.1686 322.082 20.5201 321.782 18.9189C321.391 16.8245 320.189 14.3541 319.077 14.4197C318.418 14.4586 317.774 15.3895 317.726 16.2202C317.659 17.3846 318.791 17.8428 318.628 18.47C318.317 19.6646 313.562 20.4894 311.869 18.4723C310.542 16.891 311.56 14.1146 310.967 13.9725C310.529 13.8677 310.06 15.3963 308.264 17.1235C307.588 17.7743 306.582 18.7421 306.012 18.4744C305.188 18.0874 305.787 15.3606 305.56 15.3244C305.373 15.2945 305.255 17.2111 304.21 18.925C302.867 21.1269 300.096 22.824 298.804 22.077C298.012 21.6193 297.949 20.345 297.902 19.3772C297.802 17.3383 294.835 12.6484 295.602 10.4672C297.164 6.02789 299.841 9.15719 301.052 7.67568C302.691 5.67007 304.161 6.74839 306.908 4.52354C309.592 2.35008 309.615 0.165563 311.412 0.0218034C313.031 -0.107658 313.606 1.61659 315.468 1.37045C317.045 1.16194 317.388 -0.1754 318.622 0.0193051C319.751 0.197559 319.825 1.37568 321.326 1.81844C322.284 2.10111 322.494 1.69197 323.579 1.81766C325.835 2.07919 327.351 4.13185 327.635 4.51636C328.729 5.99867 328.305 6.62377 329.438 8.11587C330.416 9.40261 332.583 8.8562 333.397 9.49886C336.059 11.5988 337.203 15.4714 337.226 19.8853C337.242 22.9725 336.839 24.5323 335.939 28.429C335.257 31.3879 332.093 35.2116 330.35 36.9167C329.882 37.3743 328.569 38.6574 327.647 38.2676C326.772 37.8983 326.746 36.2372 326.745 36.0179C326.741 35.2636 326.942 34.3302 328.546 31.9671C330.23 29.4848 330.899 29.2015 330.797 28.3662C330.617 26.8895 328.252 25.5375 327.192 26.1173Z" fill="#2F2E41"/>
<path d="M269.039 181.354C268.521 185.694 270.342 189.48 273.107 189.81C275.872 190.139 278.534 186.888 279.053 182.548C279.281 180.649 279.059 178.855 278.507 177.411L280.474 158.994L271.801 158.256L270.782 176.49C269.905 177.763 269.267 179.454 269.039 181.354Z" fill="#A0616A"/>
<path d="M293.97 59.041C293.97 59.041 289.476 59.1049 286.501 64.9082C284.92 67.9921 276.462 125.66 276.462 125.66L268.67 172.902L281.943 172.968L292.286 128.23L300.986 102.282L293.97 59.041Z" fill="#E6E6E6"/>
<path d="M331.321 174.422C330.05 178.604 331.18 182.65 333.845 183.457C336.509 184.265 339.7 181.53 340.971 177.347C341.528 175.516 341.624 173.712 341.333 172.194L346.496 154.404L338.085 152.162L333.888 169.937C332.801 171.038 331.877 172.591 331.321 174.422Z" fill="#A0616A"/>
<path d="M340.559 55.9356C340.559 55.9356 347.078 51.0495 352.514 58.6447C357.949 66.24 360.144 128.644 360.144 128.644L344.944 167.177L333.533 163.383L344.383 116.168L325.354 80.3601L340.559 55.9356Z" fill="#E6E6E6"/>
<path d="M175.727 308.816C208.154 308.816 234.442 282.561 234.442 250.175C234.442 217.788 208.154 191.533 175.727 191.533C143.299 191.533 117.012 217.788 117.012 250.175C117.012 282.561 143.299 308.816 175.727 308.816Z" fill="#61AEF2"/>
<path d="M175.738 286.122C178.715 286.122 181.129 283.711 181.129 280.738C181.129 277.764 178.715 275.354 175.738 275.354C172.76 275.354 170.347 277.764 170.347 280.738C170.347 283.711 172.76 286.122 175.738 286.122Z" fill="white"/>
<path d="M175.715 214.226C175.22 217.513 176.107 218.201 176.112 232.369C176.117 246.538 179.06 265.534 175.733 265.535C172.405 265.537 171.188 226.332 159.633 222.862C146.047 218.782 177.318 203.587 175.715 214.226Z" fill="white"/>
<path d="M96.9223 280.114L91.6175 291.309C98.0306 286.716 108.047 282.757 116.019 280.636C108.591 277.053 99.5034 271.276 94.074 265.557L97.1251 277.385C61.354 270.108 35.6663 242.701 35.6554 211.305L34.3633 210.861C34.3746 243.655 59.707 272.685 96.9223 280.114Z" fill="#3F3D56"/>
</g>
<defs>
<clipPath id="clip0_4385_3693">
<rect width="422" height="336" fill="white"/>
</clipPath>
</defs>
</svg>
