<svg width="24" height="23" viewBox="0 0 24 23" fill="none" xmlns="http://www.w3.org/2000/svg">
<path d="M11.9991 21.0275L2.39471 10.619L2.3837 10.6073C0.774054 8.93607 0.369035 6.3694 1.39327 4.24311L1.39337 4.24291C2.15551 2.65954 3.59628 1.56651 5.25412 1.28703C6.91077 1.00774 8.60233 1.57104 9.80009 2.81546L9.80022 2.81561L11.4589 4.53803C11.6003 4.68483 11.7954 4.76778 11.9992 4.76778C12.203 4.76778 12.398 4.68483 12.5394 4.53803L14.1981 2.81561L14.1982 2.81546C15.396 1.57104 17.0876 1.00774 18.7442 1.28703C20.402 1.56651 21.8428 2.65951 22.6049 4.24285C23.6278 6.36829 23.2232 8.93314 21.6154 10.6043L21.6046 10.6157L11.9991 21.0275Z" stroke="white" stroke-width="1.5" stroke-linecap="round" stroke-linejoin="round"/>
</svg>
