<svg width="46" height="46" viewBox="0 0 46 46" fill="none" xmlns="http://www.w3.org/2000/svg">
<path d="M23 46C35.7027 46 46 35.7027 46 23C46 10.2973 35.7027 0 23 0C10.2973 0 0 10.2973 0 23C0 35.7027 10.2973 46 23 46Z" fill="#D6001D"/>
<path fill-rule="evenodd" clip-rule="evenodd" d="M27.6743 19.7716V11.96H23.9372V32.2H27.6743V25.0677C27.6743 23.8707 27.7886 22.9665 28.0134 22.3541C28.2411 21.7427 28.5976 21.2853 29.085 20.9791C29.5694 20.6748 30.1256 20.5218 30.7447 20.5218C31.2863 20.5218 31.7388 20.6404 32.0953 20.8806C32.4492 21.1057 32.7147 21.4432 32.8482 21.8374C32.9906 22.2393 33.0613 23.1846 33.0613 24.6773V32.2H36.7993V23.8477C36.7993 22.5694 36.7354 21.6269 36.6065 21.0212C36.4836 20.4237 36.2386 19.8572 35.8866 19.3563C35.5378 18.8569 35.0185 18.4454 34.3267 18.1249C33.633 17.8024 32.855 17.6398 31.9955 17.6398C30.3223 17.6398 28.8796 18.3536 27.6743 19.7716ZM12.9401 19.7717V11.9601H9.19922V32.2001H12.9363L12.9401 25.0678C12.9363 23.8708 13.0506 22.9666 13.2792 22.3542C13.504 21.7428 13.8586 21.2854 14.3528 20.9792C14.8363 20.675 15.3924 20.5219 16.0125 20.5219C16.5541 20.5219 17.0027 20.6405 17.3631 20.8807C17.7159 21.1065 17.9806 21.4439 18.114 21.8375C18.2565 22.2394 18.3243 23.1848 18.3243 24.6774V32.2001H22.0662V23.8478C22.0662 22.5695 22.0022 21.627 21.8743 21.0213C21.7455 20.4128 21.5071 19.8607 21.1544 19.3565C20.8037 18.857 20.2844 18.4455 19.5897 18.125C18.8969 17.8025 18.1247 17.6399 17.2624 17.6399C15.5881 17.6399 14.1445 18.3537 12.9401 19.7717Z" fill="white"/>
</svg>
