<svg width="21" height="19" viewBox="0 0 21 19" fill="none" xmlns="http://www.w3.org/2000/svg">
<path d="M0.306672 8.85089C2.38415 7.65727 4.70328 6.6607 6.87011 5.66001C10.5976 4.01969 14.3403 2.41032 18.1206 0.909275C18.8567 0.653426 20.1777 0.403767 20.3077 1.54064C20.2366 3.15001 19.9452 4.74906 19.7442 6.34811C19.2365 9.86603 18.6486 13.3705 18.0759 16.8771C17.8789 18.0449 16.4756 18.6495 15.578 17.9015C13.4214 16.3819 11.2474 14.8778 9.11817 13.3231C8.41958 12.5834 9.0674 11.5218 9.68983 10.9946C11.4668 9.16863 13.3513 7.61704 15.0348 5.69714C15.4897 4.55305 14.1474 5.51764 13.7047 5.81269C11.2718 7.5603 8.89885 9.4152 6.335 10.9503C5.02516 11.7034 3.49802 11.0607 2.18818 10.6408C1.01439 10.1343 -0.705665 9.62359 0.306672 8.85089Z" fill="black"/>
</svg>
