<svg width="175" height="151" viewBox="0 0 175 151" fill="none" xmlns="http://www.w3.org/2000/svg">
<g clip-path="url(#clip0_4358_4025)">
<path d="M99.6934 150.198H50.6929C44.3084 150.198 39.1152 144.983 39.1152 138.572V11.6263C39.1152 5.21501 44.3084 0 50.6929 0H99.6934C106.078 0 111.271 5.21501 111.271 11.6263V138.569C111.271 144.981 106.078 150.196 99.6934 150.196V150.198Z" fill="#2F2E43"/>
<path d="M99.7437 147.061H50.645C45.8547 147.061 41.9561 143.146 41.9561 138.335V11.1492C41.9561 6.33888 45.8547 2.42383 50.645 2.42383H99.7437C104.534 2.42383 108.433 6.33888 108.433 11.1492V138.335C108.433 143.146 104.534 147.061 99.7437 147.061Z" fill="white"/>
<path d="M82.8622 10.6972H67.2372C65.4365 10.6972 63.9707 9.22527 63.9707 7.41696C63.9707 5.60866 65.4365 4.13672 67.2372 4.13672H82.8622C84.6629 4.13672 86.1287 5.60866 86.1287 7.41696C86.1287 9.22527 84.6629 10.6972 82.8622 10.6972Z" fill="#2F2E43"/>
<path d="M85.6174 63.1745L80.7617 59.3809C80.7617 59.3809 75.2209 61.1158 75.0773 61.1866C74.9338 61.2575 66.4766 80.9541 66.4766 80.9541C66.4766 80.9541 88.1409 92.0872 86.5568 91.0022C84.9726 89.9198 85.3 75.2459 86.7734 73.3314C88.2518 71.4143 86.99 66.609 86.99 66.609L85.6224 63.177H85.6149L85.6174 63.1745Z" fill="#2F2E43"/>
<path d="M72.1916 72.0488H78.7775V82.5395L71.5166 80.1445L72.1916 72.0488Z" fill="#F3A3A6"/>
<path d="M86.5144 96.8971C85.5473 97.2992 84.5524 97.6482 83.5324 97.9391C81.0895 98.6421 78.508 99.0139 75.8459 99.0139C73.5137 99.0139 71.247 98.7281 69.0786 98.1844C68.313 97.9947 67.5599 97.7721 66.8245 97.5192C65.8952 97.2006 64.9885 96.8389 64.1045 96.4241L64.5251 94.3604L65.6358 88.8975L66.9378 82.5141L67.1796 81.3127L67.7564 78.4827L67.7639 78.4473H80.9358L80.9434 78.4726L84.4542 90.071L85.9225 94.9294L86.5169 96.8996L86.5144 96.8971Z" fill="#61AEF2"/>
<path d="M91.0044 94.538C89.5915 95.456 88.088 96.2477 86.5139 96.8976C85.5468 97.2998 84.552 97.6488 83.532 97.9396L83.0534 95.9442L81.2628 88.4808L78.8525 78.4504H78.8551C78.8551 78.4504 79.0868 78.4453 79.4797 78.4453C79.8474 78.4453 80.3536 78.4504 80.9404 78.4706C82.3483 78.5212 84.2095 78.6653 85.6652 79.0447C86.7884 79.3356 87.6699 79.768 87.9218 80.4028C88.1711 81.0326 89.2113 85.8581 90.5561 92.3781C90.7022 93.0812 90.8483 93.7995 91.0019 94.538H91.0044Z" fill="#61AEF2"/>
<path d="M77.8758 74.949C81.8706 74.949 85.109 71.697 85.109 67.6855C85.109 63.6739 81.8706 60.4219 77.8758 60.4219C73.881 60.4219 70.6426 63.6739 70.6426 67.6855C70.6426 71.697 73.881 74.949 77.8758 74.949Z" fill="#F3A3A6"/>
<path d="M86.8869 66.3543V66.3645L85.1139 66.6705C85.0182 66.2785 84.9099 65.9143 84.7991 65.5804C84.6631 65.1758 84.5195 64.8116 84.3684 64.4853C83.9831 63.6558 83.5499 63.0741 83.1066 62.672C81.4419 61.157 79.5983 62.1636 79.354 62.113C79.0316 62.0473 74.6872 66.7818 74.1306 72.0473C74.0727 72.6316 74.0576 73.2234 74.1004 73.8177C74.1029 73.8405 74.1029 73.8607 74.1029 73.8835C74.2187 75.6791 73.5916 77.184 72.6673 78.4055C72.6573 78.4182 72.6472 78.4308 72.6371 78.4435C72.3097 78.8734 71.942 79.2679 71.5617 79.6296C70.4636 80.6615 69.2245 81.4126 68.3002 81.8881C67.5875 82.2573 67.0636 82.4622 66.9352 82.5102C66.915 82.5178 66.9049 82.5204 66.9049 82.5204C66.9049 82.5204 65.7288 84.7384 65.6356 88.8937C65.5978 90.6362 65.7489 92.7177 66.2552 95.1203C66.3609 95.6211 66.4793 96.132 66.6178 96.658C66.6934 96.9489 66.7639 97.2372 66.8243 97.5154C65.895 97.1967 64.9883 96.8351 64.1043 96.4203C63.3991 96.094 62.7141 95.74 62.0442 95.3555C61.4322 95.0091 60.8328 94.6373 60.251 94.2427C60.5582 93.5068 60.8554 92.8644 61.1148 92.356C61.2911 92.0096 61.4498 91.7288 61.5782 91.524C63.1624 88.9923 62.0819 84.5866 62.0819 84.5866C59.6365 82.4192 62.5126 77.6493 62.5126 77.6493C62.5126 77.6493 62.0064 71.2886 63.52 70.062C65.0337 68.8329 65.1042 65.7954 65.1042 65.7954C67.7713 54.159 76.4779 56.3998 76.4779 56.3998C87.436 55.1909 86.9121 65.9649 86.8895 66.3468L86.8869 66.3543Z" fill="#2F2E43"/>
<path d="M73.5158 78.4938L73.0323 80.6435L72.2893 83.9314L69.529 96.1849L69.0782 98.1854C68.3126 97.9957 67.5595 97.7731 66.8241 97.5202C65.8948 97.2015 64.9881 96.8399 64.1041 96.4251C63.3989 96.0989 62.7139 95.7448 62.0439 95.3604C62.1925 94.6396 62.3361 93.9339 62.4796 93.2435C63.9757 85.9597 65.1594 80.4235 65.4288 79.7457C65.6832 79.1033 66.4992 78.7315 67.5217 78.5267C67.5973 78.5115 67.6779 78.4963 67.756 78.4837C67.829 78.471 67.9071 78.4584 67.9801 78.4483C69.184 78.2712 70.5792 78.2839 71.6698 78.3395C72.0475 78.3597 72.3875 78.385 72.6696 78.4078C72.8283 78.4204 72.9718 78.4356 73.0877 78.4457C73.3597 78.4736 73.5184 78.4938 73.5184 78.4938H73.5158Z" fill="#61AEF2"/>
<path d="M75.845 99.5211C73.5129 99.5211 71.1933 99.2378 68.9543 98.6764C68.1837 98.4867 67.4105 98.2566 66.6574 97.9986C65.7054 97.6723 64.7736 97.298 63.8896 96.8858C63.1894 96.562 62.4842 96.1979 61.7916 95.8008C61.1696 95.4493 60.555 95.0674 59.9657 94.6678C52.0223 89.3162 47.2773 80.4062 47.2773 70.836C47.2773 55.019 60.0916 42.1484 75.845 42.1484C91.5984 42.1484 104.413 55.0165 104.413 70.836C104.413 80.6237 99.5016 89.6424 91.2786 94.9637C89.8354 95.8994 88.2966 96.7087 86.7074 97.3663C85.7227 97.776 84.7027 98.1326 83.6726 98.4285C81.1415 99.1544 78.5096 99.5236 75.8475 99.5236L75.845 99.5211ZM75.845 43.1576C60.6482 43.1576 48.2848 55.5729 48.2848 70.8335C48.2848 80.0673 52.8609 88.6611 60.5273 93.8281C61.094 94.2125 61.6859 94.5792 62.2878 94.9181C62.9577 95.3026 63.6377 95.6541 64.3127 95.9652C65.1665 96.3648 66.0631 96.7239 66.9848 97.0401C67.7102 97.2904 68.4557 97.5105 69.1986 97.6951C71.3595 98.2363 73.596 98.5095 75.8475 98.5095C78.4139 98.5095 80.9551 98.1529 83.3956 97.4523C84.3904 97.169 85.3751 96.8225 86.3246 96.428C87.8584 95.7932 89.3418 95.0142 90.7346 94.1114C98.6704 88.9773 103.408 80.2746 103.408 70.8335C103.408 55.5729 91.0443 43.1576 75.8475 43.1576H75.845Z" fill="#2F2E43"/>
<path d="M0 150.572C0 150.81 0.269483 150.999 0.606966 150.999H174.393C174.728 150.999 175 150.81 175 150.572C175 150.334 174.731 150.145 174.393 150.145H0.606966C0.272001 150.145 0 150.334 0 150.572Z" fill="#2F2E43"/>
<path d="M109.453 81.1707C109.989 80.6421 110.649 80.2526 111.379 80.0351L116.691 74.2207L119.491 76.9167L113.8 82.5263C113.555 83.2445 113.142 83.8869 112.591 84.4003C111.228 85.7079 109.422 86.0443 108.556 85.1515C107.687 84.2612 108.088 82.4782 109.448 81.1732H109.453V81.1707Z" fill="#F3A3A6"/>
<path d="M111.667 78.5546L114.488 82.1156L129.068 71.0331L129.08 71.0078L137.6 55.0416C138.905 52.5959 138.182 49.5534 135.918 47.9651C134.533 46.9914 132.81 46.7208 131.193 47.219C129.576 47.7173 128.304 48.9135 127.7 50.4993L122.172 65.029L111.667 78.5496V78.5546Z" fill="#D5D5D6"/>
<path d="M135.676 41.623H129.732V51.092L136.286 48.9296L135.676 41.623Z" fill="#F3A3A6"/>
<path d="M124.015 37.6882C124.015 41.3099 126.936 44.2437 130.543 44.2437C134.149 44.2437 137.071 41.3099 137.071 37.6882C137.071 34.0666 134.149 31.1328 130.543 31.1328C126.936 31.1328 124.015 34.0666 124.015 37.6882Z" fill="#F3A3A6"/>
<path d="M135.162 41.8803L135.799 43.0942L138.61 37.73C140.302 32.5251 134.391 29.5357 134.391 29.5357C132.462 27.2545 128.586 29.9227 128.586 29.9227C122.995 28.6758 125.695 33.4078 125.695 33.4078C125.695 33.4078 127.601 33.4508 127.601 34.9986C127.601 36.5489 129.679 36.4402 129.679 36.4402L131.306 39.3006L132.205 38.203C135.547 36.7816 135.162 41.8803 135.162 41.8803Z" fill="#2F2E43"/>
<path d="M138.083 138.648H132.81V146.162H138.083V138.648Z" fill="#F3A3A6"/>
<path d="M127.674 150.71C129.989 150.71 133.369 150.467 133.394 150.464C134.298 150.545 138.811 150.902 139.035 149.865C139.242 148.911 138.937 147.915 138.894 147.778C138.459 143.446 138.297 143.395 138.202 143.368C138.048 143.322 137.6 143.537 136.872 144.007L136.827 144.038L136.817 144.091C136.804 144.157 136.482 145.747 134.953 145.505C133.905 145.338 133.565 145.105 133.457 144.991C133.545 144.951 133.656 144.88 133.734 144.759C133.847 144.582 133.867 144.354 133.792 144.081C133.595 143.363 133.006 142.298 132.981 142.252L132.913 142.131L126.919 146.193L123.216 147.255C122.937 147.333 122.713 147.536 122.599 147.804C122.443 148.178 122.539 148.613 122.841 148.886C123.514 149.493 124.851 150.533 126.251 150.662C126.624 150.697 127.118 150.71 127.672 150.71H127.674Z" fill="#2F2E43"/>
<path d="M149.249 127.384L145.186 130.76L149.955 136.549L154.019 133.174L149.249 127.384Z" fill="#F3A3A6"/>
<path d="M148.89 143.331C150.673 141.849 153.124 139.5 153.141 139.482C153.889 138.968 157.594 136.353 157.108 135.41C156.662 134.542 155.796 133.968 155.675 133.893C152.59 130.83 152.436 130.896 152.343 130.936C152.194 130.999 151.985 131.449 151.723 132.279L151.708 132.33L151.734 132.378C151.769 132.438 152.529 133.872 151.197 134.661C150.283 135.203 149.875 135.241 149.719 135.223C149.762 135.134 149.802 135.008 149.784 134.864C149.759 134.656 149.631 134.467 149.399 134.305C148.789 133.877 147.661 133.432 147.613 133.415L147.485 133.364L145.445 140.329L143.266 143.518C143.103 143.759 143.057 144.057 143.14 144.338C143.259 144.727 143.609 145 144.014 145.018C144.916 145.056 146.606 145 147.767 144.204C148.074 143.991 148.462 143.685 148.89 143.331Z" fill="#2F2E43"/>
<path d="M124.09 80.7031L132.13 140.752H138.159L142.178 80.7031H124.088H124.09Z" fill="#2F2E43"/>
<path d="M139.665 113.503L151.671 129.146L146.533 133.407L125.929 113.728L124.088 80.7031L127.772 84.0112L139.665 113.503Z" fill="#2F2E43"/>
<path d="M127.772 45.3806L124.088 80.7046H142.178L143.581 69.2401C144.445 62.1586 143.007 54.9861 139.481 48.7949L136.706 43.9238L127.772 45.3806Z" fill="#D5D5D6"/>
<path d="M126.15 90.7409C126.42 90.0353 126.861 89.4056 127.435 88.9048L129.865 81.3984L133.53 82.6857L130.671 90.1592C130.749 90.9129 130.636 91.6691 130.346 92.3697C129.649 94.1249 128.142 95.1846 126.986 94.7344C125.83 94.2842 125.458 92.4961 126.155 90.7409H126.15Z" fill="#F3A3A6"/>
<path d="M127.09 87.4219L131.127 89.4856L139.813 73.3272V73.2994L140.969 55.2239C141.146 52.457 139.232 49.9886 136.514 49.4879C134.849 49.1819 133.17 49.6523 131.908 50.7802C130.641 51.9082 129.979 53.5294 130.084 55.2239L131.059 70.745L127.09 87.4244V87.4219Z" fill="#D5D5D6"/>
</g>
<defs>
<clipPath id="clip0_4358_4025">
<rect width="175" height="151" fill="white"/>
</clipPath>
</defs>
</svg>
