<svg width="138" height="151" viewBox="0 0 138 151" fill="none" xmlns="http://www.w3.org/2000/svg">
<g clip-path="url(#clip0_4363_4270)">
<path d="M3.14499 42.3923C4.87208 41.2105 7.09488 43.815 5.88571 45.4365C4.66344 47.0757 1.99125 46.611 1.07112 44.9374C-0.1029 42.8019 1.06622 40.2617 2.95825 39.022C5.10754 37.6137 7.74164 37.5345 10.2233 37.6665C12.73 37.7998 15.176 37.9767 17.6732 37.6172C19.787 37.3076 21.8525 36.7281 23.8189 35.8929C27.8621 34.1938 31.4124 31.5031 34.142 28.0693C35.4157 26.4527 36.6061 24.6356 37.3353 22.7003C37.8969 21.2096 38.1629 19.2491 37.3671 17.7899C37.1941 17.4616 36.9501 17.176 36.6529 16.9538C36.3557 16.7316 36.0128 16.5784 35.6491 16.5053C35.2854 16.4322 34.9099 16.4411 34.55 16.5312C34.1901 16.6214 33.8548 16.7906 33.5684 17.0265C32.2422 18.1135 31.8841 20.1319 32.8981 21.5383C33.9861 23.0475 36.0394 23.5648 37.8071 23.29C40.2639 22.9081 42.2534 21.173 44.1342 19.6791L58.0637 8.61565C60.3606 6.79133 62.634 4.93166 64.9605 3.14527C66.8524 1.69255 69.1611 0.283962 71.6252 1.0599C72.6185 1.37268 73.6196 2.11341 73.8679 3.17762C73.9606 3.66493 73.9187 4.16833 73.7466 4.63355C73.5745 5.09877 73.2787 5.50816 72.8911 5.81759C72.714 5.96801 72.5077 6.07996 72.2851 6.14633C72.0625 6.2127 71.8285 6.23205 71.598 6.20314C71.3676 6.17423 71.1456 6.0977 70.9463 5.97841C70.747 5.85911 70.5746 5.69966 70.4402 5.51017C69.9209 4.78563 69.8782 3.75262 70.1773 2.93392C70.9765 0.745939 73.9095 0.517024 75.8667 0.694972C78.1761 0.929087 80.4069 1.66361 82.4039 2.84748C86.5401 5.2509 89.5991 9.16065 91.3933 13.5559C93.3814 18.4258 93.9938 23.8147 93.9127 29.0426C93.8961 30.1089 93.8224 31.2883 93.2224 32.2077C92.6349 33.1081 91.6097 33.3807 90.6903 32.7785C90.3908 32.5824 90.0059 32.2004 90.0839 31.7974C90.1819 31.2916 91.1898 31.2877 91.5935 31.307C92.6982 31.36 93.7427 31.9171 94.534 32.6682C96.4146 34.4533 96.5608 37.1845 96.3156 39.6131C96.0464 42.2791 95.2783 44.9308 95.5834 47.6297C96.0831 52.0513 99.7097 54.5083 103.272 56.541C105.096 57.5821 106.96 58.5773 108.6 59.9017C110.272 61.2567 111.736 62.8503 112.944 64.6313C115.332 68.1456 116.74 72.2334 117.022 76.4733C117.164 78.5918 116.997 80.7196 116.526 82.7898C116.057 84.8146 115.319 87.3671 113.374 88.4548C112.911 88.72 112.377 88.8365 111.846 88.7888C111.314 88.741 110.81 88.5313 110.401 88.1878C109.613 87.5552 109.228 86.4323 110.042 85.6419C110.716 84.987 111.795 85.125 112.609 85.3912C113.589 85.7118 114.351 86.31 115.082 87.0166C116.474 88.3636 118.103 90.0172 120.221 89.587C120.612 89.5075 120.447 88.9086 120.056 88.988C117.499 89.5073 115.958 86.5347 114.072 85.3902C112.707 84.5617 110.376 83.9456 109.309 85.5615C108.158 87.3053 110.009 89.1868 111.729 89.4114C113.965 89.7034 115.516 87.5158 116.267 85.7102C118.008 81.5226 118.062 76.6124 116.997 72.2519C115.932 67.8236 113.63 63.7898 110.359 60.6215C108.708 59.0473 106.816 57.8406 104.841 56.7173C102.848 55.5834 100.771 54.4956 99.0657 52.9393C98.1211 52.106 97.3696 51.0765 96.8636 49.9227C96.3576 48.769 96.1092 47.5187 96.1358 46.259C96.1541 43.3577 97.0865 40.5423 97.0283 37.6353C96.9802 35.2252 96.1614 32.8717 94.0656 31.5148C93.202 30.9286 92.1707 30.6406 91.1285 30.6946C90.7045 30.7294 90.109 30.8009 89.7598 31.0664C89.4785 31.2802 89.4252 31.7808 89.482 32.1044C89.6167 32.873 90.3433 33.4068 91.0491 33.6207C91.4782 33.7587 91.9388 33.7642 92.371 33.6366C92.8033 33.509 93.1871 33.2542 93.4725 32.9053C94.1512 32.1211 94.3869 31.0754 94.4829 30.0684C94.6131 28.7042 94.5411 27.3028 94.481 25.9363C94.2367 20.3829 93.1398 14.6967 90.2549 9.87361C87.8027 5.77385 83.9889 2.33628 79.416 0.815453C77.2612 0.0988152 74.705 -0.330668 72.4816 0.321102C70.5686 0.881871 69.1027 2.45695 69.4185 4.54305C69.6859 6.30894 71.5149 7.53035 73.1267 6.41577C73.507 6.15276 73.826 5.81076 74.0621 5.41311C74.2981 5.01546 74.4456 4.57153 74.4945 4.11164C74.5433 3.65175 74.4924 3.18673 74.3452 2.74832C74.198 2.30992 73.9579 1.90846 73.6414 1.57136C72.0833 -0.060997 69.5426 -0.0492494 67.5984 0.780326C66.4276 1.2799 65.3911 2.0284 64.3913 2.80598C63.1169 3.79716 61.8605 4.81208 60.5962 5.81619L45.3667 17.9122C44.1647 18.8669 42.982 19.8565 41.7398 20.759C40.5807 21.6011 39.3019 22.3811 37.875 22.6515C35.8657 23.0322 32.6849 22.0337 32.9286 19.4841C33.0232 18.494 33.6788 17.4004 34.6808 17.1164C35.6631 16.8381 36.5904 17.4702 36.9556 18.3651C37.7606 20.3379 36.8152 22.5946 35.8749 24.3265C33.5468 28.6147 29.8744 32.107 25.5714 34.3793C23.4176 35.5194 21.1091 36.339 18.7187 36.8122C16.0337 37.3399 13.399 37.2367 10.6842 37.0719C8.05264 36.9122 5.28925 36.9286 2.94371 38.3005C1.02043 39.4254 -0.262596 41.4655 0.0457005 43.7388C0.313421 45.7129 1.89604 47.2217 3.93719 47.055C5.65044 46.9151 7.37173 45.4514 6.76388 43.5924C6.26053 42.053 4.31762 40.8391 2.83157 41.8559C2.50372 42.0802 2.814 42.6188 3.14499 42.3923Z" fill="#3F3D56"/>
<path d="M134.733 87.2402H119.689C119.454 87.2405 119.229 87.334 119.063 87.5003C118.896 87.6666 118.803 87.892 118.803 88.1271V97.4974C118.803 97.7325 118.896 97.9579 119.063 98.1242C119.229 98.2905 119.454 98.384 119.689 98.3843H134.733C134.968 98.384 135.194 98.2905 135.36 98.1242C135.526 97.9579 135.62 97.7325 135.62 97.4974V88.1271C135.62 87.892 135.526 87.6666 135.36 87.5003C135.194 87.334 134.969 87.2405 134.733 87.2402Z" fill="#F2F2F2"/>
<path d="M134.733 87.2402H119.689C119.454 87.2405 119.229 87.334 119.063 87.5003C118.896 87.6666 118.803 87.892 118.803 88.1271V97.4974C118.803 97.7325 118.896 97.9579 119.063 98.1242C119.229 98.2905 119.454 98.384 119.689 98.3843H134.733C134.968 98.384 135.194 98.2905 135.36 98.1242C135.526 97.9579 135.62 97.7325 135.62 97.4974V88.1271C135.62 87.892 135.526 87.6666 135.36 87.5003C135.194 87.334 134.969 87.2405 134.733 87.2402ZM135.024 93.971C135.021 94.9249 134.644 95.8395 133.974 96.5184C133.304 97.1973 132.395 97.5866 131.441 97.6027C129.915 97.6225 132.286 97.6303 130.445 97.6303C126.235 97.6303 121.845 97.59 120.207 97.564C119.992 97.5595 119.786 97.471 119.635 97.3172C119.484 97.1635 119.399 96.9567 119.398 96.7411V88.1278C119.398 88.0506 119.429 87.9766 119.484 87.9219C119.538 87.8672 119.612 87.8364 119.689 87.8361H134.733C134.81 87.8362 134.884 87.8669 134.939 87.9214C134.993 87.9759 135.024 88.0498 135.024 88.127L135.024 93.971Z" fill="#E6E6E6"/>
<path d="M132.881 81.8457H121.419C121.318 81.8458 121.219 81.8773 121.136 81.9358C121.053 81.9942 120.99 82.0769 120.956 82.1724L119.186 87.1409C119.159 87.2151 119.151 87.2945 119.162 87.3725C119.172 87.4505 119.202 87.5248 119.247 87.5892C119.292 87.6536 119.352 87.7061 119.422 87.7424C119.492 87.7787 119.569 87.7978 119.648 87.7979L135.021 87.8252H135.021C135.103 87.8252 135.183 87.805 135.254 87.7664C135.326 87.7278 135.387 87.672 135.432 87.6041C135.477 87.5361 135.504 87.4581 135.511 87.3771C135.518 87.296 135.505 87.2144 135.473 87.1396L133.333 82.1438C133.295 82.0553 133.232 81.9798 133.152 81.9268C133.072 81.8738 132.977 81.8456 132.881 81.8457Z" fill="#E6E6E6"/>
<path d="M135.513 87.2479C135.513 87.3145 135.499 87.3804 135.473 87.4416L133.333 91.2873C133.295 91.3756 133.232 91.4508 133.152 91.5037C133.071 91.5566 132.977 91.5849 132.881 91.585H121.419C121.318 91.5849 121.219 91.5535 121.136 91.4951C121.053 91.4366 120.99 91.354 120.956 91.2585L119.186 87.4403C119.164 87.3795 119.155 87.315 119.158 87.2505C119.161 87.186 119.177 87.1227 119.205 87.0644C119.232 87.006 119.271 86.9537 119.319 86.9104C119.367 86.8671 119.423 86.8337 119.484 86.812C119.536 86.793 119.592 86.7833 119.648 86.7833L121.526 86.7798L122.292 86.7784L132.377 86.7607L133.144 86.7594L135.021 86.7559H135.021C135.152 86.7559 135.277 86.8077 135.369 86.9C135.461 86.9923 135.513 87.1174 135.513 87.2479Z" fill="#E6E6E6"/>
<path d="M120.817 94.2695C121.044 94.2695 124.165 94.4604 124.165 94.6877C124.165 94.9151 121.044 95.093 120.817 95.093C120.708 95.093 120.603 95.0496 120.526 94.9724C120.449 94.8952 120.405 94.7904 120.405 94.6813C120.405 94.5721 120.449 94.4673 120.526 94.3901C120.603 94.3129 120.708 94.2695 120.817 94.2695Z" fill="#E6E6E6"/>
<path d="M132.168 78.8223H122.503C122.244 78.8226 121.996 78.9256 121.813 79.1089C121.63 79.2921 121.527 79.5405 121.526 79.7996V91.5838H132.882C132.975 91.5841 133.066 91.5576 133.145 91.5073V79.7996C133.145 79.5405 133.042 79.2921 132.858 79.1089C132.675 78.9256 132.427 78.8226 132.168 78.8223Z" fill="#F2F2F2"/>
<path d="M128.479 79.6152H123.183C122.947 79.6155 122.721 79.7093 122.554 79.8761C122.387 80.0429 122.293 80.269 122.293 80.505V91.5844H132.378V83.5157C132.377 82.4816 131.966 81.4902 131.235 80.759C130.504 80.0278 129.513 79.6164 128.479 79.6152Z" fill="white"/>
<path d="M130.66 90.5996H124.011C123.953 90.5996 123.898 90.6224 123.857 90.6631C123.817 90.7038 123.794 90.7589 123.794 90.8164C123.794 90.8739 123.817 90.929 123.857 90.9697C123.898 91.0103 123.953 91.0332 124.011 91.0332H130.66C130.717 91.0332 130.772 91.0103 130.813 90.9697C130.853 90.929 130.876 90.8739 130.876 90.8164C130.876 90.7589 130.853 90.7038 130.813 90.6631C130.772 90.6224 130.717 90.5996 130.66 90.5996Z" fill="#E4E4E4"/>
<path d="M130.66 89.7422H124.011C123.953 89.7422 123.898 89.7651 123.857 89.8058C123.817 89.8465 123.794 89.9017 123.794 89.9592C123.794 90.0168 123.817 90.072 123.857 90.1127C123.898 90.1534 123.953 90.1762 124.011 90.1762H130.66C130.688 90.1762 130.716 90.1706 130.743 90.1597C130.769 90.1488 130.793 90.1328 130.813 90.1127C130.833 90.0925 130.849 90.0686 130.86 90.0423C130.871 90.0159 130.877 89.9877 130.877 89.9592C130.877 89.9307 130.871 89.9025 130.86 89.8762C130.849 89.8498 130.833 89.8259 130.813 89.8058C130.793 89.7856 130.769 89.7696 130.743 89.7587C130.716 89.7478 130.688 89.7422 130.66 89.7422Z" fill="#E4E4E4"/>
<path d="M126.893 88.8848H124.011C123.953 88.8848 123.898 88.9076 123.857 88.9483C123.817 88.9889 123.794 89.0441 123.794 89.1016C123.794 89.1591 123.817 89.2142 123.857 89.2549C123.898 89.2955 123.953 89.3183 124.011 89.3183H126.893C126.95 89.3183 127.005 89.2955 127.046 89.2549C127.087 89.2142 127.11 89.1591 127.11 89.1016C127.11 89.0441 127.087 88.9889 127.046 88.9483C127.005 88.9076 126.95 88.8848 126.893 88.8848Z" fill="#E4E4E4"/>
<path d="M130.66 87.0898H124.011C123.954 87.09 123.899 87.113 123.858 87.1536C123.818 87.1943 123.795 87.2494 123.795 87.3069C123.795 87.3643 123.818 87.4194 123.858 87.4601C123.899 87.5008 123.954 87.5237 124.011 87.5239H130.66C130.689 87.524 130.717 87.5184 130.743 87.5075C130.77 87.4967 130.794 87.4807 130.814 87.4605C130.834 87.4404 130.85 87.4164 130.861 87.3901C130.872 87.3637 130.878 87.3354 130.878 87.3069C130.878 87.2783 130.872 87.25 130.861 87.2237C130.85 87.1973 130.834 87.1733 130.814 87.1532C130.794 87.133 130.77 87.117 130.743 87.1062C130.717 87.0953 130.689 87.0898 130.66 87.0898Z" fill="#E4E4E4"/>
<path d="M130.66 86.2324H124.011C123.953 86.2324 123.898 86.2553 123.857 86.2959C123.817 86.3366 123.794 86.3917 123.794 86.4492C123.794 86.5067 123.817 86.5619 123.857 86.6025C123.898 86.6432 123.953 86.666 124.011 86.666H130.66C130.717 86.666 130.772 86.6432 130.813 86.6025C130.853 86.5619 130.876 86.5067 130.876 86.4492C130.876 86.3917 130.853 86.3366 130.813 86.2959C130.772 86.2553 130.717 86.2324 130.66 86.2324Z" fill="#E4E4E4"/>
<path d="M126.893 85.375H124.011C123.953 85.375 123.898 85.3979 123.857 85.4386C123.817 85.4793 123.794 85.5345 123.794 85.592C123.794 85.6496 123.817 85.7048 123.857 85.7455C123.898 85.7862 123.953 85.809 124.011 85.809H126.893C126.951 85.809 127.006 85.7862 127.046 85.7455C127.087 85.7048 127.11 85.6496 127.11 85.592C127.11 85.5345 127.087 85.4793 127.046 85.4386C127.006 85.3979 126.951 85.375 126.893 85.375Z" fill="#E4E4E4"/>
<path d="M130.66 83.5801H124.011C123.954 83.5803 123.899 83.6032 123.858 83.6439C123.818 83.6846 123.795 83.7397 123.795 83.7971C123.795 83.8545 123.818 83.9096 123.858 83.9503C123.899 83.991 123.954 84.0139 124.011 84.0141H130.66C130.689 84.0142 130.717 84.0086 130.743 83.9978C130.77 83.9869 130.794 83.9709 130.814 83.9508C130.834 83.9306 130.85 83.9067 130.861 83.8803C130.872 83.8539 130.878 83.8256 130.878 83.7971C130.878 83.7685 130.872 83.7403 130.861 83.7139C130.85 83.6875 130.834 83.6636 130.814 83.6434C130.794 83.6232 130.77 83.6073 130.743 83.5964C130.717 83.5855 130.689 83.58 130.66 83.5801Z" fill="#E4E4E4"/>
<path d="M130.66 82.7227H124.011C123.954 82.7228 123.899 82.7458 123.858 82.7865C123.818 82.8271 123.795 82.8822 123.795 82.9397C123.795 82.9971 123.818 83.0522 123.858 83.0929C123.899 83.1336 123.954 83.1565 124.011 83.1567H130.66C130.689 83.1568 130.717 83.1512 130.743 83.1404C130.77 83.1295 130.794 83.1135 130.814 83.0934C130.834 83.0732 130.85 83.0492 130.861 83.0229C130.872 82.9965 130.878 82.9682 130.878 82.9397C130.878 82.9111 130.872 82.8828 130.861 82.8565C130.85 82.8301 130.834 82.8061 130.814 82.786C130.794 82.7658 130.77 82.7499 130.743 82.739C130.717 82.7281 130.689 82.7226 130.66 82.7227Z" fill="#E4E4E4"/>
<path d="M126.893 81.8652H124.011C123.953 81.8652 123.898 81.8881 123.857 81.9288C123.817 81.9695 123.794 82.0247 123.794 82.0822C123.794 82.1398 123.817 82.195 123.857 82.2357C123.898 82.2764 123.953 82.2993 124.011 82.2993H126.893C126.922 82.2993 126.95 82.2936 126.976 82.2827C127.002 82.2718 127.026 82.2558 127.046 82.2357C127.067 82.2155 127.083 82.1916 127.093 82.1653C127.104 82.139 127.11 82.1107 127.11 82.0822C127.11 82.0537 127.104 82.0255 127.093 81.9992C127.083 81.9729 127.067 81.9489 127.046 81.9288C127.026 81.9086 127.002 81.8927 126.976 81.8818C126.95 81.8708 126.922 81.8652 126.893 81.8652Z" fill="#E4E4E4"/>
<path d="M55.2888 41.2313C58.8322 41.2313 61.7046 38.3577 61.7046 34.8129C61.7046 31.2681 58.8322 28.3945 55.2888 28.3945C51.7455 28.3945 48.873 31.2681 48.873 34.8129C48.873 38.3577 51.7455 41.2313 55.2888 41.2313Z" fill="#FFB6B6"/>
<path d="M62.6119 31.1383C61.9371 30.0938 60.6706 29.3976 59.4429 29.5932C59.3286 28.8094 59.0016 28.072 58.4974 27.4612C57.9932 26.8504 57.3311 26.3897 56.5833 26.1293C55.8355 25.8689 55.0306 25.8187 54.2563 25.9842C53.482 26.1498 52.7679 26.5246 52.1918 27.068C52.0023 26.9346 51.7816 26.8523 51.5511 26.8293C51.3205 26.8062 51.0879 26.843 50.8758 26.9363C50.4532 27.1285 50.0856 27.4237 49.8066 27.7948C49.1021 28.6737 48.649 29.7273 48.4956 30.8433C48.3421 31.9594 48.4941 33.0962 48.9352 34.1328C48.7852 33.5871 49.3318 33.0737 49.8841 32.9513C50.4364 32.8288 51.0158 32.9446 51.5759 32.8649C52.2937 32.7627 52.939 32.3461 53.658 32.2524C54.2623 32.1736 54.8699 32.3286 55.4592 32.4839C56.0484 32.6393 56.6545 32.7977 57.2596 32.7258C57.8648 32.6539 58.6443 34.9481 58.6338 36.564C58.6318 36.8703 58.6949 37.2634 58.994 37.3284C59.3624 37.4084 59.5759 36.8998 59.9265 36.7612C60.0881 36.7148 60.2614 36.7331 60.4098 36.812C60.5583 36.891 60.6703 37.0245 60.7222 37.1844C60.7664 37.347 60.7711 37.5179 60.736 37.6827C60.7009 37.8475 60.6269 38.0015 60.5203 38.1319C60.3048 38.3905 60.0489 38.6125 59.7626 38.7895L59.907 38.9096C60.1472 39.2271 60.6455 39.2409 60.9917 39.0444C61.3228 38.8201 61.5909 38.5147 61.7705 38.1573C62.4111 37.0914 62.973 35.9558 63.199 34.7328C63.4251 33.5099 63.2868 32.1827 62.6119 31.1383Z" fill="#2F2E41"/>
<path d="M62.8143 147.211L59.3495 147.21L57.7012 133.84L62.8152 133.84L62.8143 147.211Z" fill="#FFB6B6"/>
<path d="M62.9365 150.826L52.2812 150.825V150.691C52.2813 149.59 52.7183 148.535 53.4961 147.757C54.2738 146.979 55.3287 146.542 56.4286 146.542H56.4288L58.3751 145.064L62.0065 146.542L62.9367 146.542L62.9365 150.826Z" fill="#2F2E41"/>
<path d="M69.0627 141.089L66.3445 143.238L56.7627 133.772L60.7747 130.6L69.0627 141.089Z" fill="#FFB6B6"/>
<path d="M71.3997 143.851L63.0408 150.461L62.9572 150.356C62.2752 149.492 61.9638 148.393 62.0916 147.301C62.2194 146.208 62.7759 145.21 63.6387 144.528L63.6389 144.528L64.25 142.161L68.0145 141.067L68.7442 140.49L71.3997 143.851Z" fill="#2F2E41"/>
<path d="M44.8971 84.5377L44.6855 88.4393L45.7144 89.6827L45.5965 93.5852L46.5947 96.1395L47.2968 104.266L57.1294 138.173L65.9899 135.33L56.3143 103.722L67.9556 103.431L68.3494 85.6088L66.2865 81.6191L44.8971 84.5377Z" fill="#2F2E41"/>
<path d="M66.8356 100.745L67.9552 103.432L63.6262 141.266L57.5525 141.709L54.9297 99.4121L66.8356 100.745Z" fill="#2F2E41"/>
<path d="M60.8837 44.9903L58.8893 42.2285L52.4494 42.4867L52.3259 44.6132L48.0479 85.0365L52.2491 84.9423L57.4643 86.1604L67.495 82.6483L60.8837 44.9903Z" fill="#61AEF2"/>
<path d="M49.6997 85.7833H39.8232L42.4 67.5882L43.4448 60.213C43.4448 60.213 42.7052 54.942 42.3472 52.1881C42.3138 51.8942 42.3647 51.5968 42.4939 51.3308C42.611 51.0815 42.764 50.8507 42.9478 50.6457C44.1491 49.2599 46.8511 48.0581 48.5454 47.4005C49.418 47.0638 50.0245 46.87 50.0245 46.87L52.3254 44.6133C55.628 48.7412 49.6997 85.7833 49.6997 85.7833Z" fill="#3F3D56"/>
<path d="M59.6319 43.4863L62.7651 45.2826C62.7651 45.2826 72.0443 46.8073 72.9467 50.2937L69.531 60.6084V82.2862L61.2506 85.608C61.2506 85.608 54.108 50.5861 59.6319 43.4863Z" fill="#3F3D56"/>
<path opacity="0.4" d="M56.4605 98.5352L54.9297 116.274L57.5361 136.919" fill="black"/>
<path d="M19.5013 65.4902C19.7565 65.3067 20.0488 65.1814 20.3577 65.1232C20.6665 65.0649 20.9844 65.0751 21.2889 65.1531C21.5934 65.231 21.8771 65.3748 22.12 65.5743C22.3629 65.7738 22.5591 66.0242 22.6949 66.3077L30.2862 65.4489L28.487 68.9891L21.5539 69.262C21.0626 69.4586 20.5163 69.468 20.0185 69.2885C19.5207 69.1091 19.106 68.7531 18.853 68.2882C18.5999 67.8233 18.5262 67.2816 18.6457 66.7659C18.7652 66.2503 19.0696 65.7963 19.5013 65.4902Z" fill="#FFB6B6"/>
<path d="M51.3628 49.9883L53.5352 51.2866L41.3685 68.4335L26.5181 69.6957L25.9268 65.4541L36.8684 62.1701L42.2767 51.6829L51.3628 49.9883Z" fill="#3F3D56"/>
<path d="M95.6433 64.041C95.3881 63.8575 95.0958 63.7322 94.7869 63.6739C94.4781 63.6157 94.1602 63.6259 93.8557 63.7039C93.5513 63.7818 93.2676 63.9256 93.0246 64.1251C92.7817 64.3246 92.5855 64.5749 92.4497 64.8585L84.8584 63.9996L86.6577 67.5399L93.5907 67.8128C94.082 68.0093 94.6283 68.0188 95.1262 67.8393C95.624 67.6598 96.0387 67.3039 96.2917 66.839C96.5447 66.374 96.6184 65.8324 96.4989 65.3167C96.3795 64.801 96.075 64.3471 95.6433 64.041Z" fill="#FFB6B6"/>
<path d="M63.7816 48.5391L61.6094 49.8373L73.7761 66.9843L88.6265 68.2465L89.2176 64.0049L78.2762 60.7209L72.8679 50.2337L63.7816 48.5391Z" fill="#3F3D56"/>
<path d="M34.2009 44.5053V44.2787H30.4035V38.9922H30.1775V44.2787H25.8254V40.1961C25.7493 40.256 25.6742 40.3176 25.6 40.3809V44.2787H22.7255C22.6936 44.3537 22.6628 44.4292 22.6337 44.5053H25.6V48.9475H21.917C21.9205 49.0237 21.9257 49.0986 21.9321 49.1742H25.6V52.7181H22.8521C22.8858 52.7942 22.9213 52.8691 22.9584 52.9435H25.6V55.9226H25.8254V52.9435H30.1775V55.9226H30.4035V52.9435H34.2009V52.7181H30.4035C30.4034 52.2527 30.495 51.7918 30.6729 51.3618C30.8509 50.9318 31.1119 50.5411 31.4408 50.212C31.7698 49.8829 32.1604 49.6218 32.5902 49.4437C33.02 49.2657 33.4807 49.1741 33.946 49.1742H34.2009V48.9476H30.4035V44.5053H34.2009ZM30.1775 52.7181H25.8254V49.1742H30.1775V52.7181ZM30.1775 48.9476H25.8254V48.8587C25.8254 48.2869 25.938 47.7208 26.1568 47.1926C26.3755 46.6644 26.6961 46.1845 27.1002 45.7803C27.5044 45.376 27.9841 45.0554 28.5121 44.8366C29.0401 44.6179 29.606 44.5053 30.1775 44.5053V48.9476Z" fill="#E6E6E6"/>
<path d="M67.1945 13.1394C67.1649 13.1516 67.1316 13.1516 67.102 13.1393C67.0724 13.127 67.0488 13.1035 67.0365 13.0739L66.7221 12.3137C66.7098 12.2841 66.7098 12.2508 66.7221 12.2211C66.7344 12.1915 66.7579 12.1679 66.7876 12.1557C66.8172 12.1434 66.8505 12.1434 66.8801 12.1557C66.9098 12.168 66.9333 12.1916 66.9456 12.2212L67.26 12.9814C67.2722 13.011 67.2722 13.0443 67.2599 13.0739C67.2476 13.1036 67.2241 13.1271 67.1945 13.1394Z" fill="#3F3D56"/>
<path d="M73.5367 7.50811L72.5982 5.23911C72.5268 5.06666 72.4222 4.90995 72.2904 4.77793C72.1585 4.64591 72.0019 4.54117 71.8296 4.46969C71.6572 4.39821 71.4725 4.36139 71.2859 4.36133C71.0994 4.36127 70.9146 4.39797 70.7422 4.46934L65.937 6.45868C65.7646 6.53004 65.608 6.63468 65.476 6.76661C65.344 6.89854 65.2393 7.05518 65.1679 7.22759C65.0964 7.4 65.0596 7.5848 65.0596 7.77144C65.0595 7.95808 65.0962 8.1429 65.1675 8.31536L70.3167 20.7632C70.3881 20.9357 70.4927 21.0924 70.6245 21.2244C70.7564 21.3564 70.913 21.4612 71.0853 21.5327C71.2577 21.6041 71.4424 21.641 71.629 21.641C71.8155 21.6411 72.0003 21.6044 72.1727 21.533L76.9779 19.5437C77.1503 19.4723 77.3069 19.3677 77.4389 19.2357C77.5708 19.1038 77.6755 18.9472 77.747 18.7748C77.8184 18.6024 77.8553 18.4176 77.8553 18.2309C77.8554 18.0443 77.8187 17.8595 77.7473 17.687L74.2049 9.12322C74.2157 9.11872 74.2256 9.11212 74.2339 9.1038C74.2423 9.09548 74.2489 9.0856 74.2534 9.07473C74.2579 9.06386 74.2602 9.0522 74.2602 9.04043C74.2602 9.02866 74.2579 9.017 74.2534 9.00612L73.6538 7.55667C73.6493 7.54579 73.6427 7.5359 73.6344 7.52758C73.6261 7.51925 73.6162 7.51264 73.6053 7.50814C73.5945 7.50363 73.5828 7.5013 73.571 7.5013C73.5593 7.5013 73.5476 7.50361 73.5367 7.50811Z" fill="#3F3D56"/>
<path d="M72.3229 5.36424L77.4647 17.7942C77.5716 18.0524 77.5723 18.3423 77.4667 18.6011C77.3612 18.8598 77.1578 19.0664 76.9008 19.1759C76.8976 19.178 76.8941 19.1797 76.8905 19.181L72.0619 21.18C71.8018 21.2877 71.5097 21.2875 71.2497 21.1797C70.9896 21.0719 70.7831 20.8651 70.6754 20.6049L65.5336 8.17496C65.4804 8.04615 65.453 7.90811 65.4531 7.76872C65.4532 7.62934 65.4808 7.49134 65.5342 7.3626C65.5876 7.23386 65.6658 7.1169 65.7644 7.01842C65.863 6.91993 65.98 6.84183 66.1088 6.78859L66.6944 6.54616C66.6947 6.62894 66.7155 6.71035 66.7548 6.78321C66.7941 6.85607 66.8506 6.91814 66.9196 6.96395C66.9885 7.00975 67.0676 7.03789 67.15 7.04587C67.2323 7.05384 67.3154 7.04142 67.3918 7.0097L70.1448 5.86999C70.2048 5.84507 70.2594 5.80845 70.3051 5.76226C70.3523 5.71581 70.3899 5.6605 70.4156 5.5995C70.4414 5.5385 70.4549 5.47301 70.4553 5.40679C70.4557 5.34057 70.443 5.27493 70.418 5.21362C70.3929 5.15231 70.3561 5.09655 70.3095 5.04953L70.9374 4.78958C71.1973 4.68201 71.4892 4.68212 71.7491 4.78989C72.0089 4.89766 72.2153 5.10425 72.3229 5.36424Z" fill="#61AEF2"/>
<path d="M66.6584 11.8425C66.6287 11.8548 66.5955 11.8547 66.5658 11.8424C66.5362 11.8302 66.5127 11.8066 66.5004 11.777L66.186 11.0169C66.1737 10.9872 66.1737 10.9539 66.186 10.9243C66.1983 10.8946 66.2218 10.8711 66.2515 10.8588C66.2811 10.8465 66.3144 10.8465 66.344 10.8588C66.3736 10.8711 66.3972 10.8947 66.4094 10.9243L66.7239 11.6845C66.7361 11.7141 66.7361 11.7474 66.7238 11.7771C66.7115 11.8067 66.688 11.8302 66.6584 11.8425Z" fill="#3F3D56"/>
<path d="M66.0257 10.3761C65.9961 10.3883 65.9628 10.3883 65.9332 10.376C65.9036 10.3637 65.88 10.3402 65.8677 10.3106L65.5533 9.55043C65.5472 9.53574 65.544 9.51998 65.5439 9.50406C65.5439 9.48814 65.547 9.47236 65.5531 9.45765C65.5592 9.44293 65.5681 9.42955 65.5793 9.41829C65.5906 9.40703 65.6039 9.39809 65.6186 9.392C65.6333 9.38592 65.6491 9.38279 65.665 9.38281C65.6809 9.38283 65.6967 9.38599 65.7114 9.39211C65.7261 9.39824 65.7394 9.4072 65.7506 9.41849C65.7619 9.42978 65.7707 9.44318 65.7768 9.45791L66.0912 10.2181C66.1034 10.2477 66.1034 10.281 66.0911 10.3106C66.0789 10.3403 66.0553 10.3638 66.0257 10.3761Z" fill="#3F3D56"/>
<path d="M67.7953 6.23963C67.7831 6.20998 67.7831 6.17669 67.7954 6.14706C67.8076 6.11743 67.8312 6.09388 67.8608 6.08158L68.6206 5.76701C68.6503 5.75474 68.6836 5.75475 68.7132 5.76704C68.7428 5.77933 68.7664 5.80289 68.7786 5.83253C68.7909 5.86218 68.7909 5.89549 68.7786 5.92513C68.7663 5.95477 68.7428 5.97831 68.7131 5.99058L67.9533 6.30516C67.9236 6.31739 67.8903 6.31736 67.8607 6.30507C67.8311 6.29279 67.8076 6.26925 67.7953 6.23963Z" fill="white"/>
<path d="M69.0916 5.82399C69.1584 5.82399 69.2126 5.76983 69.2126 5.70301C69.2126 5.6362 69.1584 5.58203 69.0916 5.58203C69.0248 5.58203 68.9707 5.6362 68.9707 5.70301C68.9707 5.76983 69.0248 5.82399 69.0916 5.82399Z" fill="white"/>
<path d="M95.3197 59.5045C95.3044 59.5045 95.2892 59.5042 95.2738 59.5036C95.0942 59.497 94.9188 59.4472 94.7626 59.3583C94.6064 59.2695 94.474 59.1442 94.3766 58.9931C93.6471 57.9023 92.7518 56.9321 91.7231 56.1176C91.1004 55.6197 90.4497 55.1567 89.8204 54.7089C88.197 53.5542 86.6682 52.4665 85.8195 50.9637C83.9691 47.6868 86.1482 43.1225 89.2612 41.0756C92.7528 38.7798 97.3456 38.4197 101.788 38.3725C102.25 38.3676 102.712 38.3652 103.175 38.3652C111.18 38.3683 119.168 39.099 127.041 40.5484C129.659 41.0316 132.399 41.6235 134.602 43.0601C136.791 44.4881 138.121 46.7369 137.991 48.7893C137.802 51.7855 134.627 54.0243 131.736 54.6096C128.98 55.167 126.118 54.7903 123.087 54.3914C122.418 54.3034 121.726 54.2123 121.042 54.1332C113.608 53.2735 99.6413 55.9232 99.0504 56.0365L98.4642 56.1488L96.1897 59.0769C96.0873 59.2104 95.9556 59.3185 95.8047 59.3926C95.6538 59.4668 95.4878 59.505 95.3197 59.5045Z" fill="#61AEF2"/>
<path d="M128.427 44.8895H97.003C96.8217 44.8895 96.6478 44.8174 96.5196 44.6891C96.3914 44.5608 96.3193 44.3869 96.3193 44.2055C96.3193 44.0241 96.3914 43.8501 96.5196 43.7218C96.6478 43.5935 96.8217 43.5215 97.003 43.5215H128.427C128.608 43.5215 128.782 43.5935 128.91 43.7218C129.038 43.8501 129.11 44.0241 129.11 44.2055C129.11 44.3869 129.038 44.5608 128.91 44.6891C128.782 44.8174 128.608 44.8895 128.427 44.8895Z" fill="white"/>
<path d="M128.426 49.0867H97.0028C96.8216 49.0867 96.6479 49.0147 96.5198 48.8866C96.3916 48.7584 96.3195 48.5847 96.3193 48.4034C96.3191 48.2222 96.3909 48.0483 96.5187 47.9199C96.6466 47.7915 96.8202 47.7192 97.0014 47.7188H128.426C128.607 47.7191 128.781 47.7913 128.909 47.9195C129.037 48.0477 129.109 48.2215 129.109 48.4027C129.109 48.5839 129.037 48.7577 128.909 48.886C128.781 49.0142 128.607 49.0864 128.426 49.0867Z" fill="white"/>
<path d="M100.665 53.2859H97.0028C96.8217 53.2856 96.6481 53.2134 96.5202 53.0852C96.3922 52.9569 96.3203 52.7832 96.3203 52.602C96.3203 52.4208 96.3922 52.247 96.5202 52.1187C96.6481 51.9905 96.8217 51.9183 97.0028 51.918H100.665C100.846 51.9183 101.02 51.9905 101.147 52.1187C101.275 52.247 101.347 52.4208 101.347 52.602C101.347 52.7832 101.275 52.9569 101.147 53.0852C101.02 53.2134 100.846 53.2856 100.665 53.2859Z" fill="white"/>
<path d="M95.7072 64.2745C97.5427 64.2745 99.0306 62.786 99.0306 60.9498C99.0306 59.1135 97.5427 57.625 95.7072 57.625C93.8717 57.625 92.3838 59.1135 92.3838 60.9498C92.3838 62.786 93.8717 64.2745 95.7072 64.2745Z" fill="white"/>
<path d="M95.7077 64.3147C95.0424 64.3147 94.392 64.1173 93.8388 63.7475C93.2856 63.3777 92.8544 62.8521 92.5998 62.2372C92.3452 61.6223 92.2786 60.9456 92.4084 60.2928C92.5382 59.64 92.8586 59.0403 93.329 58.5697C93.7995 58.099 94.3989 57.7785 95.0514 57.6487C95.704 57.5188 96.3804 57.5854 96.9951 57.8402C97.6097 58.0949 98.1351 58.5262 98.5048 59.0796C98.8744 59.6331 99.0717 60.2837 99.0717 60.9493C99.0707 61.8415 98.7159 62.6969 98.0853 63.3278C97.4546 63.9588 96.5996 64.3136 95.7077 64.3147Z" fill="#3F3D56"/>
<path d="M95.4592 62.2783C95.4521 62.2783 95.4451 62.2781 95.438 62.2778C95.3754 62.2747 95.3142 62.2582 95.2586 62.2293C95.203 62.2004 95.1543 62.1598 95.1158 62.1103L94.5604 61.396C94.5253 61.3509 94.4995 61.2993 94.4843 61.2443C94.4692 61.1892 94.465 61.1316 94.4721 61.0749C94.4792 61.0183 94.4973 60.9635 94.5256 60.9139C94.5538 60.8642 94.5915 60.8206 94.6366 60.7855L94.6566 60.7699C94.7017 60.7348 94.7532 60.709 94.8083 60.6938C94.8634 60.6786 94.9209 60.6745 94.9776 60.6815C95.0343 60.6886 95.089 60.7068 95.1387 60.7351C95.1883 60.7633 95.2319 60.8011 95.2669 60.8462C95.295 60.8823 95.3305 60.9118 95.371 60.9329C95.4115 60.9539 95.4561 60.966 95.5017 60.9682C95.5473 60.9704 95.5929 60.9627 95.6352 60.9457C95.6776 60.9287 95.7158 60.9028 95.7472 60.8696L96.8749 59.6786C96.9543 59.595 97.0636 59.5463 97.1788 59.5431C97.2941 59.54 97.4059 59.5827 97.4897 59.6619L97.5082 59.6796C97.5497 59.7188 97.583 59.7659 97.6062 59.8181C97.6295 59.8703 97.6423 59.9265 97.6438 59.9836C97.6454 60.0407 97.6357 60.0976 97.6152 60.1509C97.5948 60.2043 97.5641 60.2531 97.5248 60.2945L95.7748 62.1425C95.7342 62.1854 95.6853 62.2196 95.631 62.2429C95.5767 62.2663 95.5183 62.2783 95.4592 62.2783Z" fill="white"/>
<path d="M33.6533 17.9718L31.6201 5.73951C31.5792 5.49188 31.6382 5.23814 31.7841 5.03397C31.93 4.82979 32.1509 4.69185 32.3983 4.6504L41.6326 3.11423C41.8802 3.07334 42.1338 3.13235 42.3379 3.2783C42.542 3.42426 42.6799 3.64524 42.7213 3.89278L44.7545 16.125C44.7954 16.3727 44.7364 16.6264 44.5905 16.8306C44.4446 17.0347 44.2238 17.1727 43.9763 17.2141L34.742 18.7503C34.4945 18.7912 34.2408 18.7322 34.0367 18.5862C33.8326 18.4403 33.6948 18.2193 33.6533 17.9718Z" fill="#3F3D56"/>
<path d="M33.7467 14.1594L32.4396 6.29543C32.4013 6.06352 32.4565 5.82589 32.5932 5.63467C32.7298 5.44345 32.9367 5.31426 33.1684 5.27545L41.1045 3.95523C41.3364 3.91692 41.5739 3.97218 41.7651 4.10887C41.9562 4.24556 42.0854 4.45252 42.1242 4.68435L43.9335 15.5694C43.9717 15.8013 43.9165 16.0389 43.7799 16.2302C43.6432 16.4214 43.4363 16.5506 43.2046 16.5894L38.2883 17.4072C37.2557 17.5778 36.1977 17.3317 35.3462 16.7228C34.4948 16.1139 33.9196 15.1921 33.7467 14.1594Z" fill="white"/>
<path d="M34.0897 8.27585C34.0523 8.04923 34.1063 7.81701 34.2398 7.63015C34.3733 7.44329 34.5755 7.31705 34.8019 7.27913L40.3072 6.3633C40.4194 6.34464 40.5341 6.34826 40.6449 6.37397C40.7557 6.39967 40.8603 6.44696 40.9529 6.51312C41.0454 6.57928 41.124 6.66303 41.1841 6.75957C41.2443 6.85611 41.2849 6.96357 41.3035 7.0758C41.3222 7.18803 41.3185 7.30283 41.2929 7.41366C41.2672 7.52449 41.2199 7.62917 41.1537 7.72172C41.0876 7.81428 41.0039 7.8929 40.9074 7.95309C40.8109 8.01328 40.7035 8.05386 40.5913 8.07252L35.086 8.98835C34.8595 9.02578 34.6274 8.97178 34.4406 8.83821C34.2538 8.70463 34.1276 8.50239 34.0897 8.27585Z" fill="#61AEF2"/>
<path d="M34.5311 10.9341C34.4937 10.7074 34.5477 10.4752 34.6812 10.2884C34.8147 10.1015 35.0169 9.97526 35.2433 9.93734L40.7486 9.0215C40.9752 8.98381 41.2074 9.03771 41.3943 9.17133C41.5811 9.30495 41.7072 9.50735 41.7449 9.73401C41.7826 9.96066 41.7287 10.193 41.5952 10.3799C41.4616 10.5669 41.2593 10.693 41.0327 10.7307L35.5274 11.6466C35.3009 11.684 35.0688 11.63 34.882 11.4964C34.6952 11.3628 34.569 11.1606 34.5311 10.9341Z" fill="#61AEF2"/>
<path d="M34.9735 13.5923C34.9361 13.3656 34.9901 13.1334 35.1236 12.9466C35.2571 12.7597 35.4593 12.6335 35.6857 12.5955L41.191 11.6797C41.3032 11.661 41.4179 11.6647 41.5287 11.6904C41.6395 11.7161 41.7441 11.7634 41.8367 11.8295C41.9292 11.8957 42.0078 11.9794 42.0679 12.076C42.1281 12.1725 42.1687 12.28 42.1873 12.3922C42.206 12.5044 42.2023 12.6192 42.1766 12.7301C42.1509 12.8409 42.1037 12.9456 42.0375 13.0381C41.9714 13.1307 41.8877 13.2093 41.7912 13.2695C41.6947 13.3297 41.5873 13.3703 41.4751 13.3889L35.9698 14.3048C35.7433 14.3422 35.5112 14.2882 35.3244 14.1546C35.1376 14.021 35.0114 13.8188 34.9735 13.5923Z" fill="#61AEF2"/>
<path d="M81.9 142.374L82.0463 139.082C83.5721 138.266 85.2739 137.835 87.004 137.826C84.6229 139.774 84.9205 143.528 83.3061 146.147C82.7964 146.96 82.1103 147.647 81.2988 148.159C80.4872 148.671 79.5709 148.993 78.6179 149.102L76.6253 150.323C76.3519 148.798 76.4122 147.232 76.802 145.733C77.1918 144.233 77.9019 142.836 78.8834 141.638C79.4406 140.971 80.0796 140.377 80.7852 139.87C81.2624 141.129 81.9 142.374 81.9 142.374Z" fill="#F2F2F2"/>
<path d="M108.319 150.679C108.319 150.721 108.311 150.763 108.295 150.802C108.279 150.841 108.255 150.877 108.225 150.907C108.195 150.937 108.16 150.96 108.121 150.976C108.082 150.993 108.04 151.001 107.998 151.001H21.4709C21.3856 151.001 21.3039 150.967 21.2436 150.906C21.1833 150.846 21.1494 150.764 21.1494 150.679C21.1494 150.594 21.1833 150.512 21.2436 150.452C21.3039 150.391 21.3856 150.357 21.4709 150.357H107.998C108.04 150.357 108.082 150.366 108.121 150.382C108.16 150.398 108.195 150.421 108.225 150.451C108.255 150.481 108.279 150.517 108.295 150.556C108.311 150.595 108.319 150.637 108.319 150.679Z" fill="#CCCCCC"/>
<path d="M21.6792 63.834C20.1446 63.8034 11.9016 63.5667 10.5499 63.6249C10.4734 63.3571 7.91098 66.6423 7.84866 66.6627C7.80713 66.7065 7.77682 66.7598 7.76032 66.8179C7.74383 66.876 7.74164 66.9373 7.75394 66.9964C7.76624 67.0556 7.79266 67.1109 7.83095 67.1576C7.86925 67.2043 7.91827 67.2411 7.97384 67.2647C8.12447 67.3563 21.4132 67.1103 21.5742 67.1424C21.6439 67.1413 21.7118 67.1206 21.7701 67.0825C21.8285 67.0445 21.8749 66.9907 21.9041 66.9274L21.9929 66.7284C22.0021 66.3879 22.1136 64.6479 22.0135 64.3503C22.0381 64.2945 22.0484 64.2334 22.0435 64.1726C22.0386 64.1118 22.0187 64.0532 21.9855 64.002C21.9524 63.9508 21.907 63.9086 21.8535 63.8793C21.8001 63.85 21.7401 63.8344 21.6792 63.834Z" fill="#3F3D56"/>
<path opacity="0.17" d="M21.9929 66.7285C21.9149 66.916 21.8152 67.1516 21.5742 67.1429L8.11419 67.294C8.05053 67.2933 7.98812 67.2762 7.93296 67.2444C7.8778 67.2126 7.83174 67.1672 7.79921 67.1124C7.76667 67.0577 7.74876 66.9955 7.74718 66.9318C7.74561 66.8681 7.76042 66.8051 7.79021 66.7488L21.9929 66.7285Z" fill="black"/>
<path d="M10.6133 63.5848C10.4684 63.3341 6.86988 45.5211 6.56954 45.3722L4.11265 42.3654L3.89306 42.2002C3.5877 42.0324 2.8552 42.1459 2.92117 42.6125C3.49837 45.3809 7.2109 61.1482 7.29225 63.6065L7.73915 66.7381C7.74712 66.7914 7.76617 66.8424 7.79506 66.8879C7.82395 66.9334 7.86205 66.9723 7.90689 67.0021C7.95174 67.032 8.00233 67.0521 8.05542 67.0612C8.10851 67.0703 8.16292 67.0681 8.21513 67.0549C8.34323 67.0411 8.46552 66.9941 8.56995 66.9186C8.67439 66.8431 8.75736 66.7417 8.81069 66.6244C8.84418 66.5138 10.7815 63.6489 10.6133 63.5848Z" fill="#3F3D56"/>
<path opacity="0.17" d="M4.11221 42.3644L8.81129 66.6238C8.65414 67.0218 7.9188 67.3005 7.74754 66.7786C7.74454 66.7778 2.9268 42.6262 2.9219 42.6118C2.87057 42.0306 3.83063 42.0121 4.11221 42.3644Z" fill="black"/>
<path d="M4.25293 43.3574L6.63958 46.6853L9.31828 59.4123L8.0729 60.499L4.25293 43.3574Z" fill="#61AEF2"/>
<path d="M20.1387 65.5498L20.7989 65.5767C20.8093 65.3833 20.8412 65.1916 20.8941 65.0053C20.9935 64.5332 21.0825 63.972 20.6706 63.9741C20.3912 63.9472 20.296 64.3012 20.2463 64.6864C20.2335 64.9766 20.1975 65.2653 20.1387 65.5498Z" fill="#2F2E41"/>
<path d="M16.3516 64.662L16.7966 64.6786L17.0118 64.6868C17.0077 64.4508 17.1174 63.9642 16.8504 63.8441C16.8079 63.8258 16.7621 63.8167 16.7158 63.8172C16.4654 63.8027 16.3909 63.9932 16.3681 64.2127C16.3536 64.3452 16.3598 64.486 16.3557 64.5957C16.3557 64.6185 16.3536 64.6413 16.3516 64.662Z" fill="#2F2E41"/>
<path d="M15.0332 64.6073L15.4803 64.6259L15.6935 64.6342C15.6893 64.3629 15.8321 63.7707 15.3975 63.7625C14.9959 63.7397 15.0477 64.2511 15.0373 64.541C15.0373 64.5638 15.0353 64.5865 15.0332 64.6073Z" fill="#2F2E41"/>
<path d="M13.7148 64.5566L14.1598 64.5732L14.3751 64.5815C14.371 64.3123 14.5138 63.7201 14.0791 63.7118C13.6776 63.687 13.7293 64.1984 13.719 64.4904C13.719 64.5131 13.7169 64.5359 13.7148 64.5566Z" fill="#2F2E41"/>
<path d="M12.3955 64.5018L12.8426 64.5204L13.0558 64.5287C13.0516 64.2575 13.1944 63.6673 12.7598 63.657C12.3582 63.6342 12.41 64.1456 12.3996 64.4355C12.3996 64.4583 12.3976 64.4811 12.3955 64.5018Z" fill="#2F2E41"/>
<path d="M11.0771 64.4495L11.5221 64.4661L11.7374 64.4744C11.7333 64.2259 11.8533 63.7062 11.5346 63.6172H11.5325C11.5029 63.6084 11.4722 63.6042 11.4414 63.6047C11.4039 63.6014 11.366 63.6049 11.3297 63.6151H11.3276C11.0502 63.6876 11.0896 64.1224 11.0813 64.3833C11.0813 64.4061 11.0792 64.4288 11.0771 64.4495Z" fill="#2F2E41"/>
<path d="M18.8076 64.3085L19.4679 64.3354C19.4679 64.3106 19.4679 64.2836 19.4699 64.2526C19.4863 64.0951 19.4891 63.9364 19.4782 63.7784C19.4555 63.6045 19.3809 63.4678 19.1719 63.4637C18.9587 63.4513 18.8738 63.5879 18.8407 63.7639C18.833 63.7938 18.8275 63.8243 18.8242 63.855V63.8571C18.8076 64.0186 18.818 64.1925 18.8076 64.3085Z" fill="#2F2E41"/>
<path d="M17.4893 64.2558L18.1495 64.2827C18.1635 64.105 18.1677 63.9267 18.1619 63.7485C18.1433 63.5663 18.0709 63.4172 17.8535 63.4131C17.6341 63.3986 17.5493 63.5477 17.5162 63.732C17.4851 63.91 17.5017 64.1233 17.4893 64.2558Z" fill="#2F2E41"/>
<path d="M16.1709 64.2029L16.3675 64.2112L16.8312 64.2298C16.8291 64.1304 16.8477 63.9855 16.8498 63.8426C16.8515 63.7998 16.8502 63.7569 16.8456 63.7142C16.8291 63.5217 16.7608 63.3622 16.5352 63.3581C16.3054 63.3457 16.2247 63.5051 16.1957 63.6998C16.1667 63.8737 16.1833 64.0745 16.1709 64.2029Z" fill="#2F2E41"/>
<path d="M18.8203 65.498L19.4806 65.5229C19.4785 65.2537 19.6192 64.6615 19.1846 64.6532C18.7499 64.6263 18.8451 65.2268 18.8203 65.498Z" fill="#2F2E41"/>
<path d="M17.502 65.4432L18.1622 65.4701C18.1601 65.1989 18.3009 64.6067 17.8662 64.5984C17.4316 64.5736 17.5268 65.174 17.502 65.4432Z" fill="#2F2E41"/>
<path d="M16.1836 65.3913L16.8439 65.4162C16.8418 65.2236 16.9142 64.8675 16.7962 64.677C16.7705 64.6348 16.7338 64.6004 16.6901 64.5774C16.6463 64.5544 16.5972 64.5438 16.5479 64.5465C16.4801 64.5394 16.412 64.5562 16.3554 64.5942C16.1443 64.7329 16.2043 65.1719 16.1836 65.3913Z" fill="#2F2E41"/>
<path d="M14.8652 65.3387L15.5255 65.3656C15.5234 65.1731 15.5938 64.819 15.48 64.6264C15.4542 64.5836 15.4173 64.5486 15.3732 64.5253C15.329 64.5019 15.2794 64.4911 15.2295 64.4939C15.1617 64.4865 15.0935 64.5033 15.037 64.5415C14.8259 64.6844 14.8859 65.1213 14.8652 65.3387Z" fill="#2F2E41"/>
<path d="M13.5469 65.2859L14.2071 65.3107C14.2051 65.1182 14.2775 64.762 14.1595 64.5715C14.1338 64.5293 14.0971 64.4949 14.0534 64.4719C14.0096 64.449 13.9605 64.4383 13.9112 64.4411C13.8434 64.4339 13.7753 64.4507 13.7187 64.4887C13.5076 64.6274 13.5676 65.0664 13.5469 65.2859Z" fill="#2F2E41"/>
<path d="M12.2285 65.2333L12.8888 65.2602C12.8867 65.0676 12.9571 64.7135 12.8432 64.521C12.8177 64.478 12.7808 64.4428 12.7367 64.4195C12.6925 64.3961 12.6427 64.3853 12.5928 64.3884C12.525 64.381 12.4568 64.3979 12.4003 64.4361C12.1892 64.5789 12.2492 65.0158 12.2285 65.2333Z" fill="#2F2E41"/>
<path d="M10.9102 65.1804L11.5704 65.2053C11.5683 65.0127 11.6387 64.6586 11.5228 64.466C11.4973 64.4237 11.4606 64.3891 11.4168 64.3661C11.373 64.3431 11.3238 64.3326 11.2744 64.3356C11.2067 64.3284 11.1385 64.3453 11.0819 64.3832C10.8708 64.524 10.9309 64.9609 10.9102 65.1804Z" fill="#2F2E41"/>
</g>
<defs>
<clipPath id="clip0_4363_4270">
<rect width="138" height="151" fill="white"/>
</clipPath>
</defs>
</svg>
