<svg width="174" height="151" viewBox="0 0 174 151" fill="none" xmlns="http://www.w3.org/2000/svg">
<g clip-path="url(#clip0_4404_5054)">
<path d="M119.604 46.6736C119.598 50.0854 118.582 53.4188 116.685 56.2522C114.787 59.0857 112.094 61.2919 108.945 62.592C105.797 63.892 102.334 64.2275 98.9945 63.5559C95.6554 62.8844 92.59 61.236 90.1861 58.8192C87.7821 56.4024 86.1475 53.3258 85.489 49.9784C84.8305 46.6309 85.1777 43.1631 86.4866 40.0133C87.7955 36.8635 90.0073 34.1733 92.8425 32.2828C95.6776 30.3924 99.0086 29.3866 102.414 29.3926C104.677 29.3907 106.918 29.8369 109.009 30.7054C111.099 31.574 112.997 32.8478 114.595 34.4537C116.192 36.0595 117.457 37.9658 118.317 40.0629C119.176 42.16 119.614 44.4066 119.604 46.6736Z" fill="#F2F2F2"/>
<path d="M148.263 56.7305L150.685 52.0992C148.513 49.4727 141.39 46.2872 141.39 46.2872L131.749 37.4961C131.646 37.1039 131.442 36.7457 131.157 36.4576C130.872 36.1694 130.517 35.9615 130.126 35.8548C129.736 35.7481 129.324 35.7463 128.933 35.8496C128.541 35.953 128.184 36.1577 127.897 36.4434C127.609 36.729 127.402 37.0854 127.296 37.4768C127.19 37.8681 127.189 38.2805 127.293 38.6724C127.396 39.0644 127.601 39.4221 127.887 39.7096C128.172 39.997 128.528 40.204 128.919 40.3098L139.335 52.8242L148.263 56.7305Z" fill="#9E616A"/>
<path d="M147.091 56.4098L150.51 57.5003C152.996 58.2933 155.675 58.2335 158.123 57.3305C158.864 57.0543 159.512 56.576 159.996 55.9498C160.48 55.3236 160.779 54.5744 160.859 53.7868C160.962 52.7185 160.655 51.6511 160.002 50.8004C159.349 49.9498 158.398 49.3793 157.341 49.2044C154.135 48.6766 150.004 48.4163 148.53 50.1732L148.515 50.191L147.091 56.4098Z" fill="#3F3D56"/>
<path d="M122.5 70.5887C132.01 70.5887 139.72 62.8654 139.72 53.3383C139.72 43.8112 132.01 36.0879 122.5 36.0879C112.99 36.0879 105.28 43.8112 105.28 53.3383C105.28 62.8654 112.99 70.5887 122.5 70.5887Z" fill="white"/>
<path d="M115.472 46.5912C115.235 47.8632 114.848 49.1023 114.317 50.282C111.28 56.7194 119.93 54.6212 123.022 54.6212C126.402 54.6212 129.636 56.4017 129.142 48.4903C128.931 45.1109 126.402 42.3594 123.022 42.3594C120.135 42.3594 116.075 43.6449 115.472 46.5912Z" fill="#2F2E41"/>
<path d="M122.515 54.6184C125.262 54.6184 127.488 52.3878 127.488 49.6363C127.488 46.8848 125.262 44.6543 122.515 44.6543C119.769 44.6543 117.542 46.8848 117.542 49.6363C117.542 52.3878 119.769 54.6184 122.515 54.6184Z" fill="#FFB6B6"/>
<path d="M119.138 44.5587C120.009 44.0265 121.008 43.7386 122.028 43.7251C123.049 43.7116 124.054 43.9731 124.939 44.4821C125.824 44.9911 126.557 45.729 127.06 46.6186C127.563 47.5083 127.818 48.5169 127.799 49.5392C125.265 50.1766 122.602 50.6643 119.9 49.6917L119.262 48.1269L118.886 49.6928C118.063 50.0298 117.237 50.3149 116.412 49.6896C116.379 48.6702 116.613 47.6598 117.091 46.7594C117.569 45.859 118.275 45.1002 119.138 44.5587Z" fill="#2F2E41"/>
<path d="M135.888 64.8085C132.905 68.209 128.707 70.298 124.199 70.6243C119.692 70.9506 115.237 69.4882 111.797 66.5527L113.274 62.4241C113.608 61.6908 114.134 61.0624 114.798 60.6061C115.461 60.1499 116.235 59.8831 117.038 59.8344L117.978 59.7766L120.219 57.8408C120.219 57.8408 126.255 57.6249 126.166 57.5215L129.823 59.7249L129.82 59.7097L131.257 59.7979C132.06 59.8464 132.835 60.1131 133.498 60.5694C134.161 61.0256 134.688 61.6542 135.022 62.3876L135.888 64.8085Z" fill="#61AEF2"/>
<path d="M120.989 135.89L120.562 129.928C117.759 128.524 114.656 127.827 111.523 127.897C115.931 131.31 115.578 138.131 118.63 142.799C119.593 144.248 120.869 145.461 122.364 146.348C123.859 147.236 125.534 147.775 127.265 147.925L130.932 150.039C131.352 147.261 131.165 144.425 130.386 141.726C129.606 139.027 128.251 136.53 126.415 134.406C125.373 133.224 124.186 132.179 122.884 131.295C122.082 133.601 120.989 135.89 120.989 135.89Z" fill="#F2F2F2"/>
<path d="M9.46595 30.2196L9.03808 24.2579C6.23524 22.8543 3.13275 22.1573 0 22.2275C4.40735 25.6403 4.05433 32.4612 7.10665 37.1293C8.06978 38.578 9.34596 39.7909 10.8406 40.6783C12.3353 41.5656 14.0102 42.1047 15.7411 42.2555L19.4091 44.3694C19.8287 41.5913 19.642 38.755 18.8621 36.0561C18.0821 33.3572 16.7274 30.8597 14.8911 28.7358C13.8492 27.5545 12.663 26.5094 11.3604 25.625C10.5587 27.931 9.46595 30.2196 9.46595 30.2196Z" fill="#F2F2F2"/>
<path d="M137.035 148.024L134.174 148.024L132.812 136.969H137.035L137.035 148.024Z" fill="#9E616A"/>
<path d="M137.765 150.804L128.539 150.803V150.686C128.539 149.732 128.917 148.818 129.591 148.143C130.264 147.468 131.178 147.089 132.13 147.089H132.13L133.815 145.809L136.959 147.09L137.765 147.09L137.765 150.804Z" fill="#2F2E41"/>
<path d="M162.25 148.024L159.389 148.024L158.028 136.969H162.251L162.25 148.024Z" fill="#9E616A"/>
<path d="M162.98 150.804L153.755 150.803V150.686C153.755 149.732 154.133 148.818 154.807 148.143C155.48 147.468 156.393 147.089 157.346 147.089H157.346L159.031 145.809L162.175 147.09L162.981 147.09L162.98 150.804Z" fill="#2F2E41"/>
<path d="M157.9 88.8546L160.306 111.757C160.306 111.757 163.51 134.688 162.908 137.852C162.306 141.016 163.059 141.468 163.059 141.468L157.569 141.076C157.569 141.076 157.719 139.118 156.817 138.214C155.915 137.31 156.366 134.598 156.366 134.598L145.717 97.2922L139.25 116.879C139.25 116.879 138.197 138.425 138.047 138.727C137.896 139.028 137.445 143.096 137.445 143.096H131.88C131.88 143.096 132.632 140.685 131.579 139.932C130.526 139.179 129.624 139.781 130.526 138.425C131.429 137.069 131.73 135.412 131.429 134.658C131.128 133.905 131.128 130.892 131.128 130.892C131.128 130.892 131.579 90.2107 134.136 88.8546C136.693 87.4986 157.9 88.8546 157.9 88.8546Z" fill="#2F2E41"/>
<path d="M146.503 42.4857C149.772 42.4857 152.422 39.831 152.422 36.5563C152.422 33.2816 149.772 30.627 146.503 30.627C143.234 30.627 140.584 33.2816 140.584 36.5563C140.584 39.831 143.234 42.4857 146.503 42.4857Z" fill="#9E616A"/>
<path d="M159.945 91.3511C148.482 93.7225 133.292 89.6455 133.292 89.6455L137.344 72.0489L135.904 53.6338C135.728 51.3819 137.008 49.2709 139 48.5229L141.75 47.4909L144.024 44.2305L150.517 44.4439L153.113 47.8669L155.162 48.9557L159.603 51.3153L159.622 51.3251V51.3349L158.229 64.878L157.388 73.0437C157.388 73.0437 159.941 82.2278 159.417 83.4458C158.893 84.6618 159.349 84.0744 159.476 84.7245C159.603 85.3746 159.992 85.4158 160.05 86.6964C160.111 87.9752 159.945 91.3511 159.945 91.3511Z" fill="#3F3D56"/>
<path d="M173.802 151.001H85.2582C85.2057 151.001 85.1554 150.98 85.1184 150.942C85.0813 150.905 85.0605 150.855 85.0605 150.802C85.0605 150.75 85.0813 150.699 85.1184 150.662C85.1554 150.625 85.2057 150.604 85.2582 150.604H173.802C173.854 150.604 173.905 150.624 173.942 150.662C173.979 150.699 174 150.749 174 150.802C174 150.855 173.979 150.905 173.942 150.943C173.905 150.98 173.854 151.001 173.802 151.001Z" fill="#CCCCCC"/>
<path d="M146.215 42.2005C147.253 42.1899 148.289 42.0905 149.31 41.9033C150.321 41.67 152.551 39.9421 153.159 38.9213C153.611 38.1629 153.882 36.9898 154.03 36.1393C154.23 35.0137 154.191 33.8586 153.917 32.7489C153.643 31.6391 153.139 30.5995 152.438 29.6972C152.168 29.3192 151.801 29.0214 151.376 28.8352C151.338 28.8216 151.3 28.8096 151.26 28.7996C150.644 28.6541 150.085 28.3273 149.656 27.8612C149.572 27.7669 149.482 27.6787 149.386 27.5973C148.904 27.2107 148.337 26.9438 147.733 26.8185C146.756 26.5835 145.359 26.878 143.58 27.6946C142.686 28.1049 141.694 27.9904 140.929 27.8449C140.887 27.8377 140.843 27.8419 140.802 27.8571C140.761 27.8723 140.725 27.8979 140.697 27.9313C140.382 28.2439 139.96 28.4252 139.516 28.4388C139.244 28.4578 138.969 28.8422 138.637 29.3426C138.562 29.4562 138.474 29.5888 138.41 29.6697L138.397 29.5178L138.248 29.6915C138.013 29.9646 137.851 30.2927 137.777 30.6454C137.703 30.9981 137.719 31.3638 137.824 31.7085C137.929 32.0532 138.12 32.3656 138.378 32.6168C138.636 32.8679 138.953 33.0496 139.3 33.1449C139.575 33.2107 139.856 33.2481 140.139 33.2567C140.311 33.2677 140.488 33.2791 140.658 33.3042C141.205 33.4017 141.718 33.6398 142.146 33.995C142.574 34.3503 142.902 34.8107 143.1 35.3312C143.146 35.4514 143.22 35.5594 143.315 35.6467C143.41 35.734 143.523 35.7982 143.647 35.8346C143.77 35.8709 143.901 35.8783 144.027 35.8562C144.154 35.8341 144.274 35.783 144.379 35.707C144.552 35.5646 144.757 35.4663 144.976 35.4204C145.195 35.3746 145.422 35.3825 145.638 35.4435C145.825 35.5417 145.973 35.7014 146.057 35.8959C146.158 36.1124 146.322 36.2937 146.526 36.4168C147.224 36.7547 147.312 38.3293 147.099 39.6494C146.893 40.9218 146.445 41.85 146.01 41.9066C145.675 41.9501 145.637 41.975 145.615 42.0352L145.594 42.089L145.633 42.1379C145.82 42.2004 146.019 42.2218 146.215 42.2005Z" fill="#2F2E41"/>
<path d="M122.5 70.804C119.052 70.804 115.681 69.7797 112.813 67.8604C109.946 65.9412 107.711 63.2133 106.392 60.0217C105.072 56.8301 104.727 53.3182 105.399 49.93C106.072 46.5419 107.733 43.4296 110.171 40.9869C112.61 38.5442 115.716 36.8807 119.098 36.2067C122.481 35.5328 125.986 35.8787 129.172 37.2007C132.358 38.5227 135.081 40.7614 136.997 43.6337C138.913 46.5061 139.935 49.883 139.935 53.3376C139.93 57.9684 138.092 62.408 134.823 65.6824C131.554 68.9569 127.123 70.7988 122.5 70.804ZM122.5 36.3033C119.137 36.3033 115.849 37.3023 113.053 39.1741C110.257 41.0458 108.077 43.7062 106.79 46.8188C105.503 49.9314 105.167 53.3565 105.823 56.6608C106.479 59.9651 108.098 63.0003 110.476 65.3826C112.854 67.7649 115.884 69.3873 119.183 70.0445C122.481 70.7018 125.9 70.3645 129.007 69.0752C132.114 67.7859 134.77 65.6026 136.638 62.8013C138.507 60 139.504 56.7066 139.504 53.3376C139.499 48.8214 137.706 44.4916 134.518 41.2982C131.33 38.1047 127.008 36.3084 122.5 36.3033Z" fill="#3F3D56"/>
<path d="M62.3165 34.7176C71.8267 34.7176 79.5363 26.9943 79.5363 17.4672C79.5363 7.94007 71.8267 0.216797 62.3165 0.216797C52.8062 0.216797 45.0967 7.94007 45.0967 17.4672C45.0967 26.9943 52.8062 34.7176 62.3165 34.7176Z" fill="white"/>
<path d="M63.1131 19.2267C66.2142 19.2267 68.7282 16.7082 68.7282 13.6016C68.7282 10.495 66.2142 7.97656 63.1131 7.97656C60.012 7.97656 57.498 10.495 57.498 13.6016C57.498 16.7082 60.012 19.2267 63.1131 19.2267Z" fill="#FFB8B8"/>
<path d="M68.0574 9.8844C68.0574 9.8844 69.5193 7.08459 66.303 6.83006C66.303 6.83006 63.561 4.3383 60.7661 6.37453C60.7661 6.37453 59.2417 6.37453 58.4081 8.1027C58.4081 8.1027 57.2091 7.64717 56.9456 8.86629C56.9456 8.86629 56.0683 11.4116 56.9456 13.7023C57.8229 15.9931 58.1143 16.2476 58.1143 16.2476C58.1143 16.2476 57.4988 13.4049 61.0078 13.1504C64.5169 12.8958 67.7362 10.6937 68.0286 13.4935C68.321 16.2933 68.6425 15.0285 68.6425 15.0285C68.6425 15.0285 71.4201 11.0298 68.0574 9.8844Z" fill="#2F2E41"/>
<path d="M75.2664 28.9374C72.2831 32.338 68.0846 34.4269 63.5773 34.7532C59.0699 35.0795 54.6152 33.6171 51.1748 30.6816L52.6518 26.553C52.9856 25.8197 53.5123 25.1913 54.1755 24.735C54.8387 24.2788 55.6133 24.0121 56.4163 23.9633L57.356 23.9055L59.5965 21.9697C59.5965 21.9697 65.6334 21.7538 65.5439 21.6504L69.2006 23.8538L69.1976 23.8386L70.6351 23.9268C71.4382 23.9753 72.2129 24.242 72.8762 24.6983C73.5394 25.1545 74.0661 25.7831 74.3997 26.5165L75.2664 28.9374Z" fill="#61AEF2"/>
<path d="M62.3163 34.933C58.8679 34.933 55.497 33.9086 52.6297 31.9893C49.7625 30.0701 47.5277 27.3422 46.2081 24.1506C44.8884 20.959 44.5431 17.4471 45.2159 14.0589C45.8886 10.6708 47.5492 7.55855 49.9876 5.11582C52.426 2.67309 55.5327 1.00957 58.9148 0.335622C62.297 -0.338326 65.8027 0.00756681 68.9886 1.32956C72.1745 2.65156 74.8976 4.89028 76.8134 7.76263C78.7292 10.635 79.7518 14.0119 79.7518 17.4665C79.7466 22.0973 77.9079 26.5369 74.6393 29.8113C71.3706 33.0858 66.9389 34.9277 62.3163 34.933ZM62.3163 0.432198C58.9533 0.432197 55.6657 1.43124 52.8694 3.30299C50.0731 5.17474 47.8936 7.83513 46.6066 10.9477C45.3197 14.0603 44.9829 17.4854 45.639 20.7897C46.2951 24.094 47.9146 27.1292 50.2927 29.5115C52.6707 31.8938 55.7005 33.5162 58.999 34.1735C62.2975 34.8307 65.7164 34.4934 68.8235 33.2041C71.9306 31.9148 74.5863 29.7315 76.4547 26.9302C78.3231 24.1289 79.3204 20.8355 79.3204 17.4665C79.3153 12.9503 77.5221 8.62052 74.3344 5.42708C71.1466 2.23364 66.8245 0.437321 62.3163 0.432198Z" fill="#3F3D56"/>
<path d="M22.1241 61.9442C31.6343 61.9442 39.3439 54.2209 39.3439 44.6938C39.3439 35.1666 31.6343 27.4434 22.1241 27.4434C12.6139 27.4434 4.9043 35.1666 4.9043 44.6938C4.9043 54.2209 12.6139 61.9442 22.1241 61.9442Z" fill="white"/>
<path d="M14.1426 39.0825C14.8546 36.8092 16.4738 34.7243 18.7131 33.9558C20.9525 33.1873 24.2316 34.358 25.9151 36.0388C28.9947 39.1134 29.7462 49.6757 27.6304 53.0135C27.2096 52.9912 25.7575 52.9747 25.3315 52.9587L24.729 50.9469V52.9389C24.0504 52.9178 23.3665 52.9033 22.6774 52.8953C20.3666 52.8666 18.157 51.9416 16.513 50.3146C14.8691 48.6877 13.9188 46.4856 13.8619 44.1713C13.8068 41.9573 13.862 39.9783 14.1426 39.0825Z" fill="#2F2E41"/>
<path d="M21.8685 46.6176C24.5788 46.6176 26.776 44.4166 26.776 41.7014C26.776 38.9862 24.5788 36.7852 21.8685 36.7852C19.1581 36.7852 16.9609 38.9862 16.9609 41.7014C16.9609 44.4166 19.1581 46.6176 21.8685 46.6176Z" fill="#9E616A"/>
<path d="M17.6328 37.3832L23.2834 34.5488C24.4386 35.0703 25.4335 35.8919 26.1649 36.9284C26.8964 37.9649 27.3377 39.1786 27.4431 40.4435L27.5839 42.1336L25.2177 41.5302L24.9585 39.3691L24.5567 41.3616L23.4647 41.0833L23.4751 37.7283L22.3825 41.0809L18.4824 40.1832L17.6328 37.3832Z" fill="#2F2E41"/>
<path d="M34.9022 56.1093C31.9189 59.5098 27.7204 61.5987 23.213 61.9251C18.7056 62.2514 14.2509 60.789 10.8105 57.8535L12.2875 53.7249C12.6213 52.9916 13.148 52.3631 13.8112 51.9069C14.4744 51.4507 15.249 51.1839 16.0521 51.1352L16.9917 51.0774L19.2322 49.1416C19.2322 49.1416 25.2692 48.9257 25.1796 48.8223L28.8364 51.0257L28.8333 51.0105L30.2709 51.0987C31.0739 51.1472 31.8487 51.4139 32.5119 51.8702C33.1751 52.3264 33.7018 52.955 34.0354 53.6884L34.9022 56.1093Z" fill="#61AEF2"/>
<path d="M22.124 62.1615C18.6756 62.1615 15.3046 61.1371 12.4373 59.2178C9.57008 57.2986 7.33533 54.5707 6.01568 51.3791C4.69603 48.1875 4.35075 44.6756 5.0235 41.2875C5.69625 37.8993 7.35682 34.7871 9.79521 32.3443C12.2336 29.9016 15.3403 28.2381 18.7225 27.5641C22.1046 26.8902 25.6103 27.2361 28.7962 28.5581C31.9821 29.8801 34.7052 32.1188 36.621 34.9911C38.5369 37.8635 39.5594 41.2405 39.5594 44.695C39.5542 49.3258 37.7156 53.7654 34.4469 57.0399C31.1783 60.3143 26.7465 62.1562 22.124 62.1615ZM22.124 27.6607C18.7609 27.6607 15.4733 28.6598 12.677 30.5315C9.88071 32.4033 7.70126 35.0636 6.41426 38.1763C5.12727 41.2889 4.79053 44.7139 5.44663 48.0182C6.10274 51.3225 7.72222 54.3578 10.1003 56.7401C12.4783 59.1223 15.5082 60.7447 18.8066 61.402C22.1051 62.0592 25.524 61.7219 28.6311 60.4326C31.7382 59.1433 34.3939 56.96 36.2623 54.1587C38.1307 51.3575 39.128 48.0641 39.128 44.695C39.1229 40.1788 37.3298 35.849 34.142 32.6556C30.9542 29.4622 26.6321 27.6658 22.124 27.6607Z" fill="#3F3D56"/>
<path d="M138.404 62.2868L135.797 57.7578C132.42 58.1876 125.919 62.5072 125.919 62.5072L113.344 65.9539C112.959 65.8307 112.547 65.8113 112.152 65.8979C111.757 65.9845 111.391 66.1739 111.092 66.447C110.793 66.7202 110.571 67.0675 110.448 67.4539C110.325 67.8404 110.307 68.2523 110.394 68.6484C110.48 69.0444 110.67 69.4105 110.943 69.7098C111.216 70.0092 111.563 70.2312 111.949 70.3535C112.335 70.4758 112.746 70.4941 113.141 70.4066C113.536 70.3191 113.902 70.1288 114.2 69.8549L130.328 67.7474L138.404 62.2868Z" fill="#9E616A"/>
<path d="M137.505 63.1083L143.342 58.2109L144.191 54.2689C144.355 53.4944 144.299 52.6895 144.031 51.945C143.762 51.2005 143.29 50.5461 142.67 50.0559C141.824 49.3971 140.76 49.0845 139.693 49.1814C138.626 49.2783 137.636 49.7774 136.922 50.5779C134.76 53.0072 132.328 56.3624 133.019 58.5502L133.026 58.5724L137.505 63.1083Z" fill="#3F3D56"/>
<path d="M48.0485 80.121H26.1182C25.5304 80.1204 24.967 79.8862 24.5514 79.4698C24.1358 79.0535 23.902 78.489 23.9014 77.9003V64.3692C23.902 63.7804 24.1358 63.2159 24.5514 62.7996C24.967 62.3833 25.5304 62.1491 26.1182 62.1484H48.0485C48.6363 62.1491 49.1997 62.3833 49.6153 62.7996C50.0309 63.2159 50.2647 63.7804 50.2654 64.3692V77.9002C50.2647 78.489 50.0309 79.0535 49.6153 79.4698C49.1997 79.8862 48.6363 80.1204 48.0485 80.121Z" fill="#E6E6E6"/>
<path d="M39.3357 78.3794H27.6602C27.1098 78.3788 26.582 78.1595 26.1928 77.7696C25.8036 77.3797 25.5846 76.851 25.584 76.2996V65.9724C25.5846 65.421 25.8036 64.8923 26.1928 64.5024C26.582 64.1125 27.1098 63.8932 27.6602 63.8926H46.5075C47.0579 63.8932 47.5857 64.1125 47.9749 64.5024C48.3641 64.8923 48.583 65.421 48.5836 65.9724V69.1152C48.5808 71.5713 47.6056 73.9261 45.8719 75.6629C44.1382 77.3997 41.7876 78.3766 39.3357 78.3794Z" fill="white"/>
<path d="M44.6269 69.5464H29.5399C29.4094 69.5464 29.2842 69.4944 29.192 69.402C29.0997 69.3096 29.0479 69.1842 29.0479 69.0535C29.0479 68.9227 29.0997 68.7974 29.192 68.7049C29.2842 68.6125 29.4094 68.5605 29.5399 68.5605H44.6269C44.7574 68.5605 44.8825 68.6125 44.9748 68.7049C45.0671 68.7974 45.1189 68.9227 45.1189 69.0535C45.1189 69.1842 45.0671 69.3096 44.9748 69.402C44.8825 69.4944 44.7574 69.5464 44.6269 69.5464Z" fill="#61AEF2"/>
<path d="M31.8999 71.4937H29.5399C29.4094 71.4937 29.2843 71.4417 29.192 71.3493C29.0997 71.2569 29.0479 71.1315 29.0479 71.0007C29.0479 70.87 29.0997 70.7446 29.192 70.6522C29.2843 70.5597 29.4094 70.5078 29.5399 70.5078H31.8999C32.0304 70.5078 32.1556 70.5597 32.2478 70.6522C32.3401 70.7446 32.392 70.87 32.392 71.0007C32.392 71.1315 32.3401 71.2569 32.2478 71.3493C32.1556 71.4417 32.0304 71.4937 31.8999 71.4937Z" fill="#61AEF2"/>
<path d="M36.0797 73.4429H29.5399C29.4095 73.4426 29.2846 73.3906 29.1926 73.2982C29.1005 73.2058 29.0488 73.0805 29.0488 72.95C29.0488 72.8194 29.1005 72.6942 29.1926 72.6018C29.2846 72.5094 29.4095 72.4573 29.5399 72.457H36.0797C36.21 72.4573 36.3349 72.5094 36.427 72.6018C36.519 72.6942 36.5707 72.8194 36.5707 72.95C36.5707 73.0805 36.519 73.2058 36.427 73.2982C36.3349 73.3906 36.21 73.4426 36.0797 73.4429Z" fill="#61AEF2"/>
<path d="M23.1362 66.5272C25.6983 66.5272 27.7753 64.4465 27.7753 61.8798C27.7753 59.3131 25.6983 57.2324 23.1362 57.2324C20.5741 57.2324 18.4971 59.3131 18.4971 61.8798C18.4971 64.4465 20.5741 66.5272 23.1362 66.5272Z" fill="#3F3D56"/>
<path d="M104.997 18.7499H83.0664C82.4787 18.7493 81.9152 18.5151 81.4996 18.0987C81.084 17.6824 80.8503 17.1179 80.8496 16.5292V2.99811C80.8503 2.40933 81.084 1.84486 81.4996 1.42853C81.9152 1.0122 82.4787 0.778011 83.0664 0.777344H104.997C105.585 0.778009 106.148 1.0122 106.564 1.42853C106.979 1.84486 107.213 2.40933 107.214 2.99811V16.5292C107.213 17.1179 106.979 17.6824 106.564 18.0987C106.148 18.5151 105.585 18.7493 104.997 18.7499Z" fill="#E6E6E6"/>
<path d="M96.284 17.0083H84.6085C84.058 17.0077 83.5303 16.7884 83.141 16.3985C82.7518 16.0086 82.5329 15.4799 82.5322 14.9285V4.6013C82.5329 4.04987 82.7518 3.52122 83.141 3.13131C83.5303 2.74141 84.058 2.52209 84.6085 2.52148H103.456C104.006 2.5221 104.534 2.74142 104.923 3.13132C105.312 3.52123 105.531 4.04988 105.532 4.6013V7.74407C105.529 10.2003 104.554 12.555 102.82 14.2918C101.086 16.0286 98.7358 17.0055 96.284 17.0083Z" fill="white"/>
<path d="M101.575 8.17528H86.4881C86.3576 8.17528 86.2325 8.12335 86.1402 8.03091C86.0479 7.93847 85.9961 7.81309 85.9961 7.68236C85.9961 7.55164 86.0479 7.42626 86.1402 7.33382C86.2325 7.24138 86.3576 7.18945 86.4881 7.18945H101.575C101.706 7.18945 101.831 7.24138 101.923 7.33382C102.015 7.42626 102.067 7.55164 102.067 7.68236C102.067 7.81309 102.015 7.93847 101.923 8.03091C101.831 8.12335 101.706 8.17528 101.575 8.17528Z" fill="#61AEF2"/>
<path d="M88.8482 10.1226H86.4881C86.3576 10.1226 86.2325 10.0707 86.1402 9.97821C86.0479 9.88577 85.9961 9.76039 85.9961 9.62965C85.9961 9.49892 86.0479 9.37354 86.1402 9.2811C86.2325 9.18865 86.3576 9.13672 86.4881 9.13672H88.8482C88.9787 9.13672 89.1038 9.18865 89.1961 9.2811C89.2884 9.37354 89.3402 9.49892 89.3402 9.62965C89.3402 9.76039 89.2884 9.88577 89.1961 9.97821C89.1038 10.0707 88.9787 10.1226 88.8482 10.1226Z" fill="#61AEF2"/>
<path d="M93.028 12.0718H86.4881C86.3578 12.0715 86.2329 12.0195 86.1408 11.9271C86.0488 11.8347 85.9971 11.7094 85.9971 11.5789C85.9971 11.4483 86.0488 11.3231 86.1408 11.2307C86.2329 11.1383 86.3578 11.0862 86.4881 11.0859H93.028C93.1585 11.0859 93.2836 11.1379 93.3759 11.2303C93.4682 11.3228 93.52 11.4481 93.52 11.5789C93.52 11.7096 93.4682 11.835 93.3759 11.9274C93.2836 12.0199 93.1585 12.0718 93.028 12.0718Z" fill="#61AEF2"/>
<path d="M80.0845 21.3631C82.6466 21.3631 84.7236 19.2824 84.7236 16.7157C84.7236 14.1491 82.6466 12.0684 80.0845 12.0684C77.5223 12.0684 75.4453 14.1491 75.4453 16.7157C75.4453 19.2824 77.5223 21.3631 80.0845 21.3631Z" fill="#3F3D56"/>
</g>
<defs>
<clipPath id="clip0_4404_5054">
<rect width="174" height="151" fill="white"/>
</clipPath>
</defs>
</svg>
