<svg width="80" height="22" viewBox="0 0 80 22" fill="none" xmlns="http://www.w3.org/2000/svg">
<path d="M10.5219 17.0174H8.58235V9.51392H1.93951V17.0174H0V0.767981H1.93951V7.80858H8.58235V0.767981H10.5219V17.0174Z" fill="#303233"/>
<path d="M22.5479 17.0174H20.3659L17.2627 10.5128H14.9353V17.0174H12.9958V0.767981H17.9415C19.2507 0.767981 20.3175 1.2065 21.1417 2.08353C21.966 2.96056 22.3782 4.13805 22.3782 5.61601C22.3782 6.96404 22.063 8.02784 21.4327 8.80743C20.8023 9.58701 20.0427 10.058 19.1537 10.2204L22.5479 17.0174ZM17.7233 8.80743C18.5476 8.80743 19.1941 8.51508 19.6629 7.9304C20.1477 7.34571 20.3902 6.58237 20.3902 5.64037C20.3902 4.69838 20.1477 3.93503 19.6629 3.35035C19.1941 2.76566 18.5476 2.47332 17.7233 2.47332H14.9353V8.80743H17.7233Z" fill="#303233"/>
<path d="M33.1577 17.3097C31.1374 17.3097 29.5292 16.6276 28.3332 15.2633L29.3999 13.7773C30.3859 14.9791 31.6385 15.58 33.1577 15.58C34.1275 15.58 34.8629 15.3283 35.3639 14.8248C35.865 14.3051 36.1155 13.6717 36.1155 12.9246C36.1155 12.21 35.865 11.6009 35.3639 11.0974C34.8629 10.5777 34.2568 10.1555 33.5456 9.83063C32.8345 9.5058 32.1152 9.15661 31.3879 8.78306C30.6768 8.40951 30.0707 7.88979 29.5696 7.2239C29.0686 6.54176 28.8181 5.72158 28.8181 4.76334C28.8181 3.529 29.2545 2.51392 30.1272 1.7181C31 0.906032 32.1072 0.5 33.4487 0.5C35.2266 0.5 36.665 1.06845 37.7641 2.20534L36.7458 3.66705C35.8892 2.70882 34.774 2.2297 33.4002 2.2297C32.6567 2.2297 32.0344 2.45708 31.5334 2.91183C31.0324 3.36659 30.7818 3.95128 30.7818 4.66589C30.7818 5.20186 30.9596 5.68097 31.3152 6.10325C31.6869 6.50928 32.1395 6.84223 32.6729 7.10209C33.2062 7.34571 33.7881 7.63805 34.4184 7.97912C35.0649 8.32019 35.6549 8.66937 36.1882 9.02668C36.7216 9.38399 37.1661 9.89559 37.5216 10.5615C37.8934 11.2111 38.0793 11.9582 38.0793 12.8028C38.0793 14.0858 37.6509 15.1578 36.7943 16.0186C35.9539 16.8794 34.7417 17.3097 33.1577 17.3097Z" fill="#303233"/>
<path d="M48.2237 15.6288C47.4803 16.7494 46.4539 17.3097 45.1448 17.3097C43.8356 17.3097 42.8093 16.6439 42.0658 15.3121V21.5H40.3445V5.25058H42.0658V6.93155C42.4052 6.33063 42.8497 5.85151 43.3992 5.4942C43.9487 5.13689 44.5306 4.95824 45.1448 4.95824C46.4539 4.95824 47.4803 5.51856 48.2237 6.63921C48.9672 7.75986 49.339 9.25406 49.339 11.1218C49.339 12.9896 48.9672 14.4919 48.2237 15.6288ZM44.7084 15.7506C45.6296 15.7506 46.3246 15.3202 46.7933 14.4594C47.2782 13.5824 47.5207 12.4698 47.5207 11.1218C47.5207 9.77378 47.2782 8.66937 46.7933 7.80858C46.3246 6.9478 45.6296 6.5174 44.7084 6.5174C44.175 6.5174 43.6578 6.70418 43.1567 7.07773C42.6719 7.43504 42.3082 7.88167 42.0658 8.41763V13.8016C42.3082 14.3376 42.6719 14.8005 43.1567 15.1903C43.6578 15.5638 44.175 15.7506 44.7084 15.7506Z" fill="#303233"/>
<path d="M59.4093 17.0174H57.6637V15.7506C56.9364 16.79 55.9101 17.3097 54.5847 17.3097C53.5988 17.3097 52.7584 16.9524 52.0634 16.2378C51.3845 15.5232 51.0451 14.5731 51.0451 13.3875C51.0451 12.2019 51.3845 11.2599 52.0634 10.5615C52.7422 9.86311 53.5827 9.51392 54.5847 9.51392C55.9424 9.51392 56.9687 10.0174 57.6637 11.0244V8.97796C57.6637 8.18214 57.4536 7.56497 57.0334 7.12645C56.6131 6.68794 56.0232 6.46868 55.2636 6.46868C54.1483 6.46868 53.1705 6.9478 52.3301 7.90603L51.5542 6.66357C52.6371 5.52668 53.9625 4.95824 55.5303 4.95824C56.7425 4.95824 57.688 5.27494 58.3668 5.90835C59.0618 6.52552 59.4093 7.48376 59.4093 8.78306V17.0174ZM55.1423 16.0429C56.2737 16.0429 57.1142 15.5476 57.6637 14.5568V12.3155C57.1304 11.3086 56.2899 10.8051 55.1423 10.8051C54.4312 10.8051 53.8655 11.0568 53.4453 11.5603C53.025 12.0476 52.8149 12.6647 52.8149 13.4118C52.8149 14.1589 53.025 14.7842 53.4453 15.2877C53.8655 15.7912 54.4312 16.0429 55.1423 16.0429Z" fill="#303233"/>
<path d="M66.2834 17.3097C64.8126 17.3097 63.6327 16.7251 62.7438 15.5557C61.871 14.3863 61.4346 12.9084 61.4346 11.1218C61.4346 9.33527 61.871 7.86543 62.7438 6.7123C63.6327 5.54292 64.8126 4.95824 66.2834 4.95824C67.6734 4.95824 68.7886 5.47796 69.6291 6.5174L68.6835 7.71114C68.1017 6.91531 67.3501 6.5174 66.4288 6.5174C65.4268 6.5174 64.6429 6.95592 64.0772 7.83295C63.5277 8.70998 63.2529 9.80626 63.2529 11.1218C63.2529 12.4374 63.5277 13.5418 64.0772 14.435C64.6429 15.3121 65.4268 15.7506 66.4288 15.7506C67.3339 15.7506 68.0855 15.3527 68.6835 14.5568L69.6291 15.7506C68.8048 16.79 67.6895 17.3097 66.2834 17.3097Z" fill="#303233"/>
<path d="M75.6361 17.3097C74.1006 17.3097 72.8804 16.7413 71.9753 15.6044C71.0701 14.4513 70.6176 12.9571 70.6176 11.1218C70.6176 9.36775 71.0459 7.90603 71.9025 6.73666C72.7753 5.55104 73.9309 4.95824 75.3694 4.95824C76.8564 4.95824 77.9958 5.54292 78.7878 6.7123C79.5959 7.88167 80 9.36775 80 11.1705V11.7065H72.4116C72.444 12.9246 72.7591 13.9234 73.3572 14.703C73.9552 15.4664 74.7633 15.848 75.7815 15.848C76.8806 15.848 77.81 15.3689 78.5696 14.4107L79.4909 15.4339C78.4726 16.6845 77.1877 17.3097 75.6361 17.3097ZM78.2787 10.4153C78.2625 9.35963 78.012 8.43388 77.5271 7.63805C77.0422 6.82599 76.3149 6.41995 75.3451 6.41995C74.4077 6.41995 73.6885 6.83411 73.1874 7.66241C72.7026 8.47448 72.444 9.39211 72.4116 10.4153H78.2787Z" fill="#303233"/>
</svg>
