<svg width="25" height="18" viewBox="0 0 25 18" fill="none" xmlns="http://www.w3.org/2000/svg">
<path fill-rule="evenodd" clip-rule="evenodd" d="M21.8753 0.176758C22.5944 0.176758 23.233 0.505696 23.6349 1.01448L11.9647 10.3534L0.398574 1.18407C0.785293 0.579975 1.48279 0.176758 2.27898 0.176758H21.8753ZM0.0771484 15.723V2.84122L8.37618 9.42045L0.0942562 15.9861C0.0829675 15.8999 0.0771484 15.8121 0.0771484 15.723ZM0.836146 17.3099C1.22257 17.6301 1.72706 17.8238 2.27898 17.8238H21.8753C22.3497 17.8238 22.789 17.6807 23.1485 17.4372L14.3298 10.3801L12.7439 11.6492C12.2954 12.0081 11.642 12.0095 11.1918 11.6526L9.58206 10.3764L0.836146 17.3099ZM15.529 9.42045L24.017 16.2128C24.0563 16.0557 24.0771 15.8916 24.0771 15.723V2.57991L15.529 9.42045Z" fill="black"/>
</svg>
