<svg width="27" height="26" viewBox="0 0 27 26" fill="none" xmlns="http://www.w3.org/2000/svg">
<path d="M8.19718 9.44951C9.8291 13.9014 11.5186 15.6776 15.8165 17.5696L13.9539 20.1855C9.0185 17.8226 6.56027 13.8396 5.40252 10.7313L8.19718 9.44951Z" fill="black"/>
<path d="M9.56866 3.30401C10.4413 3.3006 11.1048 4.02672 11.0453 4.84892C10.9517 6.1428 11.0514 7.07632 11.3197 8.23344C11.4671 8.86906 11.1336 9.51461 10.6037 9.93042C9.88939 10.4909 9.34368 11.205 8.90996 11.8197C8.30881 12.6718 6.24002 12.6106 5.78251 11.6823C4.84224 9.77465 4.20503 6.26009 5.57808 3.88558C5.79376 3.5126 6.22802 3.31708 6.678 3.31532L9.56866 3.30401Z" fill="black"/>
<path d="M22.8119 17.4201C22.9204 16.6024 22.2369 15.893 21.3655 15.8499C19.9941 15.7821 19.0248 15.5764 17.8407 15.1856C17.1903 14.971 16.4716 15.206 15.9708 15.6528C15.2958 16.2551 14.4795 16.6809 13.7811 17.0136C12.8132 17.4747 12.6287 19.4217 13.5494 19.9623C15.4417 21.0732 19.0595 22.0933 21.7206 21.0916C22.1386 20.9342 22.3964 20.5506 22.4524 20.1289L22.8119 17.4201Z" fill="black"/>
</svg>
