<svg width="402" height="335" viewBox="0 0 402 335" fill="none" xmlns="http://www.w3.org/2000/svg">
<g clip-path="url(#clip0_4364_4643)">
<path d="M100.314 257.81H388.838C390.49 257.811 392.126 257.485 393.653 256.852C395.18 256.219 396.567 255.291 397.735 254.122C398.903 252.952 399.83 251.564 400.462 250.035C401.095 248.507 401.42 246.869 401.42 245.215V78.1968C401.422 77.0805 401.274 75.9691 400.979 74.8926C400.255 72.2243 398.674 69.8688 396.48 68.1896C394.285 66.5104 391.6 65.6009 388.838 65.6016H276.144C273.515 70.0345 271.895 74.9933 271.399 80.1246C270.001 95.0426 278.546 108.834 286.192 121.72C293.837 134.605 301.129 149.587 297.08 164.017C294.342 173.75 286.923 180.793 277.717 185.015C268.871 188.933 259.14 190.417 249.53 189.312C243.758 188.582 238.073 187.283 232.557 185.433C225.323 183.081 218.258 180.033 211.204 176.949C211.198 176.949 211.198 176.949 211.192 176.943C211.07 176.891 210.943 176.833 210.821 176.781C205.362 174.394 199.91 172.002 194.376 169.894C187.891 167.355 181.161 165.499 174.293 164.354C163.857 162.716 153.334 163.309 144.024 168.047C128.849 175.765 120.716 192.442 114.353 208.248C107.925 224.229 102.165 240.744 100.314 257.81Z" fill="#61AEF2"/>
<path d="M0.580078 193.918V245.216C0.579989 246.87 0.905365 248.508 1.53764 250.036C2.16992 251.564 3.09671 252.953 4.26508 254.123C5.43345 255.292 6.82052 256.22 8.34709 256.853C9.87366 257.486 11.5098 257.812 13.1622 257.811H61.1237C61.9532 250.071 61.2571 242.359 58.2117 235.164C51.5755 219.474 35.5187 210.195 20.2102 202.744C13.7771 199.615 7.23367 196.595 0.580078 193.918Z" fill="#61AEF2"/>
<path d="M50.8428 245.964C50.8428 249.305 52.1684 252.508 54.528 254.87C56.8876 257.232 60.0879 258.559 63.4249 258.559H111.386C112.216 250.819 111.52 243.107 108.474 235.912C106.914 232.223 103.27 228.137 98.5209 224.01C79.8894 207.815 50.8428 221.264 50.8428 245.964Z" fill="#61AEF2"/>
<path d="M0 245.216V78.1973C0.00395503 74.7041 1.39195 71.3551 3.85947 68.885C6.32699 66.4149 9.67253 65.0254 13.1621 65.0215H388.838C392.327 65.0254 395.673 66.4149 398.141 68.885C400.608 71.3551 401.996 74.7041 402 78.1973V245.216C401.996 248.709 400.608 252.058 398.141 254.528C395.673 256.998 392.328 258.388 388.838 258.392H13.1621C9.67249 258.388 6.3269 256.998 3.85938 254.528C1.39185 252.058 0.00389513 248.709 0 245.216ZM13.1621 66.1829C9.9801 66.1864 6.92942 67.4534 4.67939 69.7058C2.42936 71.9581 1.16373 75.012 1.16017 78.1973V245.216C1.16367 248.401 2.42926 251.455 4.6793 253.707C6.92934 255.96 9.98006 257.227 13.1621 257.23H388.838C392.02 257.227 395.071 255.96 397.321 253.707C399.571 251.455 400.836 248.401 400.84 245.216V78.1973C400.836 75.012 399.571 71.9581 397.321 69.7058C395.071 67.4534 392.02 66.1864 388.838 66.1829H13.1621Z" fill="#3F3D56"/>
<path d="M124.318 257.399H141.379C144.297 247.564 148.508 237.139 152.354 227.639C159.733 209.424 169.159 190.204 186.753 181.31C194.265 177.513 202.456 176.029 210.821 176.11C222.376 176.22 234.256 179.325 245.133 183.44C249.582 185.12 253.991 186.967 258.382 188.854C274.926 195.97 291.29 203.722 309.082 205.817C331.595 208.466 358.064 198.383 364.213 176.664C368.906 160.036 360.454 142.773 351.59 127.923C342.727 113.073 332.819 97.1834 334.437 79.9897C334.443 79.932 334.449 79.8685 334.461 79.8108C335.07 73.6352 338.753 69.197 343.899 66.3516H321.496C321.2 82.3908 330.47 96.5485 338.811 110.527C347.675 125.372 356.127 142.641 351.434 159.269C345.285 180.981 294.369 155.53 271.856 152.875C265.498 152.13 275.597 154.779 269.535 152.875C260.028 149.891 258.974 177.259 249.721 173.242C243.961 170.737 238.195 168.249 232.354 166.039C229.935 165.121 227.464 164.261 224.963 163.465C224.958 163.465 224.958 163.465 224.952 163.459C208.164 158.137 189.804 156.065 174.293 163.759C174.188 163.811 174.078 163.863 173.974 163.915C156.38 172.803 146.953 192.023 139.575 210.238C133.478 225.296 127.323 241.516 124.318 257.399Z" fill="#3F3D56"/>
<path d="M124.503 137.688H13.5377C12.6284 137.687 11.7564 138.049 11.1135 138.693C10.4706 139.336 10.1094 140.209 10.1094 141.119C10.1094 142.03 10.4706 142.902 11.1135 143.546C11.7564 144.19 12.6284 144.551 13.5377 144.551H124.503C125.413 144.551 126.285 144.19 126.928 143.546C127.57 142.902 127.932 142.03 127.932 141.119C127.932 140.209 127.57 139.336 126.928 138.693C126.285 138.049 125.413 137.687 124.503 137.688Z" fill="#3F3D56"/>
<path d="M48.02 118.445H13.6149C12.7056 118.445 11.8336 118.807 11.1907 119.45C10.5477 120.094 10.1865 120.967 10.1865 121.877C10.1865 122.787 10.5477 123.66 11.1907 124.304C11.8336 124.948 12.7056 125.309 13.6149 125.309H48.02C48.9293 125.309 49.8013 124.948 50.4442 124.304C51.0872 123.66 51.4484 122.787 51.4484 121.877C51.4484 120.967 51.0872 120.094 50.4442 119.45C49.8013 118.807 48.9293 118.445 48.02 118.445Z" fill="#3F3D56"/>
<path d="M180.696 319.336L173.663 319.277L170.55 291.49L180.929 291.578L180.696 319.336Z" fill="#FFB6B6"/>
<path d="M158.17 330.532C158.164 331.366 158.488 332.169 159.073 332.765C159.657 333.36 160.454 333.699 161.287 333.707L175.269 333.824L177.717 328.857L178.616 333.849L183.892 333.897L182.56 316.092L180.724 315.97L173.237 315.453L170.822 315.291L170.78 320.329L159.548 327.955C159.127 328.241 158.782 328.625 158.542 329.074C158.302 329.522 158.174 330.023 158.17 330.532Z" fill="#2F2E41"/>
<path d="M252.046 319.336L245.013 319.277L241.9 291.49L252.279 291.578L252.046 319.336Z" fill="#FFB6B6"/>
<path d="M229.521 330.532C229.514 331.366 229.839 332.169 230.423 332.765C231.008 333.36 231.804 333.699 232.638 333.707L246.62 333.824L249.068 328.857L249.967 333.849L255.243 333.897L253.91 316.092L252.075 315.97L244.588 315.453L242.173 315.291L242.13 320.329L230.898 327.955C230.478 328.241 230.132 328.625 229.892 329.074C229.652 329.522 229.525 330.023 229.521 330.532Z" fill="#2F2E41"/>
<path d="M172.02 96.8127L203.671 72.4288C205.009 71.3917 205.886 69.8697 206.113 68.1911C206.34 66.5125 205.898 64.812 204.883 63.4565C204.358 62.7553 203.696 62.1684 202.938 61.7316C202.179 61.2949 201.339 61.0175 200.469 60.9163C199.6 60.815 198.719 60.8921 197.88 61.1428C197.041 61.3936 196.262 61.8127 195.591 62.3746L163.489 88.7125L143.308 103.893C142.31 103.312 141.157 103.053 140.006 103.15C138.855 103.248 137.762 103.698 136.875 104.439C135.988 105.181 135.351 106.177 135.05 107.293C134.749 108.41 134.798 109.592 135.192 110.679C135.585 111.766 136.303 112.706 137.249 113.37C138.194 114.035 139.321 114.392 140.476 114.393C141.631 114.394 142.759 114.039 143.705 113.376C144.652 112.714 145.372 111.775 145.767 110.689L172.02 96.8127Z" fill="#FFB6B6"/>
<path d="M197.817 102.418L196.422 133.61L243.807 139.35C240.078 126.816 233.964 109.408 236.766 100.686L197.817 102.418Z" fill="#A0616A"/>
<path d="M224.752 45.2363H210.156L203.887 55.9739L200.9 55.8088C195.079 58.0531 192.759 60.3759 189.547 66.5644L178.257 76.0546L186.958 86.507C192.968 85.5213 195.135 80.8512 193.227 72.2743C193.227 72.2743 186.645 83.7565 196.126 89.4053C196.126 89.4053 194.435 100.048 196.126 99.9339C197.817 99.8195 201.712 97.6535 197.817 99.8195C193.922 101.986 194.589 102.079 194.716 102.781C196.82 114.38 198.56 123.091 198.56 123.091L239.746 127.155C239.746 127.155 237.373 102.222 237.502 100.804C237.631 99.3863 236.765 102.852 237.631 99.3863C238.496 95.9206 239.795 97.2202 238.496 95.9206C237.198 94.6209 247.421 93.5017 243.431 87.2562L256.773 83.7721L249.315 66.0288C249.315 60.0379 239.704 55.1813 233.719 55.1813H232.952L224.752 45.2363Z" fill="#E6E6E6"/>
<path d="M240.285 122.445C224.172 127.993 209.666 126.775 197.4 116.123C197.4 116.123 193.948 128.898 190.453 127.156C186.958 125.414 188.686 130.289 187.726 132.076C186.707 133.974 187.89 137.174 184.524 138.263C181.158 139.351 182.422 142.549 181.332 144.903C173.707 161.374 164.998 184.688 159.114 214.26C153.069 244.647 167.816 295.557 167.816 295.557L181.738 294.395L185.218 228.197L201.137 200.215C201.137 200.215 208.958 195.657 204.049 193.345C199.14 191.032 202.429 188.167 206.005 188.728C209.582 189.29 213.642 170.708 213.642 170.708C208.543 183.536 240.326 296.718 240.326 296.718L253.668 295.557L246.127 137.609L240.285 122.445Z" fill="#2F2E41"/>
<path d="M233.415 18.2792C234.997 22.224 239.461 29.9816 240.066 34.2136L239.794 33.9457C239.275 34.8334 238.685 35.6778 238.03 36.4704C236.856 35.2363 235.438 34.2605 233.867 33.605C234.725 35.3674 235.222 37.284 235.328 39.2417C232.422 41.7748 225.001 40.2465 221.293 41.5965C215.326 43.7637 208.991 44.5353 202.735 45.176C200.515 45.4048 198.03 45.5437 196.474 44.2304C194.918 42.917 195.844 40.4849 195.007 38.6454C189.045 25.5424 194.548 20.8149 199.223 14.8735C200.251 13.566 200.247 11.6148 201.499 10.3673C203.236 8.63814 205.899 8.10627 208.354 7.68022C207.716 7.71385 207.08 7.58259 206.508 7.29907C205.936 7.01555 205.446 6.58932 205.086 6.06141C204.77 5.52954 204.607 4.92065 204.615 4.30192C204.622 3.68319 204.801 3.07866 205.13 2.55498C206.008 1.09793 207.832 0.250642 209.593 0.0389741C211.327 -0.0788992 213.068 0.0709862 214.757 0.483371C215.851 0.627376 216.91 0.966261 217.884 1.484C218.344 1.72954 218.718 2.10974 218.956 2.57375C219.194 3.03776 219.285 3.56346 219.217 4.08059C219.07 4.55814 218.817 4.99637 218.478 5.36262C218.139 5.72887 217.721 6.01367 217.256 6.1958C216.548 6.4957 215.802 6.69994 215.04 6.80315C218.542 6.34825 222.099 6.97152 225.238 8.59005C229.172 10.6909 231.827 14.3365 233.415 18.2792Z" fill="#2F2E41"/>
<path d="M212.112 40.395C219.879 40.395 226.175 34.0919 226.175 26.3166C226.175 18.5414 219.879 12.2383 212.112 12.2383C204.344 12.2383 198.048 18.5414 198.048 26.3166C198.048 34.0919 204.344 40.395 212.112 40.395Z" fill="#FFB6B6"/>
<path d="M225.644 18.7675C224.829 21.2345 222.498 22.0295 220.345 22.5253C219.665 22.6837 218.982 22.8314 218.293 22.9628C218.038 22.6444 217.768 22.3323 217.485 22.0373C216.311 20.8032 214.893 19.8273 213.322 19.1719C214.001 20.5641 214.453 22.0565 214.659 23.5921C213.357 23.7812 212.048 23.9357 210.732 24.0557C209.618 24.293 208.456 24.0929 207.485 23.4967C206.514 22.9006 205.809 21.9539 205.516 20.8524C204.318 22.8142 202.901 24.6618 200.963 25.4412C199.855 25.8398 198.648 25.8725 197.52 25.5347C196.392 25.1968 195.401 24.5061 194.694 23.5638C193.534 22.1464 192.887 20.2423 192.422 18.4046C191.872 16.2199 191.567 13.7033 192.647 12.3172C193.512 11.1954 195.004 11.1753 196.381 11.2748C199.419 11.5081 202.426 12.0538 205.354 12.9032L205.601 13.461C205.098 10.4356 206.189 7.52481 208.208 6.48962C209.57 5.79748 211.209 5.91354 212.801 6.05395C214.845 6.14528 216.866 6.53642 218.797 7.21485C221.013 8.06804 222.911 9.58569 224.232 11.5602C225.645 13.7079 226.347 16.637 225.644 18.7675Z" fill="#2F2E41"/>
<path d="M205.595 5.6099C205.734 5.56889 205.374 5.62157 205.499 5.62491C205.437 5.62132 205.376 5.61269 205.315 5.59912C205.305 5.59706 205.165 5.55232 205.258 5.58518C205.049 5.52266 204.862 5.40094 204.721 5.23471C204.391 4.82576 204.132 4.36402 203.955 3.86887C203.731 3.21454 203.372 2.61492 202.9 2.10937C202.767 1.97485 202.603 1.87382 202.423 1.81446C202.243 1.7551 202.051 1.73909 201.864 1.76773C201.676 1.79637 201.498 1.86886 201.344 1.9793C201.19 2.08975 201.064 2.23503 200.976 2.40337C200.703 3.00988 200.953 3.75718 201.148 4.35287C201.35 4.9718 201.65 5.55413 202.036 6.0774C202.685 6.93309 203.568 7.58152 204.578 7.94369C205.747 8.36871 207.021 8.40518 208.213 8.04768C208.37 7.98232 208.505 7.87253 208.601 7.73172C208.697 7.5909 208.751 7.42512 208.754 7.25458C208.758 7.08403 208.712 6.91609 208.622 6.7712C208.532 6.62632 208.402 6.51075 208.248 6.43857L206.261 5.62442C206.156 5.57835 206.044 5.55336 205.929 5.55086C205.815 5.54837 205.702 5.56844 205.595 5.6099C205.489 5.65136 205.391 5.71339 205.309 5.79249C205.226 5.87159 205.16 5.9662 205.114 6.0709C205.068 6.1756 205.043 6.28835 205.041 6.40272C205.038 6.51708 205.058 6.63081 205.099 6.73742C205.141 6.84403 205.203 6.94143 205.282 7.02406C205.361 7.10669 205.455 7.17293 205.56 7.219L207.547 8.03313L207.582 6.42403C207.334 6.49567 207.079 6.53933 206.821 6.55421C206.547 6.58177 206.269 6.57006 205.998 6.51944C205.738 6.4853 205.482 6.42291 205.235 6.33336C205.077 6.27562 204.922 6.2099 204.771 6.13644C204.716 6.10972 204.662 6.08199 204.608 6.05324C204.612 6.05532 204.381 5.92055 204.482 5.98387C204.225 5.81948 203.984 5.63147 203.762 5.42228C203.683 5.3481 203.611 5.26762 203.546 5.18166C203.433 5.04244 203.328 4.89674 203.231 4.74528C203.036 4.42454 202.881 4.08064 202.77 3.72152C202.719 3.57059 202.677 3.41713 202.642 3.26176C202.633 3.17647 202.617 3.09194 202.596 3.00876C202.522 2.81056 202.61 3.1245 202.525 3.21037L202.159 3.48054C202.09 3.50106 202.018 3.50581 201.947 3.49446C201.876 3.4831 201.809 3.45592 201.75 3.41493C201.706 3.35381 201.716 3.36394 201.778 3.44535C201.851 3.54115 201.917 3.64146 201.977 3.74568C202.108 3.99103 202.227 4.2429 202.333 4.50031C202.551 5.04775 202.828 5.57027 203.157 6.05896C203.48 6.55325 203.95 6.93291 204.501 7.14382C205.052 7.35474 205.656 7.38614 206.226 7.23355C206.44 7.14832 206.612 6.98233 206.704 6.77139C206.797 6.56045 206.803 6.32149 206.721 6.10604C206.634 5.89372 206.468 5.72348 206.258 5.63099C206.048 5.5385 205.81 5.53095 205.595 5.6099Z" fill="#2F2E41"/>
<path d="M183.661 158.568C206.627 158.568 225.244 139.931 225.244 116.941C225.244 93.9514 206.627 75.3145 183.661 75.3145C160.695 75.3145 142.077 93.9514 142.077 116.941C142.077 139.931 160.695 158.568 183.661 158.568Z" fill="white"/>
<path d="M183.661 159.148C175.322 159.148 167.17 156.672 160.236 152.034C153.302 147.397 147.898 140.805 144.707 133.092C141.515 125.38 140.68 116.893 142.307 108.706C143.934 100.518 147.95 92.9977 153.846 87.0949C159.743 81.192 167.256 77.1721 175.435 75.5435C183.614 73.9149 192.091 74.7507 199.796 77.9452C207.5 81.1398 214.085 86.5496 218.718 93.4906C223.351 100.432 225.824 108.592 225.824 116.94C225.812 128.13 221.365 138.858 213.461 146.771C205.557 154.684 194.839 159.135 183.661 159.148ZM183.661 75.8938C175.551 75.8938 167.623 78.3012 160.88 82.8114C154.137 87.3216 148.882 93.7322 145.778 101.232C142.675 108.733 141.863 116.986 143.445 124.948C145.027 132.91 148.933 140.224 154.667 145.964C160.401 151.705 167.708 155.614 175.662 157.198C183.615 158.781 191.86 157.968 199.352 154.862C206.845 151.755 213.248 146.494 217.754 139.744C222.259 132.994 224.664 125.058 224.664 116.94C224.652 106.057 220.328 95.6244 212.641 87.9294C204.954 80.2345 194.532 75.9061 183.661 75.8938Z" fill="#3F3D56"/>
<path d="M177.988 138.606C177.27 138.606 176.562 138.438 175.92 138.117C175.277 137.795 174.719 137.328 174.288 136.753L162.944 121.611C162.579 121.125 162.314 120.571 162.163 119.982C162.012 119.393 161.979 118.78 162.065 118.178C162.151 117.576 162.354 116.997 162.664 116.474C162.973 115.951 163.383 115.494 163.869 115.129C164.355 114.764 164.908 114.498 165.496 114.348C166.085 114.197 166.697 114.163 167.298 114.249C167.9 114.335 168.478 114.539 169.001 114.849C169.523 115.159 169.98 115.569 170.345 116.055L177.767 125.961L196.829 97.3373C197.166 96.8314 197.599 96.3968 198.104 96.0585C198.609 95.7201 199.175 95.4846 199.771 95.3653C200.366 95.2461 200.98 95.2454 201.576 95.3634C202.171 95.4814 202.738 95.7158 203.244 96.0531C203.749 96.3904 204.183 96.8241 204.521 97.3293C204.859 97.8346 205.095 98.4015 205.214 98.9978C205.333 99.5941 205.334 100.208 205.216 100.805C205.098 101.401 204.864 101.968 204.527 102.474L181.837 136.544C181.427 137.16 180.875 137.669 180.228 138.027C179.58 138.386 178.857 138.584 178.117 138.604C178.074 138.605 178.031 138.606 177.988 138.606Z" fill="#61AEF2"/>
<path d="M137.856 334.308C137.856 334.399 137.874 334.489 137.908 334.573C137.943 334.657 137.994 334.733 138.058 334.797C138.122 334.862 138.198 334.913 138.282 334.947C138.366 334.982 138.456 335 138.547 334.999H285.477C285.66 334.999 285.836 334.926 285.965 334.797C286.094 334.667 286.167 334.491 286.167 334.308C286.167 334.125 286.094 333.949 285.965 333.82C285.836 333.69 285.66 333.617 285.477 333.617H138.547C138.456 333.617 138.366 333.635 138.282 333.669C138.198 333.704 138.122 333.755 138.058 333.819C137.994 333.883 137.943 333.959 137.908 334.043C137.874 334.127 137.856 334.217 137.856 334.308Z" fill="#CCCCCC"/>
<path d="M267.949 118.364L254.355 80.7702C253.775 79.1792 252.592 77.8804 251.064 77.1543C249.535 76.4282 247.782 76.3328 246.184 76.8888C245.357 77.1765 244.597 77.6297 243.951 78.2208C243.305 78.8119 242.786 79.5286 242.425 80.3271C242.065 81.1257 241.871 81.9893 241.855 82.8654C241.838 83.7415 242.001 84.6118 242.331 85.4231L257.648 124.04L265.966 147.898C265.11 148.674 264.512 149.695 264.256 150.823C263.999 151.95 264.095 153.13 264.532 154.2C264.968 155.271 265.723 156.181 266.694 156.808C267.665 157.434 268.805 157.746 269.959 157.701C271.113 157.656 272.226 157.257 273.145 156.557C274.065 155.857 274.747 154.891 275.099 153.789C275.451 152.688 275.455 151.505 275.112 150.401C274.769 149.297 274.094 148.325 273.18 147.618L267.949 118.364Z" fill="#FFB6B6"/>
<path d="M247.492 64.0293L258.514 83.7728C258.514 83.7728 233.114 92.4786 233.052 91.0292C232.99 89.5797 234.314 69.4658 234.314 69.4658L247.492 64.0293Z" fill="#E6E6E6"/>
</g>
<defs>
<clipPath id="clip0_4364_4643">
<rect width="402" height="335" fill="white"/>
</clipPath>
</defs>
</svg>
