<svg width="297" height="247" viewBox="0 0 297 247" fill="none" xmlns="http://www.w3.org/2000/svg">
<g clip-path="url(#clip0_4804_2065)">
<path d="M74.1128 190.087H287.276C288.496 190.087 289.705 189.847 290.833 189.381C291.961 188.914 292.986 188.23 293.849 187.367C294.712 186.505 295.397 185.481 295.864 184.355C296.331 183.228 296.571 182.02 296.571 180.801V57.6558C296.573 56.8327 296.464 56.0133 296.246 55.2196C295.711 53.2522 294.543 51.5154 292.922 50.2773C291.3 49.0392 289.316 48.3686 287.276 48.3691H204.017C202.075 51.6376 200.878 55.2938 200.511 59.0772C199.479 70.0764 205.791 80.245 211.44 89.7457C217.089 99.2464 222.476 110.293 219.484 120.932C217.461 128.108 211.98 133.302 205.179 136.414C198.643 139.303 191.454 140.397 184.354 139.583C180.09 139.044 175.89 138.086 171.814 136.723C166.47 134.988 161.25 132.741 156.039 130.467C156.034 130.467 156.034 130.467 156.03 130.463C155.94 130.424 155.846 130.382 155.756 130.343C151.723 128.583 147.694 126.819 143.606 125.265C138.815 123.394 133.843 122.025 128.769 121.181C121.059 119.973 113.284 120.41 106.406 123.904C95.1942 129.594 89.1857 141.89 84.4842 153.545C79.7357 165.327 75.4799 177.504 74.1128 190.087Z" fill="#61AEF2"/>
<path d="M0.428467 142.978V180.8C0.428401 182.02 0.668791 183.228 1.13592 184.354C1.60305 185.481 2.28777 186.505 3.15097 187.367C4.01417 188.23 5.03894 188.914 6.16678 189.38C7.29462 189.847 8.50343 190.087 9.72418 190.087H45.1585C45.7713 184.38 45.257 178.694 43.007 173.389C38.1042 161.82 26.2413 154.979 14.9313 149.485C10.1785 147.178 5.34418 144.951 0.428467 142.978Z" fill="#61AEF2"/>
<path d="M37.563 181.353C37.563 183.816 38.5424 186.178 40.2856 187.92C42.0289 189.661 44.3933 190.64 46.8587 190.64H82.293C82.9058 184.932 82.3916 179.246 80.1416 173.942C78.9889 171.222 76.2963 168.209 72.7878 165.166C59.0228 153.225 37.563 163.141 37.563 181.353Z" fill="#61AEF2"/>
<path d="M0 180.801V57.6561C0.002922 55.0805 1.02838 52.6112 2.8514 50.79C4.67442 48.9688 7.14612 47.9443 9.72426 47.9414H287.276C289.854 47.9443 292.326 48.9688 294.149 50.79C295.972 52.6112 296.997 55.0805 297 57.6561V180.801C296.997 183.377 295.972 185.846 294.149 187.667C292.326 189.489 289.854 190.513 287.276 190.516H9.72426C7.14609 190.513 4.67435 189.489 2.85133 187.667C1.02831 185.846 0.00287775 183.377 0 180.801ZM9.72426 48.7977C7.37336 48.8003 5.1195 49.7345 3.45716 51.3952C1.79482 53.0559 0.859769 55.3075 0.857143 57.6561V180.801C0.859726 183.15 1.79476 185.401 3.4571 187.062C5.11944 188.723 7.37333 189.657 9.72426 189.66H287.276C289.627 189.657 291.881 188.723 293.543 187.062C295.205 185.401 296.14 183.15 296.143 180.801V57.6561C296.14 55.3075 295.205 53.0559 293.543 51.3952C291.88 49.7345 289.627 48.8003 287.276 48.7977H9.72426Z" fill="#3F3D56"/>
<path d="M91.8472 189.784H104.451C106.607 182.532 109.719 174.846 112.56 167.841C118.011 154.411 124.976 140.24 137.974 133.683C143.524 130.882 149.576 129.789 155.756 129.848C164.293 129.929 173.07 132.219 181.106 135.253C184.393 136.491 187.65 137.853 190.894 139.245C203.117 144.492 215.207 150.207 228.351 151.751C244.984 153.705 264.54 146.27 269.083 130.257C272.55 117.997 266.306 105.269 259.757 94.3193C253.209 83.37 245.889 71.6546 247.084 58.9775C247.089 58.9349 247.093 58.8881 247.101 58.8456C247.551 54.2922 250.273 51.0198 254.074 48.9219H237.523C237.304 60.7479 244.153 71.1865 250.316 81.4933C256.864 92.4384 263.109 105.171 259.641 117.431C255.099 133.44 217.482 114.674 200.849 112.716C196.152 112.168 203.613 114.121 199.134 112.716C192.11 110.516 191.331 130.695 184.496 127.733C180.24 125.887 175.98 124.052 171.664 122.423C169.877 121.746 168.051 121.112 166.204 120.525C166.2 120.525 166.2 120.525 166.196 120.52C153.793 116.597 140.229 115.069 128.769 120.742C128.691 120.78 128.61 120.818 128.533 120.857C115.534 127.41 108.57 141.581 103.119 155.011C98.6143 166.114 94.0672 178.073 91.8472 189.784Z" fill="#3F3D56"/>
<path d="M91.9842 101.52H10.0021C9.33034 101.52 8.68609 101.786 8.21109 102.261C7.73609 102.735 7.46924 103.379 7.46924 104.05C7.46924 104.721 7.73609 105.365 8.21109 105.839C8.68609 106.314 9.33034 106.58 10.0021 106.58H91.9842C92.656 106.58 93.3002 106.314 93.7752 105.839C94.2502 105.365 94.5171 104.721 94.5171 104.05C94.5171 103.379 94.2502 102.735 93.7752 102.261C93.3002 101.786 92.656 101.52 91.9842 101.52Z" fill="#3F3D56"/>
<path d="M35.4777 87.3311H10.059C9.38724 87.3311 8.74299 87.5976 8.26799 88.0722C7.79298 88.5467 7.52612 89.1903 7.52612 89.8614C7.52612 90.5325 7.79298 91.1762 8.26799 91.6507C8.74299 92.1252 9.38724 92.3918 10.059 92.3918H35.4777C36.1495 92.3918 36.7938 92.1252 37.2688 91.6507C37.7438 91.1762 38.0106 90.5325 38.0106 89.8614C38.0106 89.1903 37.7438 88.5467 37.2688 88.0722C36.7938 87.5976 36.1495 87.3311 35.4777 87.3311Z" fill="#3F3D56"/>
<path d="M133.499 235.451L128.303 235.407L126.003 214.92L133.671 214.985L133.499 235.451Z" fill="#FFB6B6"/>
<path d="M116.857 243.705C116.852 244.32 117.092 244.912 117.524 245.351C117.955 245.79 118.544 246.04 119.16 246.046L129.49 246.132L131.298 242.47L131.962 246.151L135.86 246.186L134.876 233.058L133.52 232.968L127.988 232.587L126.204 232.468L126.173 236.182L117.874 241.805C117.564 242.016 117.309 242.299 117.131 242.63C116.954 242.961 116.86 243.33 116.857 243.705Z" fill="#2F2E41"/>
<path d="M186.213 235.451L181.017 235.407L178.718 214.92L186.386 214.985L186.213 235.451Z" fill="#FFB6B6"/>
<path d="M169.571 243.705C169.566 244.32 169.806 244.912 170.238 245.351C170.67 245.79 171.258 246.04 171.874 246.046L182.204 246.132L184.012 242.47L184.677 246.151L188.574 246.186L187.59 233.058L186.234 232.968L180.703 232.587L178.918 232.468L178.887 236.182L170.589 241.805C170.278 242.016 170.023 242.299 169.846 242.63C169.668 242.961 169.574 243.33 169.571 243.705Z" fill="#2F2E41"/>
<path d="M127.09 71.3816L150.473 53.403C151.462 52.6384 152.11 51.5161 152.277 50.2785C152.445 49.0409 152.119 47.7871 151.369 46.7876C150.981 46.2706 150.492 45.8379 149.931 45.5159C149.371 45.1939 148.75 44.9893 148.108 44.9147C147.465 44.84 146.814 44.8969 146.195 45.0817C145.575 45.2666 145 45.5756 144.503 45.9899L120.786 65.4092L105.877 76.6022C105.139 76.1736 104.287 75.9824 103.437 76.0544C102.586 76.1265 101.779 76.4583 101.124 77.0048C100.469 77.5513 99.9981 78.2861 99.7756 79.1092C99.5531 79.9323 99.5896 80.8039 99.8802 81.6055C100.171 82.4072 100.701 83.1 101.4 83.5899C102.098 84.0798 102.931 84.343 103.784 84.3438C104.638 84.3446 105.471 84.0828 106.17 83.5942C106.869 83.1056 107.401 82.4137 107.693 81.6126L127.09 71.3816Z" fill="#FFB6B6"/>
<path d="M146.148 75.515L145.118 98.5128L180.126 102.745C177.371 93.5038 172.854 80.6685 174.924 74.2373L146.148 75.515Z" fill="#A0616A"/>
<path d="M166.048 33.3535H155.265L150.633 41.2705L148.427 41.1487C144.126 42.8035 142.412 44.5161 140.038 49.079L131.698 56.0762L138.126 63.7829C142.566 63.0562 144.167 59.6129 142.757 53.289C142.757 53.289 137.895 61.7549 144.899 65.9199C144.899 65.9199 143.65 73.7671 144.899 73.6828C146.148 73.5984 149.026 72.0014 146.149 73.5984C143.271 75.1955 143.764 75.2644 143.858 75.7819C145.412 84.3342 146.697 90.7565 146.697 90.7565L177.126 93.7536C177.126 93.7536 175.373 75.3695 175.468 74.3243C175.563 73.279 174.924 75.8344 175.563 73.279C176.203 70.7237 177.162 71.6819 176.203 70.7237C175.244 69.7655 182.796 68.9402 179.849 64.3353L189.706 61.7664L184.196 48.6841C184.196 44.2669 177.095 40.6861 172.673 40.6861H172.107L166.048 33.3535Z" fill="#E6E6E6"/>
<path d="M177.524 90.2793C165.62 94.3701 154.902 93.4719 145.84 85.6182C145.84 85.6182 143.29 95.0374 140.708 93.753C138.126 92.4685 139.402 96.0627 138.693 97.3805C137.94 98.7796 138.814 101.14 136.327 101.942C133.84 102.744 134.774 105.102 133.969 106.838C128.335 118.982 121.901 136.172 117.555 157.976C113.088 180.381 123.983 217.917 123.983 217.917L134.269 217.061L136.84 168.251L148.601 147.62C148.601 147.62 154.379 144.26 150.753 142.555C147.126 140.85 149.556 138.737 152.198 139.151C154.84 139.565 157.84 125.864 157.84 125.864C154.073 135.323 177.555 218.773 177.555 218.773L187.412 217.917L181.84 101.46L177.524 90.2793Z" fill="#2F2E41"/>
<path d="M172.448 13.4775C173.617 16.3861 176.915 22.1059 177.362 25.2261L177.161 25.0286C176.777 25.6832 176.341 26.3057 175.857 26.8901C174.99 25.9802 173.943 25.2607 172.782 24.7774C173.416 26.0769 173.783 27.49 173.862 28.9334C171.715 30.8012 166.232 29.6743 163.492 30.6697C159.084 32.2676 154.403 32.8365 149.782 33.3089C148.141 33.4776 146.305 33.58 145.156 32.6116C144.006 31.6433 144.691 29.8501 144.072 28.4938C139.667 18.8327 143.733 15.3471 147.187 10.9664C147.947 10.0024 147.944 8.56376 148.868 7.64396C150.152 6.36902 152.119 5.97686 153.933 5.66273C153.461 5.68753 152.992 5.59075 152.569 5.3817C152.146 5.17266 151.784 4.85839 151.518 4.46916C151.285 4.077 151.164 3.62806 151.17 3.17186C151.176 2.71567 151.308 2.26993 151.551 1.88382C152.2 0.809522 153.548 0.184802 154.848 0.0287361C156.129 -0.0581734 157.416 0.0523391 158.663 0.356396C159.471 0.462573 160.254 0.712437 160.974 1.09417C161.314 1.27522 161.59 1.55554 161.766 1.89766C161.942 2.23978 162.009 2.62739 161.958 3.00867C161.85 3.36077 161.663 3.68389 161.413 3.95393C161.162 4.22397 160.853 4.43396 160.51 4.56824C159.986 4.78937 159.436 4.93996 158.872 5.01605C161.46 4.68065 164.088 5.1402 166.407 6.33356C169.314 7.88254 171.275 10.5705 172.448 13.4775Z" fill="#2F2E41"/>
<path d="M156.709 29.7837C162.448 29.7837 167.099 25.1364 167.099 19.4036C167.099 13.6708 162.448 9.02344 156.709 9.02344C150.971 9.02344 146.319 13.6708 146.319 19.4036C146.319 25.1364 150.971 29.7837 156.709 29.7837Z" fill="#FFB6B6"/>
<path d="M166.707 13.8383C166.105 15.6572 164.383 16.2434 162.792 16.6089C162.29 16.7258 161.786 16.8346 161.276 16.9315C161.088 16.6967 160.888 16.4666 160.679 16.2491C159.812 15.3392 158.765 14.6197 157.604 14.1364C158.106 15.1629 158.439 16.2633 158.592 17.3955C157.63 17.5349 156.663 17.6489 155.69 17.7373C154.867 17.9123 154.008 17.7648 153.291 17.3252C152.574 16.8856 152.053 16.1876 151.837 15.3755C150.951 16.822 149.904 18.1842 148.473 18.7589C147.654 19.0527 146.763 19.0769 145.929 18.8278C145.096 18.5787 144.364 18.0694 143.841 17.3746C142.984 16.3296 142.506 14.9257 142.163 13.5707C141.757 11.9599 141.531 10.1044 142.329 9.08238C142.968 8.25526 144.07 8.24041 145.087 8.31379C147.332 8.48584 149.554 8.88818 151.717 9.51446L151.9 9.92569C151.528 7.69506 152.334 5.54889 153.826 4.78563C154.832 4.2753 156.042 4.36087 157.219 4.4644C158.729 4.53174 160.222 4.82013 161.649 5.32035C163.286 5.94941 164.688 7.0684 165.664 8.52421C166.708 10.1077 167.227 12.2674 166.707 13.8383Z" fill="#2F2E41"/>
<path d="M151.895 4.13605C151.997 4.10581 151.732 4.14465 151.824 4.14711C151.778 4.14446 151.733 4.1381 151.688 4.12809C151.68 4.12657 151.577 4.09359 151.646 4.11782C151.491 4.07172 151.354 3.98197 151.249 3.85942C151.005 3.55789 150.814 3.21744 150.683 2.85236C150.518 2.36991 150.252 1.9278 149.904 1.55506C149.805 1.45588 149.684 1.38138 149.551 1.33762C149.418 1.29385 149.277 1.28204 149.138 1.30316C149 1.32428 148.868 1.37772 148.754 1.45916C148.64 1.54059 148.547 1.64771 148.483 1.77183C148.28 2.21902 148.465 2.77001 148.609 3.20922C148.758 3.66557 148.98 4.09492 149.266 4.48074C149.745 5.11165 150.397 5.58975 151.143 5.85678C152.007 6.17015 152.949 6.19704 153.829 5.93345C153.945 5.88526 154.045 5.80432 154.116 5.70049C154.187 5.59666 154.226 5.47443 154.229 5.34869C154.232 5.22294 154.198 5.09911 154.131 4.99229C154.065 4.88546 153.969 4.80025 153.855 4.74704L152.387 4.14675C152.31 4.11279 152.226 4.09435 152.142 4.09252C152.058 4.09068 151.974 4.10548 151.895 4.13605C151.816 4.16661 151.744 4.21235 151.683 4.27067C151.622 4.329 151.574 4.39875 151.54 4.47595C151.506 4.55315 151.487 4.63628 151.485 4.7206C151.483 4.80492 151.498 4.88877 151.529 4.96738C151.559 5.04598 151.605 5.1178 151.664 5.17872C151.722 5.23965 151.792 5.28849 151.869 5.32246L153.337 5.92272L153.363 4.73632C153.18 4.78914 152.991 4.82133 152.801 4.8323C152.598 4.85262 152.393 4.84399 152.192 4.80666C152 4.78149 151.811 4.73549 151.629 4.66946C151.512 4.62689 151.398 4.57843 151.286 4.52427C151.246 4.50457 151.205 4.48412 151.166 4.46293C151.168 4.46446 150.998 4.36509 151.073 4.41178C150.883 4.29057 150.705 4.15195 150.54 3.99771C150.483 3.94301 150.429 3.88368 150.381 3.8203C150.297 3.71765 150.22 3.61022 150.149 3.49855C150.004 3.26206 149.89 3.0085 149.808 2.74372C149.77 2.63243 149.739 2.51928 149.713 2.40473C149.706 2.34185 149.695 2.27952 149.679 2.21819C149.625 2.07205 149.69 2.30352 149.627 2.36684L149.356 2.56604C149.306 2.58117 149.252 2.58467 149.2 2.5763C149.147 2.56792 149.097 2.54788 149.054 2.51767C149.022 2.4726 149.029 2.48007 149.075 2.54009C149.129 2.61073 149.178 2.68469 149.222 2.76153C149.319 2.94243 149.407 3.12814 149.485 3.31793C149.646 3.72157 149.85 4.10682 150.094 4.46714C150.332 4.83159 150.68 5.11151 151.087 5.26702C151.494 5.42254 151.94 5.44569 152.361 5.33319C152.519 5.27034 152.646 5.14795 152.714 4.99243C152.783 4.8369 152.787 4.66071 152.727 4.50186C152.663 4.34531 152.54 4.21979 152.385 4.15159C152.23 4.0834 152.054 4.07783 151.895 4.13605Z" fill="#2F2E41"/>
<path d="M135.69 116.913C152.657 116.913 166.412 103.172 166.412 86.2214C166.412 69.2706 152.657 55.5293 135.69 55.5293C118.722 55.5293 104.968 69.2706 104.968 86.2214C104.968 103.172 118.722 116.913 135.69 116.913Z" fill="white"/>
<path d="M135.69 117.342C129.529 117.342 123.506 115.517 118.383 112.097C113.26 108.678 109.268 103.818 106.91 98.1311C104.552 92.4446 103.935 86.1874 105.137 80.1506C106.339 74.1139 109.306 68.5688 113.663 64.2166C118.019 59.8643 123.57 56.9004 129.612 55.6996C135.655 54.4988 141.918 55.115 147.61 57.4704C153.302 59.8258 158.167 63.8145 161.59 68.9322C165.013 74.0499 166.84 80.0666 166.84 86.2216C166.831 94.4724 163.546 102.383 157.706 108.217C151.866 114.051 143.948 117.333 135.69 117.342ZM135.69 55.9579C129.698 55.9579 123.841 57.7328 118.859 61.0583C113.878 64.3837 109.995 69.1103 107.702 74.6404C105.409 80.1704 104.809 86.2554 105.978 92.1261C107.147 97.9967 110.032 103.389 114.269 107.622C118.505 111.854 123.903 114.737 129.78 115.904C135.656 117.072 141.747 116.473 147.283 114.182C152.818 111.891 157.549 108.012 160.878 103.035C164.207 98.0585 165.983 92.2073 165.983 86.2216C165.974 78.1979 162.78 70.5055 157.1 64.8319C151.421 59.1583 143.721 55.9669 135.69 55.9579Z" fill="#3F3D56"/>
<path d="M131.498 102.195C130.968 102.195 130.445 102.072 129.97 101.835C129.496 101.598 129.083 101.253 128.765 100.829L120.383 89.6648C120.114 89.3061 119.918 88.8979 119.807 88.4636C119.695 88.0293 119.671 87.5774 119.734 87.1335C119.798 86.6897 119.948 86.2627 120.177 85.877C120.405 85.4912 120.708 85.1542 121.067 84.8852C121.426 84.6162 121.835 84.4205 122.269 84.3093C122.704 84.198 123.156 84.1734 123.601 84.2368C124.045 84.3002 124.472 84.4504 124.858 84.6789C125.245 84.9073 125.582 85.2095 125.851 85.5682L131.335 92.8717L145.418 71.7674C145.667 71.3943 145.987 71.0739 146.36 70.8244C146.733 70.575 147.151 70.4013 147.591 70.3134C148.032 70.2254 148.485 70.225 148.925 70.312C149.365 70.399 149.784 70.5718 150.157 70.8205C150.531 71.0692 150.852 71.3889 151.101 71.7614C151.351 72.134 151.525 72.552 151.613 72.9916C151.701 73.4313 151.701 73.8839 151.614 74.3238C151.527 74.7636 151.354 75.182 151.105 75.555L134.342 100.675C134.039 101.129 133.631 101.504 133.153 101.769C132.675 102.033 132.14 102.179 131.594 102.194C131.562 102.195 131.53 102.195 131.498 102.195Z" fill="#61AEF2"/>
<path d="M101.849 246.491C101.849 246.558 101.862 246.624 101.888 246.686C101.913 246.748 101.951 246.804 101.998 246.852C102.045 246.899 102.102 246.937 102.164 246.962C102.226 246.988 102.292 247.001 102.359 247H210.912C211.047 247 211.177 246.947 211.273 246.851C211.368 246.756 211.422 246.626 211.422 246.491C211.422 246.356 211.368 246.226 211.273 246.131C211.177 246.035 211.047 245.981 210.912 245.981H102.359C102.292 245.981 102.226 245.994 102.164 246.02C102.102 246.045 102.045 246.083 101.998 246.13C101.951 246.178 101.913 246.234 101.888 246.296C101.862 246.358 101.849 246.424 101.849 246.491Z" fill="#CCCCCC"/>
<path d="M197.962 87.2715L187.919 59.5532C187.49 58.3801 186.617 57.4225 185.487 56.8871C184.358 56.3517 183.063 56.2814 181.882 56.6914C181.271 56.9035 180.71 57.2376 180.233 57.6735C179.755 58.1093 179.372 58.6377 179.105 59.2265C178.839 59.8152 178.696 60.452 178.684 61.098C178.672 61.744 178.792 62.3856 179.036 62.9838L190.352 91.4569L196.497 109.048C195.865 109.62 195.423 110.373 195.234 111.204C195.044 112.035 195.115 112.905 195.438 113.694C195.76 114.484 196.317 115.155 197.035 115.617C197.752 116.078 198.595 116.308 199.447 116.275C200.3 116.242 201.122 115.948 201.801 115.432C202.481 114.916 202.985 114.203 203.245 113.391C203.505 112.579 203.508 111.707 203.255 110.893C203.001 110.079 202.503 109.362 201.827 108.841L197.962 87.2715Z" fill="#FFB6B6"/>
<path d="M182.849 47.209L190.992 61.7661C190.992 61.7661 172.226 68.185 172.18 67.1164C172.134 66.0477 173.112 51.2174 173.112 51.2174L182.849 47.209Z" fill="#E6E6E6"/>
</g>
<defs>
<clipPath id="clip0_4804_2065">
<rect width="297" height="247" fill="white"/>
</clipPath>
</defs>
</svg>
